<?xml version="1.0" encoding="UTF-8"?>
<svg version="1.1" xmlns="http://www.w3.org/2000/svg" width="315" height="387">
<path d="M0 0 C-1.6884516 6.16136725 -3.77017026 12.10633152 -6.0625 18.0625 C-16.90422783 46.69611886 -11.03385827 76.34846711 0.93994141 103.68457031 C8.28387531 119.7255351 19.36428651 132.86635314 31.44970703 145.51757812 C59.0670654 174.4368581 76.21751235 207.03581084 76.25 247.5 C76.25067474 248.25633728 76.25134949 249.01267456 76.25204468 249.79193115 C76.22032395 272.18558067 71.31714116 291.33101942 63 312 C63.58136719 311.26910156 64.16273438 310.53820312 64.76171875 309.78515625 C66.11247692 308.1043699 67.48430413 306.43980491 68.89453125 304.80859375 C86.0259895 283.62978488 87.98143988 251.42303891 85.48632812 225.34912109 C82.12477839 195.49105846 69.11032456 169.03659099 49.43847656 146.66064453 C47.39612392 144.30285725 45.44934242 141.8724059 43.5 139.4375 C40.67631139 135.94611607 37.74762188 132.62645246 34.66015625 129.37158203 C11.50987823 104.91799637 -4.83653723 74.68545557 -4.18359375 40.38671875 C-3.55297915 28.75389202 -0.46524292 18.04380854 3 7 C12.95128951 12.19483615 22.50215253 18.02526578 32 24 C32.78455566 24.49338867 33.56911133 24.98677734 34.37744141 25.49511719 C44.50320342 31.9161278 53.37871611 38.67232021 62 47 C63.32625272 48.11266146 64.65892703 49.21774656 66 50.3125 C100.9307092 80.91295599 119.2997143 130.95791889 123 176 C123.87251153 190.11174751 122.93813591 203.82077133 120.75 217.75 C120.64757996 218.41637482 120.54515991 219.08274963 120.43963623 219.76931763 C118.59357229 231.57053733 115.57191006 242.70755058 110.875 253.6875 C108.50712194 259.36524374 106.83310779 264.89533085 106 271 C105.34 270.67 104.68 270.34 104 270 C101.75387035 272.24612965 100.74113342 275.88088981 99.44921875 278.75 C98 281 98 281 95.83203125 281.8125 C94.92517578 281.9053125 94.92517578 281.9053125 94 282 C93.79503906 282.84304688 93.59007812 283.68609375 93.37890625 284.5546875 C92.97478516 286.19824219 92.97478516 286.19824219 92.5625 287.875 C92.29566406 288.96554687 92.02882813 290.05609375 91.75390625 291.1796875 C91 294 91 294 90 296 C89.360625 296.12375 88.72125 296.2475 88.0625 296.375 C85.84915847 296.79793094 85.84915847 296.79793094 84.875 298.8125 C84.58625 299.534375 84.2975 300.25625 84 301 C83.125 303.1875 83.125 303.1875 82 305 C79.99609375 305.609375 79.99609375 305.609375 78 306 C76.6072711 307.61736259 75.28062485 309.2925002 74 311 C72.3545622 312.68762851 70.68711423 314.3540349 69 316 C68.21625 316.78375 67.4325 317.5675 66.625 318.375 C65.75875 319.24125 64.8925 320.1075 64 321 C63.40574219 321.61746094 62.81148438 322.23492187 62.19921875 322.87109375 C61.57660156 323.51175781 60.95398438 324.15242188 60.3125 324.8125 C59.73113281 325.41707031 59.14976562 326.02164062 58.55078125 326.64453125 C57 328 57 328 55 328 C54.74992187 328.59167969 54.49984375 329.18335938 54.2421875 329.79296875 C48.00165052 340.88071527 29.60647116 347.9356893 18 352 C15.67612053 352.39387788 13.34314458 352.74460021 11 353 C11.85248395 351.70722214 12.70713073 350.41587059 13.5625 349.125 C14.11421875 348.29226563 14.6659375 347.45953125 15.234375 346.6015625 C16.34041857 344.97186114 17.47227 343.35906214 18.640625 341.7734375 C36.59217423 317.36268598 42.54391869 289.29146853 38.31640625 259.2734375 C33.12256621 229.16803114 16.48339089 206.33094262 -4.29150391 184.77636719 C-30.46253123 157.56567917 -48.46643788 126.47358143 -48.30273438 87.8190918 C-47.56150137 55.49652857 -30.44479299 26.58046027 -7.59765625 4.69921875 C-2.38990481 0 -2.38990481 0 0 0 Z " fill="#653627" transform="translate(172,9)"/>
<path d="M0 0 C0.99 0.495 0.99 0.495 2 1 C1.319375 1.639375 0.63875 2.27875 -0.0625 2.9375 C-21.15904712 24.27108698 -29.25810879 54.06833285 -29.2487793 83.2565918 C-29.16814021 92.24465895 -28.54389598 100.33839467 -26 109 C-25.67128906 110.19753906 -25.34257813 111.39507812 -25.00390625 112.62890625 C-18.96318543 132.67406635 -7.289467 149.90334173 7 165 C8.77699838 166.89671966 10.55140737 168.79583441 12.32519531 170.69555664 C13.53173966 171.9860909 14.74058301 173.27448115 15.95214844 174.56030273 C42.29946714 202.60587632 57.87822457 232.27507987 57.31640625 271.26953125 C57.02796431 279.87813519 55.5061041 287.78670022 53 296 C52.649375 297.22589844 52.29875 298.45179688 51.9375 299.71484375 C48.01570934 312.0385262 40.96467745 322.72077246 32 332 C31.113125 332.94875 30.22625 333.8975 29.3125 334.875 C27 337 27 337 24.8125 338.0625 C22.84369864 338.84334346 22.84369864 338.84334346 22.17578125 340.82421875 C20.68538254 343.58219908 18.88126232 344.88820514 16.375 346.75 C15.14910156 347.67039062 15.14910156 347.67039062 13.8984375 348.609375 C13.27195312 349.06828125 12.64546875 349.5271875 12 350 C11.34 349.67 10.68 349.34 10 349 C10.47179687 348.21302734 10.47179687 348.21302734 10.953125 347.41015625 C22.88850497 325.8042425 21.87221911 299.25983365 15.89501953 276.08398438 C11.73281189 261.74219308 5.51758228 247.40633826 -3.75 235.625 C-4.18046631 235.07610107 -4.61093262 234.52720215 -5.05444336 233.96166992 C-6.36170605 232.30130017 -7.67908257 230.64951881 -9 229 C-10.15435547 227.55173828 -10.15435547 227.55173828 -11.33203125 226.07421875 C-14.89584038 221.66158643 -18.54162617 217.36812439 -22.375 213.1875 C-27.47063943 207.5849645 -32.12521736 201.67370254 -36.72607422 195.66357422 C-37.86377721 194.17788848 -39.01131108 192.6997429 -40.16015625 191.22265625 C-62.27298286 161.98800477 -70.7249622 127.9989595 -66.63671875 91.78173828 C-64.63468389 78.98394804 -59.55426988 67.45105317 -53.74682617 55.95678711 C-52.76228528 53.72623155 -52.76228528 53.72623155 -53 50 C-55.60539543 50.35072631 -56.72097513 50.66195064 -58.421875 52.72265625 C-59.97933755 55.4665388 -61.507552 58.22001678 -63 61 C-63.32049316 61.57202148 -63.64098633 62.14404297 -63.97119141 62.73339844 C-74.44614018 81.49074789 -78.83627723 102.5554624 -78 124 C-78.00515625 125.06992188 -78.0103125 126.13984375 -78.015625 127.2421875 C-77.1974873 165.94010064 -57.61382059 198.63888002 -32 226 C-6.16097798 254.22249575 8.93553936 282.73185786 8.15820312 321.52392578 C7.86866295 327.88576684 6.77404251 333.88588919 5 340 C-9.66600159 334.77649258 -23.38515129 328.19247167 -36 319 C-36.53802246 318.61005859 -37.07604492 318.22011719 -37.63037109 317.81835938 C-57.37461867 303.36163154 -72.96229919 285.2799166 -85 264 C-85.38897461 263.32163086 -85.77794922 262.64326172 -86.17871094 261.94433594 C-99.97368503 237.66044322 -109.12657238 210.29119843 -109.16796875 182.15234375 C-109.17129715 181.3373793 -109.17462555 180.52241486 -109.17805481 179.68275452 C-109.18308253 177.96762652 -109.18546443 176.25248888 -109.18530273 174.53735352 C-109.18747415 171.96808923 -109.20563312 169.39926592 -109.22460938 166.83007812 C-109.27631367 152.25447051 -107.98033144 138.35312807 -104.3125 124.1875 C-104.05194824 123.16906006 -103.79139648 122.15062012 -103.52294922 121.10131836 C-95.27169512 89.80084377 -80.74302368 64.03197483 -58.50830078 40.59179688 C-57.08988975 39.09486584 -55.68320217 37.58685111 -54.27734375 36.078125 C-40.06465225 21.25841133 -19.30256154 7.22955718 0 0 Z " fill="#A76846" transform="translate(129,24)"/>
<path d="M0 0 C-1.6884516 6.16136725 -3.77017026 12.10633152 -6.0625 18.0625 C-16.90422783 46.69611886 -11.03385827 76.34846711 0.93994141 103.68457031 C8.28387531 119.7255351 19.36428651 132.86635314 31.44970703 145.51757812 C59.0670654 174.4368581 76.21751235 207.03581084 76.25 247.5 C76.25067474 248.25633728 76.25134949 249.01267456 76.25204468 249.79193115 C76.21543938 275.63390304 70.43438925 297.91648354 57.25 320.3125 C56.86102539 320.97773682 56.47205078 321.64297363 56.07128906 322.32836914 C55.10631749 323.92267917 54.06000632 325.46723087 53 327 C52.34 327 51.68 327 51 327 C51.495 328.485 51.495 328.485 52 330 C51.48575508 332.86167772 50.62896501 334.48496428 48.36914062 336.33544922 C46.20484916 337.7872492 44.00135667 339.12472736 41.75 340.4375 C40.54186646 341.15655518 40.54186646 341.15655518 39.30932617 341.89013672 C30.34632153 347.12350354 21.44140718 351.8179539 11 353 C11.85248395 351.70722214 12.70713073 350.41587059 13.5625 349.125 C14.11421875 348.29226563 14.6659375 347.45953125 15.234375 346.6015625 C16.34041857 344.97186114 17.47227 343.35906214 18.640625 341.7734375 C36.59217423 317.36268598 42.54391869 289.29146853 38.31640625 259.2734375 C33.12256621 229.16803114 16.48339089 206.33094262 -4.29150391 184.77636719 C-30.46253123 157.56567917 -48.46643788 126.47358143 -48.30273438 87.8190918 C-47.56150137 55.49652857 -30.44479299 26.58046027 -7.59765625 4.69921875 C-2.38990481 0 -2.38990481 0 0 0 Z " fill="#2E1F1E" transform="translate(172,9)"/>
<path d="M0 0 C0.99 0 1.98 0 3 0 C3.495 1.98 3.495 1.98 4 4 C5.65 3.01 7.3 2.02 9 1 C7.78622448 4.81313953 6.38176012 8.37969174 4.6875 12 C2.20588747 17.8837045 0.67232482 23.84342793 -0.75 30.0625 C-0.96052002 30.97193359 -1.17104004 31.88136719 -1.38793945 32.81835938 C-3.58769743 42.83837854 -4.25196597 52.76222499 -4 63 C-4.00644531 64.07765625 -4.01289062 65.1553125 -4.01953125 66.265625 C-3.1549154 104.96747712 16.37679917 137.62885989 42 165 C67.83902202 193.22249575 82.93553936 221.73185786 82.15820312 260.52392578 C81.86866295 266.88576684 80.77404251 272.88588919 79 279 C64.33399841 273.77649258 50.61484871 267.19247167 38 258 C37.46197754 257.61005859 36.92395508 257.22011719 36.36962891 256.81835938 C16.62538133 242.36163154 1.03770081 224.2799166 -11 203 C-11.38897461 202.32163086 -11.77794922 201.64326172 -12.17871094 200.94433594 C-25.97368503 176.66044322 -35.12657238 149.29119843 -35.16796875 121.15234375 C-35.17129715 120.3373793 -35.17462555 119.52241486 -35.17805481 118.68275452 C-35.18308253 116.96762652 -35.18546443 115.25248888 -35.18530273 113.53735352 C-35.18747415 110.96808923 -35.20563312 108.39926592 -35.22460938 105.83007812 C-35.27631606 91.25379814 -33.97854589 77.35409649 -30.3125 63.1875 C-30.05484863 62.17558594 -29.79719727 61.16367188 -29.53173828 60.12109375 C-26.23518616 47.573309 -21.94833042 35.53300746 -16 24 C-15.34 24.99 -14.68 25.98 -14 27 C-13.896875 26.29875 -13.79375 25.5975 -13.6875 24.875 C-12.07073512 18.11398321 -7.8727187 11.72817166 -4 6 C-3.34 5.67 -2.68 5.34 -2 5 C-1.27840576 3.35636866 -0.60648579 1.68949614 0 0 Z " fill="#683328" transform="translate(55,85)"/>
<path d="M0 0 C0.99 0.495 0.99 0.495 2 1 C1.319375 1.639375 0.63875 2.27875 -0.0625 2.9375 C-3.1227237 5.98033606 -5.66741116 9.36973727 -8.25390625 12.81640625 C-10.04018842 15.050258 -11.90850198 17.04999868 -14 19 C-14.33 19 -14.66 19 -15 19 C-15 16.36 -15 13.72 -15 11 C-18.99343923 14.86864426 -22.62159158 18.97712359 -26.23046875 23.20703125 C-26.81441406 23.79871094 -27.39835937 24.39039062 -28 25 C-28.66 25 -29.32 25 -30 25 C-30.495 26.485 -30.495 26.485 -31 28 C-31.99 28 -32.98 28 -34 28 C-35.42944945 30.35438733 -36.08661261 31.48032433 -35.625 34.25 C-35.41875 34.8275 -35.2125 35.405 -35 36 C-35.99 36.33 -36.98 36.66 -38 37 C-39.18519265 39.43276386 -40 41.28017286 -40 44 C-41.32 44.66 -42.64 45.32 -44 46 C-44 45.01 -44 44.02 -44 43 C-46.31 46.3 -48.62 49.6 -51 53 C-51.99 52.505 -51.99 52.505 -53 52 C-53 51.34 -53 50.68 -53 50 C-54.90860043 50.12798876 -54.90860043 50.12798876 -57 51 C-58.7194545 53.22918367 -58.7194545 53.22918367 -60.125 55.9375 C-63.71221884 62.39635258 -63.71221884 62.39635258 -67 63.9375 C-69.32131409 64.96786859 -69.32131409 64.96786859 -71 68 C-71 65.69 -71 63.38 -71 61 C-71.99 61 -72.98 61 -74 61 C-74.26039062 61.71414062 -74.52078125 62.42828125 -74.7890625 63.1640625 C-76.06202449 66.14525736 -77.59781012 68.66653158 -79.375 71.375 C-84.84992341 79.17195353 -84.84992341 79.17195353 -88 88 C-88.66 87.67 -89.32 87.34 -90 87 C-89.41153786 82.29230284 -87.37764088 78.55941843 -85.0625 74.5 C-84.4586145 73.44051147 -84.4586145 73.44051147 -83.8425293 72.35961914 C-76.6942731 60.10171931 -67.4327615 49.86684075 -57.625 39.69238281 C-56.19386788 38.20190687 -54.78279313 36.69222714 -53.375 35.1796875 C-39.56340945 20.686604 -18.77217154 7.03090558 0 0 Z " fill="#C39160" transform="translate(129,24)"/>
<path d="M0 0 C0.495 1.98 0.495 1.98 1 4 C0.34 4.33 -0.32 4.66 -1 5 C-1.48283757 6.64871367 -1.88621608 8.32099728 -2.25 10 C-3.7571678 15.91332672 -6.33704974 20.18283885 -10 25 C-10.51433594 25.721875 -11.02867188 26.44375 -11.55859375 27.1875 C-13.19712272 29.24787248 -14.6609843 29.86821821 -17 31 C-17.99 32.485 -17.99 32.485 -19 34 C-19 31.69 -19 29.38 -19 27 C-19.99 27 -20.98 27 -22 27 C-22.26039062 27.71414062 -22.52078125 28.42828125 -22.7890625 29.1640625 C-24.06202449 32.14525736 -25.59781012 34.66653158 -27.375 37.375 C-32.84992341 45.17195353 -32.84992341 45.17195353 -36 54 C-36.66 53.67 -37.32 53.34 -38 53 C-37.41153786 48.29230284 -35.37764088 44.55941843 -33.0625 40.5 C-32.65990967 39.79367432 -32.25731934 39.08734863 -31.8425293 38.35961914 C-23.39833896 23.87943873 -11.87245982 11.72624726 0 0 Z " fill="#9F7345" transform="translate(77,58)"/>
<path d="M0 0 C0.99 0 1.98 0 3 0 C3.13664063 0.6909375 3.27328125 1.381875 3.4140625 2.09375 C4.0471406 5.23381738 4.70676969 8.36722133 5.375 11.5 C5.63667969 12.73234375 5.89835938 13.9646875 6.16796875 15.234375 C6.70124292 17.64787877 7.26380198 20.05520791 7.86328125 22.453125 C9.5438797 29.17551881 10.41146134 35.09127699 10 42 C9.93335817 43.35675928 9.86697328 44.7135312 9.80078125 46.0703125 C9.72318925 47.52614063 9.64375646 48.9818718 9.5625 50.4375 C9.50400879 51.48611206 9.50400879 51.48611206 9.44433594 52.5559082 C9.25145296 55.57541023 8.96186095 58.11441716 8 61 C8.65583207 63.33640176 9.32215008 65.66989091 10 68 C9.505 68.99 9.505 68.99 9 70 C6.9375 70.625 6.9375 70.625 5 71 C5.33 71.33 5.66 71.66 6 72 C6.99 72 7.98 72 9 72 C7.52202738 75.67056937 5.52384523 77.41085783 2.375 79.75 C1.55773437 80.36359375 0.74046875 80.9771875 -0.1015625 81.609375 C-1.04128906 82.29773438 -1.04128906 82.29773438 -2 83 C-2.66 82.67 -3.32 82.34 -4 82 C-3.68546875 81.47535156 -3.3709375 80.95070313 -3.046875 80.41015625 C9.30117364 58.05721277 7.07635668 32.35423401 1.55126953 8.47119141 C0.92466282 5.66228391 0.42191742 2.8467302 0 0 Z " fill="#483328" transform="translate(143,291)"/>
<path d="M0 0 C0.99 0.33 1.98 0.66 3 1 C2.85492922 2.33341652 2.7088897 3.66672764 2.5625 5 C2.48128906 5.7425 2.40007812 6.485 2.31640625 7.25 C2.07373552 9.3591382 1.78188307 11.4626665 1.46875 13.5625 C0.7807404 19.03060242 0.89273978 24.49793564 0.9375 30 C0.94201172 31.06089844 0.94652344 32.12179688 0.95117188 33.21484375 C0.96286157 35.80995598 0.97924724 38.40494709 1 41 C0.34 39.68 -0.32 38.36 -1 37 C-3.44989101 40.74235319 -3.23086143 44.44225419 -3.125 48.75 C-3.11597656 49.44738281 -3.10695312 50.14476562 -3.09765625 50.86328125 C-3.07419888 52.57566958 -3.03833104 54.28788004 -3 56 C-3.66 56 -4.32 56 -5 56 C-9.05119434 36.25042758 -5.92832083 18.89369426 0 0 Z " fill="#181419" transform="translate(175,16)"/>
<path d="M0 0 C0 3.67819168 -0.76843318 4.22382655 -3.1875 6.875 C-3.83203125 7.58398438 -4.4765625 8.29296875 -5.140625 9.0234375 C-7.37889204 11.4027718 -9.66164132 13.71867446 -12 16 C-12.66515625 16.68707031 -13.3303125 17.37414062 -14.015625 18.08203125 C-14.73234375 18.81808594 -15.4490625 19.55414063 -16.1875 20.3125 C-16.86167969 21.00988281 -17.53585938 21.70726562 -18.23046875 22.42578125 C-20 24 -20 24 -22 24 C-22.28875 24.639375 -22.5775 25.27875 -22.875 25.9375 C-24 28 -24 28 -26 29 C-26 27.02 -26 25.04 -26 23 C-25.34 23 -24.68 23 -24 23 C-23.72929687 22.28199219 -23.45859375 21.56398438 -23.1796875 20.82421875 C-22.0032101 18.00768511 -20.66356805 15.44719814 -19.125 12.8125 C-18.63257813 11.95269531 -18.14015625 11.09289062 -17.6328125 10.20703125 C-15.87496843 7.83099799 -14.64853982 7.17475557 -12 6 C-10.63755204 4.35704805 -9.30135125 2.69175663 -8 1 C-5.29120665 -0.35439668 -2.99066732 -0.06501451 0 0 Z " fill="#586F68" transform="translate(249,313)"/>
<path d="M0 0 C-1.60337851 4.9194568 -3.29121029 9.78620453 -5.125 14.625 C-6.6631092 18.79902918 -7.60678006 22.57627567 -8 27 C-8.66 26.67 -9.32 26.34 -10 26 C-12.24612965 28.24612965 -13.25886658 31.88088981 -14.55078125 34.75 C-16 37 -16 37 -18.16796875 37.8125 C-18.77253906 37.874375 -19.37710937 37.93625 -20 38 C-20.30744141 39.26457031 -20.30744141 39.26457031 -20.62109375 40.5546875 C-20.89050781 41.65039062 -21.15992188 42.74609375 -21.4375 43.875 C-21.70433594 44.96554687 -21.97117187 46.05609375 -22.24609375 47.1796875 C-23 50 -23 50 -24 52 C-24.99 52 -25.98 52 -27 52 C-27.495 50.515 -27.495 50.515 -28 49 C-27.34 49 -26.68 49 -26 49 C-26 48.34 -26 47.68 -26 47 C-25.34 47 -24.68 47 -24 47 C-23.34 43.04 -22.68 39.08 -22 35 C-21.01 35 -20.02 35 -19 35 C-17.76261515 32.195261 -16.96866049 29.79629321 -16.5 26.75 C-16.335 25.8425 -16.17 24.935 -16 24 C-15.34 23.67 -14.68 23.34 -14 23 C-13.67 22.01 -13.34 21.02 -13 20 C-12.01 20 -11.02 20 -10 20 C-9.01 15.38 -8.02 10.76 -7 6 C-6.34 6 -5.68 6 -5 6 C-5 4.68 -5 3.36 -5 2 C-2 0 -2 0 0 0 Z " fill="#1E383E" transform="translate(286,253)"/>
<path d="M0 0 C5.03337418 5.03337418 3.09301473 16.92886556 3.125 23.875 C3.13200928 24.92602905 3.13200928 24.92602905 3.13916016 25.99829102 C3.1201029 32.17211016 2.78026373 37.4724401 0 43 C-0.31963685 45.13910815 -0.5862112 47.28651307 -0.8125 49.4375 C-1.79621386 56.55542957 -1.79621386 56.55542957 -4.625 59.3125 C-5.40875 59.869375 -6.1925 60.42625 -7 61 C-5.7470977 54.47016802 -4.30622618 48.01489885 -2.68359375 41.56640625 C-0.86933711 32.10117019 -0.7534439 22.42030209 -0.4375 12.8125 C-0.37272461 10.9552832 -0.37272461 10.9552832 -0.30664062 9.06054688 C-0.20169508 6.04044738 -0.09953456 3.02028184 0 0 Z " fill="#120D11" transform="translate(259,234)"/>
<path d="M0 0 C1 3 1 3 -0.125 6.0625 C-2.2514397 9.3939222 -3.36975742 9.78991914 -7 11 C-7.99 12.485 -7.99 12.485 -9 14 C-9 11.69 -9 9.38 -9 7 C-9.99 7 -10.98 7 -12 7 C-12.26039062 7.71414062 -12.52078125 8.42828125 -12.7890625 9.1640625 C-14.06202449 12.14525736 -15.59781012 14.66653158 -17.375 17.375 C-22.84992341 25.17195353 -22.84992341 25.17195353 -26 34 C-26.66 33.67 -27.32 33.34 -28 33 C-26.76832659 22.89245786 -17.62925749 8.35521646 -10 2 C-7.02201596 1.28317552 -5.09737488 1.57277588 -2 2 C-1.34 1.34 -0.68 0.68 0 0 Z " fill="#8B5E34" transform="translate(67,78)"/>
<path d="M0 0 C0.33 0 0.66 0 1 0 C1.26049777 5.73861272 0.36369513 10.65487844 -1.125 16.1875 C-1.46059937 17.44216064 -1.46059937 17.44216064 -1.80297852 18.72216797 C-5.4940855 31.90741752 -12.28242053 43.20102788 -21.484375 53.2734375 C-23.18403835 55.13301401 -23.18403835 55.13301401 -25 58 C-25.66 57.67 -26.32 57.34 -27 57 C-25.07517084 50.33712984 -25.07517084 50.33712984 -22 48 C-20.515 47.505 -20.515 47.505 -19 47 C-17.3825347 44.51884772 -17.3825347 44.51884772 -15.9375 41.5625 C-13.17914439 36.17914439 -13.17914439 36.17914439 -11 34 C-10.855625 33.195625 -10.71125 32.39125 -10.5625 31.5625 C-10 29 -10 29 -8.6328125 27.828125 C-6.14632565 25.04421149 -5.36500523 21.69479084 -4.3125 18.1875 C-3.97508789 17.13852539 -3.97508789 17.13852539 -3.63085938 16.06835938 C-2.34794158 11.89985141 -1.86314138 8.39902693 -2 4 C-1 1.625 -1 1.625 0 0 Z " fill="#613F33" transform="translate(184,301)"/>
<path d="M0 0 C1.75 0.140625 1.75 0.140625 4 1 C5.9375 3.484375 5.9375 3.484375 8 6.75 C12.55992291 13.71668384 17.94672211 19.59668309 23.68310547 25.60205078 C26.23268583 28.30855748 28.61387549 31.14990683 31 34 C30.34 34.66 29.68 35.32 29 36 C28.34 35.67 27.68 35.34 27 35 C27 34.01 27 33.02 27 32 C26.01 32 25.02 32 24 32 C24 31.34 24 30.68 24 30 C23.34 30 22.68 30 22 30 C20.34375 28.28515625 20.34375 28.28515625 18.5 26.0625 C16.11073001 23.07954821 16.11073001 23.07954821 13 21 C12.33333333 19.66666667 11.66666667 18.33333333 11 17 C10.34 16.67 9.68 16.34 9 16 C7.98648336 14.34151823 6.98879205 12.67334039 6 11 C5.319375 10.195625 4.63875 9.39125 3.9375 8.5625 C1.83746133 5.78502951 0.93047244 3.33419291 0 0 Z " fill="#502B20" transform="translate(177,126)"/>
<path d="M0 0 C0.99 0.33 1.98 0.66 3 1 C3 1.99 3 2.98 3 4 C3.66 4 4.32 4 5 4 C5 5.65 5 7.3 5 9 C5.66 9 6.32 9 7 9 C7.32613281 9.71027344 7.65226562 10.42054688 7.98828125 11.15234375 C8.64376953 12.53099609 8.64376953 12.53099609 9.3125 13.9375 C9.74175781 14.85402344 10.17101563 15.77054687 10.61328125 16.71484375 C11.85078661 19.30969412 11.85078661 19.30969412 15 20 C15.84375 21.70703125 15.84375 21.70703125 16.5 23.8125 C17.95372748 28.06712651 19.8204569 30.8204569 23 34 C24.03291676 35.98320018 25.0337499 37.98347806 26 40 C26.33 40.66 26.66 41.32 27 42 C23.78156735 41.75751535 22.94805268 40.94103524 20.7734375 38.47265625 C19.95978724 37.34603754 19.16124678 36.20841119 18.375 35.0625 C17.94695068 34.45148438 17.51890137 33.84046875 17.07788086 33.2109375 C11.79416028 25.49190994 7.352677 17.26946359 3 9 C2.41089844 7.8965625 1.82179687 6.793125 1.21484375 5.65625 C0 3 0 3 0 0 Z " fill="#381F1D" transform="translate(35,268)"/>
<path d="M0 0 C0.33 0 0.66 0 1 0 C0.9278125 1.2375 0.855625 2.475 0.78125 3.75 C0.16904485 14.96792007 -0.09679785 26.11806806 0.125 37.35351562 C0.13660156 38.32353516 0.14820312 39.29355469 0.16015625 40.29296875 C0.17699463 41.1543042 0.19383301 42.01563965 0.21118164 42.90307617 C0 45 0 45 -2 47 C-4.24141308 42.51717384 -3.22736741 36.39512713 -3.24023438 31.40917969 C-3.2498152 29.16822374 -3.28077277 26.92823559 -3.3125 24.6875 C-3.37462995 16.03048679 -2.66604818 8.32989261 0 0 Z " fill="#763B2A" transform="translate(65,107)"/>
<path d="M0 0 C0.33 0.66 0.66 1.32 1 2 C0.01 3.485 0.01 3.485 -1 5 C-1.36554873 6.4459483 -1.67445184 7.90694073 -1.9375 9.375 C-2.72567525 13.10367524 -3.53881688 15.99188729 -6 19 C-8.6875 20.3125 -8.6875 20.3125 -11 21 C-10.67 22.65 -10.34 24.3 -10 26 C-10.639375 26.28875 -11.27875 26.5775 -11.9375 26.875 C-14.15206079 27.82823451 -14.15206079 27.82823451 -15 30 C-14.43551226 24.74780971 -12.68866425 20.75457463 -10.3125 16.125 C-9.77882813 15.06925781 -9.77882813 15.06925781 -9.234375 13.9921875 C-6.60644693 8.90587511 -3.67386442 4.4086373 0 0 Z " fill="#A36139" transform="translate(83,69)"/>
<path d="M0 0 C0.66 0 1.32 0 2 0 C3.6055332 4.20496791 5.13939473 8.39691406 6.5 12.6875 C7.61589581 16.11194216 9.06000917 18.95144298 11 22 C11 22.66 11 23.32 11 24 C11.66 24 12.32 24 13 24 C13.33 25.98 13.66 27.96 14 30 C14.99 30.33 15.98 30.66 17 31 C17.33 32.98 17.66 34.96 18 37 C17.34 37 16.68 37 16 37 C14.06999257 33.56983392 12.15859095 30.12962159 10.25 26.6875 C9.71117187 25.73037109 9.17234375 24.77324219 8.6171875 23.78710938 C0 8.18159299 0 8.18159299 0 0 Z " fill="#211B17" transform="translate(172,78)"/>
<path d="M0 0 C0.99 0.33 1.98 0.66 3 1 C2.01 1.495 2.01 1.495 1 2 C0.39397335 4.36195411 0.39397335 4.36195411 0 7 C-0.20625 7.680625 -0.4125 8.36125 -0.625 9.0625 C-1.06506291 11.33615837 -0.70205558 12.81582708 0 15 C0.45375 14.34 0.9075 13.68 1.375 13 C1.91125 12.34 2.4475 11.68 3 11 C3.66 11 4.32 11 5 11 C4.34 13.31 3.68 15.62 3 18 C2.22914063 17.97679687 1.45828125 17.95359375 0.6640625 17.9296875 C-0.84027344 17.90261719 -0.84027344 17.90261719 -2.375 17.875 C-3.37273437 17.85179687 -4.37046875 17.82859375 -5.3984375 17.8046875 C-8.16262173 17.72783152 -8.16262173 17.72783152 -10 20 C-9.26781294 16.29078862 -7.60142617 14.03461058 -5.34375 11.015625 C-3.05579044 7.58368567 -1.54665291 3.81046889 0 0 Z " fill="#333D40" transform="translate(251,296)"/>
<path d="M0 0 C0.33 0 0.66 0 1 0 C1.01981934 0.76030518 1.03963867 1.52061035 1.06005859 2.30395508 C1.15634132 5.80710352 1.26559566 9.30973775 1.375 12.8125 C1.4059375 14.00810547 1.436875 15.20371094 1.46875 16.43554688 C1.11629486 28.40492345 1.11629486 28.40492345 5 39 C5.07179964 40.51928038 5.08392007 42.04167482 5.0625 43.5625 C5.05347656 44.38878906 5.04445312 45.21507812 5.03515625 46.06640625 C5.02355469 46.70449219 5.01195312 47.34257813 5 48 C-2.31884805 40.68115195 -1.03964618 24.80962759 -1.125 15.25 C-1.09307002 10.07202205 -0.8339557 5.10797868 0 0 Z " fill="#4D2826" transform="translate(176,26)"/>
<path d="M0 0 C-1.60337851 4.9194568 -3.29121029 9.78620453 -5.125 14.625 C-6.6631092 18.79902918 -7.60678006 22.57627567 -8 27 C-10 26 -10 26 -11.3125 23.6875 C-11.539375 22.800625 -11.76625 21.91375 -12 21 C-11.54367187 20.40316406 -11.08734375 19.80632812 -10.6171875 19.19140625 C-8.65406534 16.53123347 -8.31512902 14.49775673 -7.8125 11.25 C-7.65394531 10.26515625 -7.49539063 9.2803125 -7.33203125 8.265625 C-7.22246094 7.51796875 -7.11289062 6.7703125 -7 6 C-6.34 6 -5.68 6 -5 6 C-5 4.68 -5 3.36 -5 2 C-2 0 -2 0 0 0 Z " fill="#354952" transform="translate(286,253)"/>
<path d="M0 0 C0.33 0 0.66 0 1 0 C1.39111271 1.91344374 1.76231167 3.83096553 2.125 5.75 C2.33382813 6.81734375 2.54265625 7.8846875 2.7578125 8.984375 C3.0243092 12.3026888 2.55112043 13.17728968 1 16 C0.68036315 18.13910815 0.4137888 20.28651307 0.1875 22.4375 C-0.79621386 29.55542957 -0.79621386 29.55542957 -3.625 32.3125 C-4.40875 32.869375 -5.1925 33.42625 -6 34 C-4.94167738 28.48427152 -3.76904092 23.0192069 -2.4375 17.5625 C-1.06358878 11.71990783 -0.34787957 5.98592777 0 0 Z " fill="#282124" transform="translate(258,261)"/>
<path d="M0 0 C4.63108148 2.85411836 8.17722402 5.96903544 11.8125 10 C12.32586914 10.56307861 12.83923828 11.12615723 13.36816406 11.70629883 C27 26.87605294 27 26.87605294 27 31 C26.34 31 25.68 31 25 31 C23.5 28.5 23.5 28.5 22 26 C21.175 25.175 20.35 24.35 19.5 23.5 C17.10695604 21.10695604 15.70505545 18.89118098 14 16 C12.68945377 14.64426252 11.35251497 13.31387169 10 12 C9.04022851 10.79280867 8.08201044 9.58438134 7.125 8.375 C4.43496814 5.17029367 2.16742615 3.89301989 -2 3 C-1.34 2.01 -0.68 1.02 0 0 Z " fill="#A8734C" transform="translate(232,55)"/>
<path d="M0 0 C0.66 0.33 1.32 0.66 2 1 C2 1.99 2 2.98 2 4 C2.99 4.33 3.98 4.66 5 5 C6.38671875 6.9609375 6.38671875 6.9609375 7.6875 9.375 C8.12449219 10.16648437 8.56148437 10.95796875 9.01171875 11.7734375 C10 14 10 14 10 17 C10.66 17 11.32 17 12 17 C12.67057887 18.7902061 13.3363469 20.58221489 14 22.375 C14.556875 23.87160156 14.556875 23.87160156 15.125 25.3984375 C16 28 16 28 16 30 C13 29 13 29 12.02026367 27.39282227 C11.73900635 26.70760498 11.45774902 26.0223877 11.16796875 25.31640625 C10.84699219 24.55763184 10.52601563 23.79885742 10.1953125 23.01708984 C9.86273438 22.2070752 9.53015625 21.39706055 9.1875 20.5625 C6.26701966 13.69692841 3.13628904 7.23576909 -1 1 C-0.67 0.67 -0.34 0.34 0 0 Z " fill="#7B4033" transform="translate(128,260)"/>
<path d="M0 0 C5 2 5 2 10 4 C10 4.99 10 5.98 10 7 C10.568396 7.28230469 11.13679199 7.56460937 11.72241211 7.85546875 C15.69584178 9.85219276 19.62552683 11.93257223 23.5625 14 C24.42552734 14.45117188 25.28855469 14.90234375 26.17773438 15.3671875 C27.00724609 15.80289062 27.83675781 16.23859375 28.69140625 16.6875 C29.44623291 17.08324219 30.20105957 17.47898437 30.97875977 17.88671875 C33 19 33 19 36 21 C30.23682591 20.52284199 26.27189731 18.9106729 21.3125 16 C20.622771 15.60353271 19.93304199 15.20706543 19.22241211 14.79858398 C2.48966669 4.97933338 2.48966669 4.97933338 0 0 Z " fill="#2A1D1A" transform="translate(87,337)"/>
<path d="M0 0 C0.66 0 1.32 0 2 0 C2.185625 1.2065625 2.185625 1.2065625 2.375 2.4375 C2.58125 3.283125 2.7875 4.12875 3 5 C3.66 5.33 4.32 5.66 5 6 C8.61726037 11.39784978 11.31785893 17.51846844 14.25 23.3125 C14.60336426 24.00609619 14.95672852 24.69969238 15.32080078 25.41430664 C16.90881661 28.58533485 18.23000102 31.54118359 19 35 C18.34 35 17.68 35 17 35 C16.50371094 33.98421875 16.00742188 32.9684375 15.49609375 31.921875 C8.86899512 17.7722671 8.86899512 17.7722671 0.23828125 4.859375 C-0.17035156 4.24578125 -0.57898438 3.6321875 -1 3 C-0.67 2.01 -0.34 1.02 0 0 Z " fill="#26211F" transform="translate(232,164)"/>
<path d="M0 0 C0 3.73928499 -0.91959602 4.40902253 -3.375 7.125 C-4.31472656 8.18074219 -4.31472656 8.18074219 -5.2734375 9.2578125 C-7 11 -7 11 -9 12 C-9.22174933 10.54364629 -9.42698698 9.08477044 -9.625 7.625 C-9.74101562 6.81289063 -9.85703125 6.00078125 -9.9765625 5.1640625 C-9.98429688 4.44992187 -9.99203125 3.73578125 -10 3 C-6.70286397 -0.29713603 -4.54994912 -0.09891194 0 0 Z " fill="#39514D" transform="translate(249,313)"/>
<path d="M0 0 C2.46608897 2.46608897 2.25744153 3.88770353 2.27734375 7.2578125 C2.26832031 7.95648438 2.25929688 8.65515625 2.25 9.375 C2.24613281 10.0865625 2.24226563 10.798125 2.23828125 11.53125 C2.13703562 17.8084789 1.30295759 23.85748567 0 30 C-0.99 30 -1.98 30 -3 30 C-2.86722656 29.175 -2.73445313 28.35 -2.59765625 27.5 C-1.19606018 18.33335711 -0.45674798 9.2551564 0 0 Z " fill="#37231D" transform="translate(293,192)"/>
<path d="M0 0 C3 1 3 1 4.16796875 2.77734375 C4.50441406 3.49019531 4.84085937 4.20304688 5.1875 4.9375 C5.70376953 6.00291016 5.70376953 6.00291016 6.23046875 7.08984375 C7 9 7 9 7 11 C7.66 11 8.32 11 9 11 C10.1484375 12.57421875 10.1484375 12.57421875 11.375 14.6875 C12.92816648 17.30384591 14.39692236 19.47003964 16.375 21.8125 C16.91125 22.534375 17.4475 23.25625 18 24 C17.67 24.99 17.34 25.98 17 27 C0 6.42105263 0 6.42105263 0 0 Z " fill="#814A36" transform="translate(79,197)"/>
<path d="M0 0 C0.99 0 1.98 0 3 0 C3.20302734 1.02867187 3.20302734 1.02867187 3.41015625 2.078125 C5.15920215 10.74227289 7.06687058 19.37526874 9 28 C8.01 28.66 7.02 29.32 6 30 C5.18550288 26.12541702 4.37375737 22.2502625 3.5625 18.375 C3.33240234 17.28058594 3.10230469 16.18617188 2.86523438 15.05859375 C2.64287109 13.99511719 2.42050781 12.93164062 2.19140625 11.8359375 C1.98717041 10.86188965 1.78293457 9.8878418 1.57250977 8.88427734 C0.98634605 5.93121205 0.47991731 2.97201805 0 0 Z " fill="#65332C" transform="translate(143,291)"/>
<path d="M0 0 C1.703125 0.1015625 1.703125 0.1015625 4 1 C5.74901865 3.10229725 7.25079826 5.10910552 8.75 7.375 C9.36681641 8.26058594 9.36681641 8.26058594 9.99609375 9.1640625 C13 13.59507371 13 13.59507371 13 17 C11.1875 16.8125 11.1875 16.8125 9 16 C7.5 13.75 7.5 13.75 6 11 C5.319375 10.195625 4.63875 9.39125 3.9375 8.5625 C1.83746133 5.78502951 0.93047244 3.33419291 0 0 Z " fill="#572F23" transform="translate(177,126)"/>
<path d="M0 0 C0.96370434 3.03408709 1.01215807 4.86575455 0.07421875 7.8984375 C-0.25545898 8.98898438 -0.25545898 8.98898438 -0.59179688 10.1015625 C-0.82962891 10.85179688 -1.06746094 11.60203125 -1.3125 12.375 C-1.53873047 13.1175 -1.76496094 13.86 -1.99804688 14.625 C-3.26903714 18.77128524 -4.61098268 22.8916389 -6 27 C-6.33 27 -6.66 27 -7 27 C-7.21969136 21.50771591 -7.01146873 17.187472 -5 12 C-4.24470493 9.39483786 -3.50966601 6.78467156 -2.78125 4.171875 C-2 2 -2 2 0 0 Z " fill="#AA7E5B" transform="translate(106,58)"/>
<path d="M0 0 C2.98152338 2.82390981 5.30688113 5.74153288 7.625 9.125 C11.29084047 14.27512616 15.39792777 18.58186795 19.99609375 22.90625 C22 25 22 25 23 28 C22.01 28 21.02 28 20 28 C20 27.01 20 26.02 20 25 C19.34 25 18.68 25 18 25 C15.375 22.625 15.375 22.625 13 20 C13 19.34 13 18.68 13 18 C12.01 17.67 11.02 17.34 10 17 C8.65729179 15.00628175 7.32346506 13.0065438 6 11 C5.34 11 4.68 11 4 11 C3.8453125 10.13375 3.8453125 10.13375 3.6875 9.25 C3.11076107 6.90012053 3.11076107 6.90012053 1.4375 4.9375 C0 3 0 3 0 0 Z " fill="#CCA074" transform="translate(118,168)"/>
<path d="M0 0 C-0.73678536 3.14103233 -1.56019356 6.10444831 -3 9 C-6.0625 10.4375 -6.0625 10.4375 -9 11 C-9.66 11.66 -10.32 12.32 -11 13 C-13.125 12.625 -13.125 12.625 -15 12 C-3.26213592 0 -3.26213592 0 0 0 Z " fill="#111211" transform="translate(172,9)"/>
<path d="M0 0 C0.66 0.33 1.32 0.66 2 1 C1.278125 1.70125 0.55625 2.4025 -0.1875 3.125 C-2.14939608 5.07022274 -3.90664273 7.08769025 -5.625 9.25 C-8 12 -8 12 -11 13 C-10.67 11.68 -10.34 10.36 -10 9 C-10.99 8.67 -11.98 8.34 -13 8 C-10.61664713 5.32561064 -8.12963852 3.84841988 -4.9375 2.25 C-4.05964844 1.80140625 -3.18179688 1.3528125 -2.27734375 0.890625 C-1.52582031 0.59671875 -0.77429688 0.3028125 0 0 Z " fill="#CC9E6D" transform="translate(129,24)"/>
<path d="M0 0 C3.38313253 4.51084337 3.38313253 4.51084337 3.25 8.9375 C3.22421875 9.89140625 3.1984375 10.8453125 3.171875 11.828125 C2.87929583 17.22754058 2.47950781 22.61409981 2 28 C1.34 27.67 0.68 27.34 0 27 C0 18.09 0 9.18 0 0 Z " fill="#40100F" transform="translate(150,318)"/>
<path d="M0 0 C0.99 0.33 1.98 0.66 3 1 C6.33324384 8.46418706 6.62904778 16.95417416 7 25 C6.01 24.67 5.02 24.34 4 24 C3.87625 22.741875 3.7525 21.48375 3.625 20.1875 C2.87199214 13.38891477 1.72867078 6.62142646 0 0 Z " fill="#341D20" transform="translate(259,193)"/>
<path d="M0 0 C0.66 0 1.32 0 2 0 C2.6875 2.8125 2.6875 2.8125 3 6 C1.6875 7.875 1.6875 7.875 0 9 C-0.66 9 -1.32 9 -2 9 C-2.28875 9.639375 -2.5775 10.27875 -2.875 10.9375 C-4 13 -4 13 -6 14 C-6 12.02 -6 10.04 -6 8 C-5.34 8 -4.68 8 -4 8 C-3.71125 7.236875 -3.4225 6.47375 -3.125 5.6875 C-2 3 -2 3 0 0 Z " fill="#384142" transform="translate(229,328)"/>
<path d="M0 0 C0.33 0 0.66 0 1 0 C1.36340286 1.76896102 1.71540883 3.54026626 2.0625 5.3125 C2.25972656 6.29863281 2.45695313 7.28476562 2.66015625 8.30078125 C3 11 3 11 2 14 C2.65583207 16.33640176 3.32215008 18.66989091 4 21 C3.67 21.66 3.34 22.32 3 23 C2.34 23 1.68 23 1 23 C-2.96175115 16.29790714 -1.11487085 7.38601938 0 0 Z " fill="#502520" transform="translate(149,338)"/>
<path d="M0 0 C0.99 0 1.98 0 3 0 C3.33 1.32 3.66 2.64 4 4 C4.66 4 5.32 4 6 4 C6.061875 4.5775 6.12375 5.155 6.1875 5.75 C7.31626214 8.87580285 9.41383298 9.98152818 12 12 C12.69937532 13.31647119 13.36729133 14.65022151 14 16 C15.29470975 17.37086915 16.62150897 18.71340837 18 20 C17.67 20.66 17.34 21.32 17 22 C1.00655146 6.93221729 1.00655146 6.93221729 0 0 Z " fill="#875039" transform="translate(98,224)"/>
<path d="M0 0 C0.66796875 1.73046875 0.66796875 1.73046875 1 4 C-0.07421875 6.11328125 -0.07421875 6.11328125 -1.6875 8.3125 C-7.06533225 15.58233661 -7.06533225 15.58233661 -10 24 C-10.66 23.67 -11.32 23.34 -12 23 C-11.43458046 17.95090275 -9.05771283 14.12738291 -6.5625 9.8125 C-6.15451172 9.08869141 -5.74652344 8.36488281 -5.32617188 7.61914062 C-2.28376962 2.28376962 -2.28376962 2.28376962 0 0 Z " fill="#865A3D" transform="translate(51,88)"/>
<path d="M0 0 C0.99 1.32 1.98 2.64 3 4 C2.34 4.66 1.68 5.32 1 6 C1.66 6 2.32 6 3 6 C3 6.66 3 7.32 3 8 C1.73392393 8.53229326 0.46189588 9.05044544 -0.8125 9.5625 C-1.52019531 9.85253906 -2.22789062 10.14257812 -2.95703125 10.44140625 C-5 11 -5 11 -8 10 C-5.36 6.7 -2.72 3.4 0 0 Z " fill="#1C1F21" transform="translate(191,351)"/>
<path d="M0 0 C0 3.93169105 -1.39419615 5.16427228 -4 8 C-4.66 8 -5.32 8 -6 8 C-6.268125 8.78375 -6.53625 9.5675 -6.8125 10.375 C-8 13 -8 13 -11 15 C-11.96891192 9.97927461 -11.96891192 9.97927461 -11 7 C-7.62412722 4.11947059 -3.92893212 2.0410037 0 0 Z " fill="#C39A6B" transform="translate(105,37)"/>
<path d="M0 0 C0.75 1.625 0.75 1.625 1 4 C-1.68568804 8.83423847 -5.33962175 12.87597383 -9 17 C-9.66 16.67 -10.32 16.34 -11 16 C-9.07517084 9.33712984 -9.07517084 9.33712984 -6 7 C-5.01 6.67 -4.02 6.34 -3 6 C-1.29144978 2.99992729 -1.29144978 2.99992729 0 0 Z " fill="#44402F" transform="translate(168,342)"/>
<path d="M0 0 C4.23811258 1.43325262 7.19174028 3.52813725 10.625 6.375 C11.56601563 7.14585938 12.50703125 7.91671875 13.4765625 8.7109375 C15.66473077 10.69587033 17.34552063 12.56824845 19 15 C17.02 15.33 15.04 15.66 13 16 C13.33 14.68 13.66 13.36 14 12 C13.01 11.67 12.02 11.34 11 11 C9.64631404 9.68733482 8.31200404 8.35432675 7 7 C6.34 6.67 5.68 6.34 5 6 C3.23835014 4.07286182 1.64270227 2.03176334 0 0 Z " fill="#A77249" transform="translate(213,40)"/>
<path d="M0 0 C0.33 0.66 0.66 1.32 1 2 C0.07421875 4.34765625 0.07421875 4.34765625 -1.3125 7.0625 C-1.98732422 8.41021484 -1.98732422 8.41021484 -2.67578125 9.78515625 C-4 12 -4 12 -6 13 C-6.90725434 15.11327425 -6.90725434 15.11327425 -7.625 17.5625 C-7.88539062 18.38878906 -8.14578125 19.21507813 -8.4140625 20.06640625 C-8.60742188 20.70449219 -8.80078125 21.34257813 -9 22 C-9.33 22 -9.66 22 -10 22 C-9.85892253 20.54119891 -9.71197585 19.08296449 -9.5625 17.625 C-9.48128906 16.81289062 -9.40007813 16.00078125 -9.31640625 15.1640625 C-9 13 -9 13 -8 11 C-7.34 11 -6.68 11 -6 11 C-5.81824219 10.37351562 -5.63648438 9.74703125 -5.44921875 9.1015625 C-5.19785156 8.28429687 -4.94648437 7.46703125 -4.6875 6.625 C-4.44386719 5.81289062 -4.20023438 5.00078125 -3.94921875 4.1640625 C-3 2 -3 2 0 0 Z " fill="#734B2F" transform="translate(63,86)"/>
<path d="M0 0 C0.33 0 0.66 0 1 0 C1.21133202 7.04440079 1.07965362 13.24112575 -1 20 C-3.31 19.01 -5.62 18.02 -8 17 C-8 16.67 -8 16.34 -8 16 C-6.35 16 -4.7 16 -3 16 C-2.01 10.72 -1.02 5.44 0 0 Z " fill="#261E1A" transform="translate(135,344)"/>
<path d="M0 0 C1.10313617 3.3094085 0.89941114 4.19482294 0.00390625 7.44921875 C-0.33930664 8.72055664 -0.33930664 8.72055664 -0.68945312 10.01757812 C-0.93630859 10.89865234 -1.18316406 11.77972656 -1.4375 12.6875 C-1.68048828 13.58017578 -1.92347656 14.47285156 -2.17382812 15.39257812 C-2.77509306 17.59721622 -3.38406657 19.79942345 -4 22 C-4.66 22 -5.32 22 -6 22 C-5.566347 15.495205 -4.83439147 4.83439147 0 0 Z " fill="#5C3C2D" transform="translate(57,98)"/>
<path d="M0 0 C0.66 0 1.32 0 2 0 C1.34 2.31 0.68 4.62 0 7 C-0.66 7 -1.32 7 -2 7 C-2 9.31 -2 11.62 -2 14 C-2.639375 14.28875 -3.27875 14.5775 -3.9375 14.875 C-6.15206079 15.82823451 -6.15206079 15.82823451 -7 18 C-6.44380331 13.3110507 -5.11817327 9.80075733 -2.9375 5.625 C-2.38964844 4.56539063 -1.84179688 3.50578125 -1.27734375 2.4140625 C-0.85582031 1.61742188 -0.43429688 0.82078125 0 0 Z " fill="#855538" transform="translate(75,81)"/>
<path d="M0 0 C5.16465418 4.21604423 10.01287003 8.61919239 14 14 C14 14.66 14 15.32 14 16 C13.34 16 12.68 16 12 16 C9 12.53846154 9 12.53846154 9 10 C8.236875 9.938125 7.47375 9.87625 6.6875 9.8125 C4 9 4 9 2.25 6.6875 C1.18849139 4.40525649 0.55971427 2.43061104 0 0 Z " fill="#CFA175" transform="translate(142,197)"/>
<path d="M0 0 C6.9309521 3.65332428 13.56852529 7.52178798 20 12 C18.68 12.33 17.36 12.66 16 13 C15.67 12.01 15.34 11.02 15 10 C14.236875 9.855625 13.47375 9.71125 12.6875 9.5625 C8.11682771 8.60584766 6.20660298 7.30680932 3 4 C2.01 3.34 1.02 2.68 0 2 C0 1.34 0 0.68 0 0 Z " fill="#936340" transform="translate(193,27)"/>
<path d="M0 0 C3.73386136 1.24462045 4.64805848 2.91307675 7 6 C9.12399867 8.37887851 9.86597409 8.9553247 13 10 C14.1875 12.0625 14.1875 12.0625 15 14 C15.66 13.67 16.32 13.34 17 13 C16.67 14.32 16.34 15.64 16 17 C10.37780154 12.33477149 4.83989204 7.48740595 0 2 C0 1.34 0 0.68 0 0 Z " fill="#2D1714" transform="translate(65,316)"/>
<path d="M0 0 C1.98 0.99 3.96 1.98 6 3 C6 3.99 6 4.98 6 6 C6.639375 6.2475 7.27875 6.495 7.9375 6.75 C10 8 10 8 10.625 9.875 C10.74875 10.57625 10.8725 11.2775 11 12 C11.63654342 13.3479743 12.29605388 14.68596724 13 16 C8.52366842 13.37258799 6.75892614 11.80773146 5 7 C3.35305515 5.31384218 1.68873879 3.64429829 0 2 C0 1.34 0 0.68 0 0 Z " fill="#381C19" transform="translate(219,134)"/>
<path d="M0 0 C1.0625 1.875 1.0625 1.875 2 4 C1.67 4.66 1.34 5.32 1 6 C0.34 6 -0.32 6 -1 6 C-1.04898438 6.61488281 -1.09796875 7.22976563 -1.1484375 7.86328125 C-1.22320312 8.67152344 -1.29796875 9.47976563 -1.375 10.3125 C-1.44460937 11.11300781 -1.51421875 11.91351563 -1.5859375 12.73828125 C-2 15 -2 15 -4 18 C-4.66 18 -5.32 18 -6 18 C-5.41347648 13.51006131 -4.2356462 9.77456816 -2.4375 5.625 C-1.98246094 4.56539063 -1.52742187 3.50578125 -1.05859375 2.4140625 C-0.70925781 1.61742187 -0.35992187 0.82078125 0 0 Z " fill="#191618" transform="translate(208,318)"/>
<path d="M0 0 C0.33 0 0.66 0 1 0 C0.67 6.93 0.34 13.86 0 21 C-0.66 21 -1.32 21 -2 21 C-3.409845 13.30993638 -2.23007556 7.4461845 0 0 Z " fill="#88523A" transform="translate(65,107)"/>
<path d="M0 0 C0.66 1.32 1.32 2.64 2 4 C1.01 5.485 1.01 5.485 0 7 C0.020625 7.928125 0.04125 8.85625 0.0625 9.8125 C-0.01136443 13.57958608 -1.15023624 15.76291343 -3 19 C-3.33 19 -3.66 19 -4 19 C-4.62621031 12.11168659 -2.35806067 6.41097745 0 0 Z " fill="#1C1716" transform="translate(130,66)"/>
<path d="M0 0 C0.33 1.32 0.66 2.64 1 4 C0.01 4.495 0.01 4.495 -1 5 C-1.91280138 7.57437581 -1.91280138 7.57437581 -2.625 10.5625 C-2.88539062 11.57441406 -3.14578125 12.58632812 -3.4140625 13.62890625 C-3.60742188 14.41136719 -3.80078125 15.19382812 -4 16 C-5.32 14.68 -6.64 13.36 -8 12 C-6.54453498 8.60391496 -4.59139701 6.59139701 -2 4 C-0.76487921 1.86690808 -0.76487921 1.86690808 0 0 Z " fill="#B1804E" transform="translate(77,58)"/>
<path d="M0 0 C0.33 0 0.66 0 1 0 C1.33 9.57 1.66 19.14 2 29 C1.34 29 0.68 29 0 29 C-1.02611524 22.55447615 -0.95269998 16.50333305 -0.5625 10 C-0.51029297 9.03449219 -0.45808594 8.06898437 -0.40429688 7.07421875 C-0.27586364 4.7157175 -0.14096811 2.35777955 0 0 Z " fill="#150F12" transform="translate(170,43)"/>
<path d="M0 0 C2 4 2 4 1.3203125 7.234375 C0.92585938 8.39453125 0.53140625 9.5546875 0.125 10.75 C-0.45894531 12.50570313 -0.45894531 12.50570313 -1.0546875 14.296875 C-1.36664063 15.18890625 -1.67859375 16.0809375 -2 17 C-2.99 17 -3.98 17 -5 17 C-5.33 16.01 -5.66 15.02 -6 14 C-5.34 14 -4.68 14 -4 14 C-4 13.34 -4 12.68 -4 12 C-3.34 12 -2.68 12 -2 12 C-1.34 8.04 -0.68 4.08 0 0 Z " fill="#282F33" transform="translate(264,288)"/>
<path d="M0 0 C0.99 0.33 1.98 0.66 3 1 C3.12246094 1.57234375 3.24492187 2.1446875 3.37109375 2.734375 C4.31787997 6.14515766 6.54051332 7.82378497 9.0625 10.25 C10.44115234 11.58804688 10.44115234 11.58804688 11.84765625 12.953125 C12.91306641 13.96632812 12.91306641 13.96632812 14 15 C13.01 15.33 12.02 15.66 11 16 C11 15.34 11 14.68 11 14 C10.34 14 9.68 14 9 14 C7.34375 12.28515625 7.34375 12.28515625 5.5 10.0625 C3.11073001 7.07954821 3.11073001 7.07954821 0 5 C-0.6875 3 -0.6875 3 -1 1 C-0.67 0.67 -0.34 0.34 0 0 Z " fill="#68372C" transform="translate(190,142)"/>
<path d="M0 0 C1.32 0 2.64 0 4 0 C3.39254603 4.85963179 1.27241033 8.7405518 -1 13 C-1.99 12.67 -2.98 12.34 -4 12 C-2.98907749 9.97815499 -1.98350502 7.9706756 -0.875 6 C0.26721256 3.75306697 0.26721256 3.75306697 0 0 Z " fill="#C28D5D" transform="translate(110,44)"/>
<path d="M0 0 C5 2 5 2 10 4 C10 4.99 10 5.98 10 7 C10.61875 7.28875 11.2375 7.5775 11.875 7.875 C14 9 14 9 16 11 C12.04326153 10.38910214 9.49283525 8.41059799 6.3125 6.0625 C5.33925781 5.35222656 4.36601563 4.64195312 3.36328125 3.91015625 C1 2 1 2 0 0 Z " fill="#241612" transform="translate(87,337)"/>
<path d="M0 0 C0.66 0 1.32 0 2 0 C3.85999285 1.9675587 5.53390198 4.05555598 7.24609375 6.15234375 C8.96005081 8.24798169 8.96005081 8.24798169 12 9 C12.33 10.65 12.66 12.3 13 14 C8.94065655 12.44515973 6.92149038 9.78559333 4.25 6.4375 C3.45078125 5.44621094 2.6515625 4.45492187 1.828125 3.43359375 C0 1 0 1 0 0 Z " fill="#211C19" transform="translate(214,145)"/>
<path d="M0 0 C0.33 0.99 0.66 1.98 1 3 C1.66 3 2.32 3 3 3 C5.3992233 7.64849515 5.19957409 11.91086074 5 17 C2.5863604 14.5863604 2.24467148 12.90164101 1.375 9.625 C1.11460937 8.66851562 0.85421875 7.71203125 0.5859375 6.7265625 C0 4 0 4 0 0 Z " fill="#421E1C" transform="translate(176,57)"/>
<path d="M0 0 C0.33 0.99 0.66 1.98 1 3 C0.07421875 4.82421875 0.07421875 4.82421875 -1.3125 6.6875 C-1.76238281 7.31011719 -2.21226563 7.93273438 -2.67578125 8.57421875 C-3.11277344 9.04472656 -3.54976563 9.51523437 -4 10 C-4.66 10 -5.32 10 -6 10 C-6.33 10.99 -6.66 11.98 -7 13 C-7.74609375 11.296875 -7.74609375 11.296875 -8 9 C-6.34765625 6.640625 -6.34765625 6.640625 -4.0625 4.25 C-3.31097656 3.45078125 -2.55945313 2.6515625 -1.78515625 1.828125 C-1.19605469 1.22484375 -0.60695313 0.6215625 0 0 Z " fill="#BD8B5A" transform="translate(105,39)"/>
<path d="M0 0 C4.56048012 3.61251516 8.01665146 6.98797445 11 12 C10.01 12 9.02 12 8 12 C6.35612569 10.32105637 5.01567221 8.50068732 3.59765625 6.62890625 C1.7645235 4.7599176 0.55139307 4.39125034 -2 4 C-2 3.34 -2 2.68 -2 2 C-1.34 2 -0.68 2 0 2 C0 1.34 0 0.68 0 0 Z " fill="#8D503A" transform="translate(72,223)"/>
<path d="M0 0 C0.66 0 1.32 0 2 0 C2 0.66 2 1.32 2 2 C2.66 2 3.32 2 4 2 C4.99 5.63 5.98 9.26 7 13 C4 12 4 12 2.83203125 10.0390625 C2.49558594 9.24242187 2.15914063 8.44578125 1.8125 7.625 C1.46832031 6.83351562 1.12414062 6.04203125 0.76953125 5.2265625 C0 3 0 3 0 0 Z " fill="#854C3A" transform="translate(69,176)"/>
<path d="M0 0 C1.18446753 2.36893505 1.00689755 3.4066826 0.6875 6 C0.60886719 6.70125 0.53023438 7.4025 0.44921875 8.125 C0 10 0 10 -2 12 C-2.70710678 13.64991582 -3.37943989 15.31562256 -4 17 C-6.22850988 11.2058743 -2.33347261 5.30334685 0 0 Z " fill="#B9784C" transform="translate(85,66)"/>
<path d="M0 0 C0.33 0 0.66 0 1 0 C1.76681614 8.77578475 1.76681614 8.77578475 -0.11328125 11.77734375 C-1.5 13.125 -1.5 13.125 -4 15 C-2.07289294 4.44191344 -2.07289294 4.44191344 0 0 Z " fill="#1D1716" transform="translate(256,280)"/>
<path d="M0 0 C0.33 0 0.66 0 1 0 C1.19601027 2.70795726 1.38204839 5.41599805 1.5625 8.125 C1.61857422 8.88554687 1.67464844 9.64609375 1.73242188 10.4296875 C2.01498074 14.79993128 1.93147699 18.68070669 1 23 C0.67 23 0.34 23 0 23 C-1.59497345 15.22450441 -1.13425151 7.7979791 0 0 Z " fill="#794E40" transform="translate(50,148)"/>
<path d="M0 0 C1.32 0.33 2.64 0.66 4 1 C0.55384615 7.76923077 0.55384615 7.76923077 -2.25 8.9375 C-2.8275 8.958125 -3.405 8.97875 -4 9 C-3.38722388 6.03824877 -2.74627478 4.61941217 -1 2 C-0.67 1.34 -0.34 0.68 0 0 Z " fill="#30434B" transform="translate(269,283)"/>
<path d="M0 0 C0.66 0 1.32 0 2 0 C2.33 1.98 2.66 3.96 3 6 C3.99 6.33 4.98 6.66 6 7 C6.33 8.98 6.66 10.96 7 13 C6.34 13 5.68 13 5 13 C3.02 9.04 1.04 5.08 -1 1 C-0.67 0.67 -0.34 0.34 0 0 Z " fill="#16100F" transform="translate(183,102)"/>
<path d="M0 0 C4.875 2.625 4.875 2.625 6 6 C5.34 6 4.68 6 4 6 C4 5.34 4 4.68 4 4 C3.01 4 2.02 4 1 4 C0.67 7.96 0.34 11.92 0 16 C-0.33 16 -0.66 16 -1 16 C-1.02725341 14.2709226 -1.04650987 12.54171824 -1.0625 10.8125 C-1.07410156 9.84957031 -1.08570313 8.88664062 -1.09765625 7.89453125 C-1.00486622 5.14423487 -0.62111685 2.67520409 0 0 Z " fill="#57332A" transform="translate(178,18)"/>
<path d="M0 0 C0.66 0 1.32 0 2 0 C0.44298069 4.67105792 -2.08447373 8.08705685 -5 12 C-5.67578125 10.265625 -5.67578125 10.265625 -6 8 C-4.85546875 5.859375 -4.85546875 5.859375 -3.1875 3.75 C-2.37345703 2.69039063 -2.37345703 2.69039063 -1.54296875 1.609375 C-1.03378906 1.07828125 -0.52460938 0.5471875 0 0 Z " fill="#5C4F46" transform="translate(175,332)"/>
<path d="M0 0 C0.99 0 1.98 0 3 0 C3.125 2.375 3.125 2.375 3 5 C2.34 5.66 1.68 6.32 1 7 C-0.32 7 -1.64 7 -3 7 C-2.38722388 4.03824877 -1.74627478 2.61941217 0 0 Z " fill="#315E5F" transform="translate(236,322)"/>
<path d="M0 0 C0.33 0.66 0.66 1.32 1 2 C1.62261719 2.28875 2.24523437 2.5775 2.88671875 2.875 C5.43246479 4.23022155 6.32411674 5.55383537 7.8125 8 C8.25207031 8.70125 8.69164063 9.4025 9.14453125 10.125 C9.42683594 10.74375 9.70914063 11.3625 10 12 C9.67 12.66 9.34 13.32 9 14 C7.4911599 12.23669281 5.9931702 10.46409603 4.5 8.6875 C3.6646875 7.70136719 2.829375 6.71523437 1.96875 5.69921875 C0 3 0 3 0 0 Z " fill="#824A37" transform="translate(117,246)"/>
<path d="M0 0 C0.99 0 1.98 0 3 0 C1.8141763 3.37503669 0.72426311 5.64722731 -2 8 C-2.33 7.01 -2.66 6.02 -3 5 C-3.99 4.67 -4.98 4.34 -6 4 C-5.67 3.34 -5.34 2.68 -5 2 C-3.35 2 -1.7 2 0 2 C0 1.34 0 0.68 0 0 Z " fill="#CC9D74" transform="translate(79,69)"/>
<path d="M0 0 C0.99 0 1.98 0 3 0 C3.144375 0.7425 3.28875 1.485 3.4375 2.25 C3.92437184 4.88718794 3.92437184 4.88718794 4.625 6.9375 C5.14135175 9.77743461 4.57352767 12.19608697 4 15 C3.67 15 3.34 15 3 15 C2.49564306 13.0636296 1.99666126 11.12585854 1.5 9.1875 C1.2215625 8.10855469 0.943125 7.02960938 0.65625 5.91796875 C0 3 0 3 0 0 Z " fill="#6E3A2D" transform="translate(143,291)"/>
<path d="M0 0 C3.10190545 4.65285818 4.33846504 9.41532676 4 15 C3.34 15 2.68 15 2 15 C0.53329887 9.77487721 -0.22577402 5.4185766 0 0 Z " fill="#1E1A17" transform="translate(256,217)"/>
<path d="M0 0 C1.69433918 3.0469629 2.49467112 5.82821466 3.125 9.25 C3.29257812 10.14203125 3.46015625 11.0340625 3.6328125 11.953125 C3.75398438 12.62859375 3.87515625 13.3040625 4 14 C3.01 14.495 3.01 14.495 2 15 C-0.02558881 11.65060119 -0.21738987 9.13037449 -0.125 5.25 C-0.09792969 3.77273437 -0.09792969 3.77273437 -0.0703125 2.265625 C-0.04710937 1.51796875 -0.02390625 0.7703125 0 0 Z " fill="#5F3A34" transform="translate(51,165)"/>
<path d="M0 0 C0.33 0.99 0.66 1.98 1 3 C0.54625 3.37125 0.0925 3.7425 -0.375 4.125 C-2.47029394 6.54264685 -3.12013285 8.95430602 -4 12 C-4.99 12 -5.98 12 -7 12 C-5.63855967 6.80177328 -3.53269829 3.90456127 0 0 Z " fill="#171212" transform="translate(149,31)"/>
<path d="M0 0 C2.10954744 3.37685019 2.09148822 5.33825995 1.25 9.1875 C1.06953125 10.06792969 0.8890625 10.94835937 0.703125 11.85546875 C0.47109375 12.56316406 0.2390625 13.27085938 0 14 C-0.99 14.495 -0.99 14.495 -2 15 C-2.21755666 9.5610835 -2.10428384 5.12919186 0 0 Z " fill="#BB8E65" transform="translate(101,70)"/>
<path d="M0 0 C0.99 1.32 1.98 2.64 3 4 C2.34 4 1.68 4 1 4 C1 5.32 1 6.64 1 8 C-1 9.75 -1 9.75 -3 11 C-3.66 10.67 -4.32 10.34 -5 10 C-3.35 6.7 -1.7 3.4 0 0 Z " fill="#60351C" transform="translate(144,363)"/>
<path d="M0 0 C0.66 0 1.32 0 2 0 C2.6875 2.8125 2.6875 2.8125 3 6 C1.6875 7.875 1.6875 7.875 0 9 C-0.66 9 -1.32 9 -2 9 C-1.34 6.03 -0.68 3.06 0 0 Z " fill="#394E4E" transform="translate(229,328)"/>
<path d="M0 0 C0.99 0.33 1.98 0.66 3 1 C2.01 1.495 2.01 1.495 1 2 C0.60828247 3.65391846 0.27942455 5.32345271 0 7 C-0.33 7.99 -0.66 8.98 -1 10 C-1.99 10.33 -2.98 10.66 -4 11 C-3.5247412 9.35303396 -3.04468109 7.70745272 -2.5625 6.0625 C-2.29566406 5.14597656 -2.02882812 4.22945313 -1.75390625 3.28515625 C-1 1 -1 1 0 0 Z " fill="#211F1C" transform="translate(251,296)"/>
<path d="M0 0 C2.93200474 2.85276137 5.64315404 5.65079784 8 9 C2.37865749 7.53356282 2.37865749 7.53356282 0.625 5.0625 C0 3 0 3 0 0 Z " fill="#572F27" transform="translate(210,163)"/>
<path d="M0 0 C0.33 0 0.66 0 1 0 C2.6559633 5.31651376 2.6559633 5.31651376 3 8 C1.75 10 1.75 10 0 11 C-0.66 11 -1.32 11 -2 11 C-1.34 7.37 -0.68 3.74 0 0 Z " fill="#5A3227" transform="translate(147,352)"/>
<path d="M0 0 C0.66 0.33 1.32 0.66 2 1 C2 1.99 2 2.98 2 4 C2.99 4.33 3.98 4.66 5 5 C6.25 6.8125 6.25 6.8125 7 9 C6.546875 11.13671875 6.546875 11.13671875 6 13 C4.99193149 11.40089132 3.99379615 9.79551738 3 8.1875 C2.443125 7.29417969 1.88625 6.40085937 1.3125 5.48046875 C0 3 0 3 0 0 Z " fill="#854D3A" transform="translate(128,260)"/>
<path d="M0 0 C1.32 0 2.64 0 4 0 C3.95875 0.9075 3.9175 1.815 3.875 2.75 C3.99846853 5.9601818 4.5751571 7.24530374 6 10 C5.67 10.99 5.34 11.98 5 13 C0 5.04545455 0 5.04545455 0 0 Z " fill="#3F2B27" transform="translate(166,106)"/>
<path d="M0 0 C0.99 0 1.98 0 3 0 C2.67 2.31 2.34 4.62 2 7 C1.34 7 0.68 7 0 7 C-0.33 7.66 -0.66 8.32 -1 9 C-0.67 6.03 -0.34 3.06 0 0 Z " fill="#161110" transform="translate(159,34)"/>
<path d="M0 0 C3.90042545 3.07928325 7.06176152 5.99331117 10 10 C7 10 7 10 5.17578125 8.3203125 C4.56089844 7.59585938 3.94601563 6.87140625 3.3125 6.125 C2.68988281 5.40570313 2.06726563 4.68640625 1.42578125 3.9453125 C0 2 0 2 0 0 Z " fill="#24211C" transform="translate(203,132)"/>
<path d="M0 0 C3 4 3 4 3.375 6.5625 C3 9 3 9 0 12 C0 8.04 0 4.08 0 0 Z " fill="#491C19" transform="translate(150,318)"/>
<path d="M0 0 C0.99 0.495 0.99 0.495 2 1 C2.6328125 3.06640625 2.6328125 3.06640625 3.125 5.5625 C3.29257813 6.38878906 3.46015625 7.21507812 3.6328125 8.06640625 C3.75398437 8.70449219 3.87515625 9.34257812 4 10 C3.01 9.67 2.02 9.34 1 9 C-0.4783226 6.04335481 -0.06032783 3.25770263 0 0 Z " fill="#6E3528" transform="translate(140,280)"/>
<path d="M0 0 C0.66 0 1.32 0 2 0 C2.185625 1.2065625 2.185625 1.2065625 2.375 2.4375 C2.58125 3.283125 2.7875 4.12875 3 5 C3.66 5.33 4.32 5.66 5 6 C5.625 8.5625 5.625 8.5625 6 11 C2.60582235 7.87378374 0.3937282 5.43458973 -1 1 C-0.67 0.67 -0.34 0.34 0 0 Z " fill="#171513" transform="translate(232,164)"/>
<path d="M0 0 C3.97497544 3.40712181 5.86793788 7.32760855 8 12 C7.34 12 6.68 12 6 12 C2.74505877 8.48141867 0.44053685 4.84590538 0 0 Z " fill="#A4674A" transform="translate(259,86)"/>
<path d="M0 0 C1.20628008 2.33214148 2.1654738 4.49642139 3 7 C2.67 7.66 2.34 8.32 2 9 C1.34 9 0.68 9 0 9 C-1.36623674 6.26752652 -1.128426 4.01801098 -1 1 C-0.67 0.67 -0.34 0.34 0 0 Z " fill="#422E25" transform="translate(150,352)"/>
<path d="M0 0 C0.99 0 1.98 0 3 0 C2.5206753 4.31392226 1.2542015 6.16569547 -2 9 C-1.34 6.03 -0.68 3.06 0 0 Z " fill="#191012" transform="translate(232,316)"/>
<path d="M0 0 C1.98 0 3.96 0 6 0 C6 0.99 6 1.98 6 3 C3.66666667 3 1.33333333 3 -1 3 C-0.67 2.01 -0.34 1.02 0 0 Z " fill="#3B4B4A" transform="translate(243,313)"/>
<path d="M0 0 C0.33 0 0.66 0 1 0 C2.10228696 4.40914783 2.07654536 8.48382401 2 13 C0.4375 11.5625 0.4375 11.5625 -1 9 C-0.96846324 5.94619073 -0.53266629 3.00346778 0 0 Z " fill="#24161C" transform="translate(174,44)"/>
<path d="M0 0 C1.48521677 0.75911079 2.96303425 1.53271234 4.4375 2.3125 C5.67306641 2.95638672 5.67306641 2.95638672 6.93359375 3.61328125 C9 5 9 5 10 8 C7 8 7 8 5 6.125 C4.34 5.42375 3.68 4.7225 3 4 C2.01 3.34 1.02 2.68 0 2 C0 1.34 0 0.68 0 0 Z " fill="#83543A" transform="translate(193,27)"/>
<path d="M0 0 C0.75 1.625 0.75 1.625 1 4 C-2.17808219 9.5890411 -2.17808219 9.5890411 -5 11 C-3.55049545 7.2089881 -1.84827434 3.6125362 0 0 Z " fill="#494740" transform="translate(168,342)"/>
<path d="M0 0 C0.66 0.33 1.32 0.66 2 1 C2.625 3.5625 2.625 3.5625 3 6 C1.68 6.33 0.36 6.66 -1 7 C-1.33 5.02 -1.66 3.04 -2 1 C-1.34 0.67 -0.68 0.34 0 0 Z " fill="#362422" transform="translate(240,213)"/>
<path d="M0 0 C2.66666667 2.66666667 5.33333333 5.33333333 8 8 C7.67 8.66 7.34 9.32 7 10 C2.78577758 7.11658466 1.23924145 4.95696581 0 0 Z " fill="#23130F" transform="translate(206,118)"/>
<path d="M0 0 C3.36591427 2.72478774 4.44226276 6.06856792 6 10 C5.01 10.495 5.01 10.495 4 11 C1.52214277 7.33708062 0.51035831 4.3890815 0 0 Z " fill="#9B5F48" transform="translate(270,104)"/>
<path d="M0 0 C0.66 1.32 1.32 2.64 2 4 C1.01 4.99 0.02 5.98 -1 7 C-1.99 6.67 -2.98 6.34 -4 6 C-2.68 4.02 -1.36 2.04 0 0 Z " fill="#1A151C" transform="translate(200,337)"/>
<path d="M0 0 C0.99 0.99 1.98 1.98 3 3 C1.03533587 4.06775224 -0.96855359 5.06553465 -3 6 C-3.66 5.67 -4.32 5.34 -5 5 C-3.35 3.35 -1.7 1.7 0 0 Z " fill="#303233" transform="translate(248,306)"/>
<path d="M0 0 C4.13777356 1.37925785 6.07231785 4.1446357 8 8 C4.82461668 7.65978036 3.97723135 6.97533396 1.75 4.5625 C0 2 0 2 0 0 Z " fill="#191113" transform="translate(181,206)"/>
<path d="M0 0 C0.66 0.33 1.32 0.66 2 1 C1.1875 4.4375 1.1875 4.4375 0 8 C-0.99 8.33 -1.98 8.66 -3 9 C-2.01 6.03 -1.02 3.06 0 0 Z " fill="#764938" transform="translate(37,112)"/>
<path d="M0 0 C1 2 1 2 0.44140625 4.1640625 C0.15136719 4.97617188 -0.13867188 5.78828125 -0.4375 6.625 C-0.72496094 7.44226563 -1.01242188 8.25953125 -1.30859375 9.1015625 C-1.53675781 9.72804688 -1.76492187 10.35453125 -2 11 C-2.66 10.67 -3.32 10.34 -4 10 C-3.43454163 6.04179141 -2.19097652 3.3340947 0 0 Z " fill="#7E523A" transform="translate(43,101)"/>
<path d="M0 0 C0.66 0 1.32 0 2 0 C2 0.66 2 1.32 2 2 C2.66 2 3.32 2 4 2 C5.625 4.5 5.625 4.5 7 7 C4.20171644 6.61402985 3.1794116 6.19863427 1.25 4.0625 C0 2 0 2 0 0 Z " fill="#2D1617" transform="translate(55,303)"/>
<path d="M0 0 C0.99 0.33 1.98 0.66 3 1 C3.33 3.31 3.66 5.62 4 8 C1.10067643 5.60490662 0.49831724 3.68754757 0 0 Z " fill="#391917" transform="translate(35,268)"/>
<path d="M0 0 C1.9375 0.75 1.9375 0.75 4 2 C4.75 4.125 4.75 4.125 5 6 C4.34 6 3.68 6 3 6 C3 5.34 3 4.68 3 4 C2.34 4 1.68 4 1 4 C0.67 2.68 0.34 1.36 0 0 Z " fill="#784433" transform="translate(100,256)"/>
<path d="M0 0 C0.33 0 0.66 0 1 0 C0.67 2.64 0.34 5.28 0 8 C-0.99 8 -1.98 8 -3 8 C-1.125 1.125 -1.125 1.125 0 0 Z " fill="#3C2F35" transform="translate(287,245)"/>
<path d="M0 0 C3 1 3 1 4.25 3.375 C5 6 5 6 4 9 C0 2.25 0 2.25 0 0 Z " fill="#442523" transform="translate(251,176)"/>
<path d="M0 0 C4.42857143 5.14285714 4.42857143 5.14285714 5 9 C4.01 9.33 3.02 9.66 2 10 C1.34 6.7 0.68 3.4 0 0 Z " fill="#C6926A" transform="translate(110,154)"/>
<path d="M0 0 C3.80666984 1.44390925 5.26602582 3.34952803 7 7 C6.67 7.66 6.34 8.32 6 9 C4.99712471 7.68969568 3.99777175 6.37669473 3 5.0625 C2.443125 4.33160156 1.88625 3.60070312 1.3125 2.84765625 C0 1 0 1 0 0 Z " fill="#3C1F11" transform="translate(179,128)"/>
<path d="M0 0 C0.66 0.33 1.32 0.66 2 1 C0.515 3.475 0.515 3.475 -1 6 C-2.32 5.67 -3.64 5.34 -5 5 C-3.35 3.35 -1.7 1.7 0 0 Z " fill="#B08A5F" transform="translate(83,52)"/>
<path d="M0 0 C0.66 0.33 1.32 0.66 2 1 C-2.75 5.875 -2.75 5.875 -5 7 C-5.33 5.68 -5.66 4.36 -6 3 C-4.03533587 1.93224776 -2.03144641 0.93446535 0 0 Z " fill="#856B4D" transform="translate(129,24)"/>
<path d="M0 0 C1.24546405 2.49092811 0.7767578 3.41080733 0 6 C-1.65 6.33 -3.3 6.66 -5 7 C-3.35 4.69 -1.7 2.38 0 0 Z " fill="#100D0C" transform="translate(188,355)"/>
<path d="M0 0 C2.475 0.99 2.475 0.99 5 2 C5 2.99 5 3.98 5 5 C3.68 4.67 2.36 4.34 1 4 C0.67 2.68 0.34 1.36 0 0 Z " fill="#7D3E32" transform="translate(110,270)"/>
<path d="M0 0 C0.66 0 1.32 0 2 0 C1.01 2.97 0.02 5.94 -1 9 C-1.33 9 -1.66 9 -2 9 C-2.25 3.375 -2.25 3.375 0 0 Z " fill="#3E5F64" transform="translate(284,253)"/>
<path d="M0 0 C0.99 0.33 1.98 0.66 3 1 C3.73046875 2.84765625 3.73046875 2.84765625 4.1875 5.0625 C4.34605469 5.79597656 4.50460937 6.52945313 4.66796875 7.28515625 C4.83232422 8.13400391 4.83232422 8.13400391 5 9 C4.34 9 3.68 9 3 9 C1.76078698 6.02588876 0.69941596 3.14737182 0 0 Z " fill="#492425" transform="translate(259,193)"/>
<path d="M0 0 C2.97 1.98 2.97 1.98 6 4 C5.01 5.485 5.01 5.485 4 7 C2 6 2 6 0.875 2.9375 C0.58625 1.968125 0.2975 0.99875 0 0 Z " fill="#37191D" transform="translate(240,159)"/>
<path d="M0 0 C2.91227269 3.28804981 4.49701212 5.59885603 5 10 C2.66063182 7.87330165 1.19346152 5.93775144 0 3 C0 2.01 0 1.02 0 0 Z " fill="#140F11" transform="translate(137,150)"/>
<path d="M0 0 C0.66 0 1.32 0 2 0 C2.99 2.31 3.98 4.62 5 7 C4.01 7.495 4.01 7.495 3 8 C0 3.375 0 3.375 0 0 Z " fill="#472322" transform="translate(187,89)"/>
<path d="M0 0 C0.99 0 1.98 0 3 0 C3 0.66 3 1.32 3 2 C2.34 2 1.68 2 1 2 C0.34 3.65 -0.32 5.3 -1 7 C-1.66 6.01 -2.32 5.02 -3 4 C-1.6875 2 -1.6875 2 0 0 Z " fill="#906842" transform="translate(54,83)"/>
<path d="M0 0 C0.99 0.33 1.98 0.66 3 1 C3 2.98 3 4.96 3 7 C2.01 7 1.02 7 0 7 C-1.33332095 4.3333581 -0.67102033 2.83319697 0 0 Z " fill="#27211E" transform="translate(175,16)"/>
<path d="M0 0 C0.66 0 1.32 0 2 0 C1.34 2.31 0.68 4.62 0 7 C-0.99 6.34 -1.98 5.68 -3 5 C-1.125 1.125 -1.125 1.125 0 0 Z " fill="#232726" transform="translate(170,9)"/>
<path d="M0 0 C0.33 1.32 0.66 2.64 1 4 C0.34 4 -0.32 4 -1 4 C-0.67 2.68 -0.34 1.36 0 0 Z " fill="#8B9AAB" transform="translate(269,292)"/>
<path d="M0 0 C0 3 0 3 0 3 Z " fill="#676A66" transform="translate(246,320)"/>
<path d="" fill="#B1997E" transform="translate(0,0)"/>
<path d="" fill="#030400" transform="translate(0,0)"/>
<path d="" fill="#70746C" transform="translate(0,0)"/>
</svg>
