<?xml version="1.0" encoding="UTF-8"?>
<svg version="1.1" xmlns="http://www.w3.org/2000/svg" width="1024" height="1024">
<path d="M0 0 C154.77 0 309.54 0 469 0 C469 144.54 469 289.08 469 438 C314.23 438 159.46 438 0 438 C0 293.46 0 148.92 0 0 Z " fill="#D8D2C0" transform="translate(291,211)"/>
<path d="M0 0 C0.66 0.33 1.32 0.66 2 1 C1.61328125 2.01578125 1.2265625 3.0315625 0.828125 4.078125 C-0.54078137 7.68714005 -1.8910059 11.30281039 -3.23046875 14.92285156 C-3.88807299 16.6978823 -4.55269502 18.47031047 -5.21875 20.2421875 C-15.07242989 47.78770172 -9.00641198 78.21718448 3.0625 104.09375 C10.52147409 119.43967211 20.44403001 132.8043582 32.65722656 144.67700195 C36.66806234 148.59336548 40.26285321 152.72472908 43.734375 157.1328125 C45.30548318 159.12107699 46.92401764 161.07242047 48.578125 162.9921875 C68.70712571 186.65628498 78.22363317 215.79432739 78.25 246.4375 C78.25067474 247.14520538 78.25134949 247.85291077 78.25204468 248.58206177 C78.21968871 270.00806147 74.73421465 290.11848048 65.234375 309.4609375 C63.91835911 312.02761167 63.91835911 312.02761167 63 315 C64.58581978 312.96022417 66.16868908 310.91826692 67.75 308.875 C68.1934375 308.30523438 68.636875 307.73546875 69.09375 307.1484375 C87.26876915 283.62782449 90.44485134 252.72858193 87.69970703 223.83984375 C83.82931745 194.21780479 71.04299522 169.69340964 52 147 C51.12234188 145.9453574 50.24473922 144.89066864 49.3671875 143.8359375 C44.84943394 138.43133262 40.24656409 133.14728772 35.4375 128 C26.04833854 117.86770349 18.48025244 107.19097491 12 95 C11.38125 93.86691406 10.7625 92.73382813 10.125 91.56640625 C-2.59318292 67.41830463 -5.13914192 39.4213593 2.86547852 13.30078125 C3.5475435 11.19077565 4.26880294 9.09348683 5 7 C47.40612884 30.98004512 47.40612884 30.98004512 62 45 C63.32834368 46.13088719 64.66154715 47.25609574 66 48.375 C80.19576586 60.83541172 90.73702066 76.6978486 100 93 C100.50394287 93.86431641 100.50394287 93.86431641 101.01806641 94.74609375 C105.69611005 102.79296745 109.40114384 111.09083167 112.8125 119.75 C113.18568359 120.69617188 113.55886719 121.64234375 113.94335938 122.6171875 C117.9025878 132.93561222 120.38899414 143.22288321 122.125 154.125 C122.29386719 155.14464844 122.46273437 156.16429687 122.63671875 157.21484375 C127.23203172 185.40184219 128.67822577 224.36208887 114.01171875 250.04296875 C110.81922748 256.21840553 109.00528288 263.15595293 108 270 C107.67 269.34 107.34 268.68 107 268 C106.34 268 105.68 268 105 268 C104.88785156 268.72574219 104.77570313 269.45148438 104.66015625 270.19921875 C103.97038613 273.12563993 102.94489186 275.22287809 101.4375 277.8125 C100.98246094 278.60269531 100.52742187 279.39289063 100.05859375 280.20703125 C99.70925781 280.79871094 99.35992188 281.39039063 99 282 C98.01 282 97.02 282 96 282 C95.79503906 282.84304688 95.59007812 283.68609375 95.37890625 284.5546875 C94.97478516 286.19824219 94.97478516 286.19824219 94.5625 287.875 C94.29566406 288.96554687 94.02882813 290.05609375 93.75390625 291.1796875 C93 294 93 294 92 296 C91.360625 296.12375 90.72125 296.2475 90.0625 296.375 C87.84915847 296.79793094 87.84915847 296.79793094 86.875 298.8125 C86.58625 299.534375 86.2975 300.25625 86 301 C85.125 303.1875 85.125 303.1875 84 305 C81.99609375 305.609375 81.99609375 305.609375 80 306 C78.6072711 307.61736259 77.28062485 309.2925002 76 311 C74.34914369 312.68232844 72.67975662 314.34652691 71 316 C70.01992551 316.978258 69.04078378 317.95745124 68.0625 318.9375 C61.9375 325.0625 61.9375 325.0625 60.43945312 326.55737305 C59.08752094 327.91228608 57.74649002 329.27805159 56.40625 330.64453125 C49.31107907 337.58996643 41.32061935 342.05600531 32.4375 346.3125 C31.12652344 346.94321411 31.12652344 346.94321411 29.7890625 347.58666992 C23.9884964 350.28965111 18.17665383 352.3326265 12 354 C12.78375 352.989375 13.5675 351.97875 14.375 350.9375 C35.11183107 323.06015635 44.69408456 294.84555658 40.61767578 259.70410156 C35.49101758 228.14519263 16.72532538 203.12074951 -5.75 181.3125 C-9.91302548 177.1993909 -13.42379202 172.62230964 -17 168 C-17.95254878 166.82245031 -18.90571141 165.64539702 -19.859375 164.46875 C-33.08127491 147.86514378 -41.86450772 128.07342484 -45 107 C-45.11085938 106.27554688 -45.22171875 105.55109375 -45.3359375 104.8046875 C-47.1828433 90.0793575 -46.34080492 76.17928817 -42 62 C-41.80164551 61.34322266 -41.60329102 60.68644531 -41.39892578 60.00976562 C-36.66154095 44.8591793 -28.50214303 29.92135154 -18 18 C-17.30390625 17.1853125 -16.6078125 16.370625 -15.890625 15.53125 C-10.96463885 9.89184517 -5.71340389 4.83545767 0 0 Z " fill="#653627" transform="translate(544,253)"/>
<path d="M0 0 C-1.10408203 1.07121094 -1.10408203 1.07121094 -2.23046875 2.1640625 C-15.39693707 15.64622893 -22.91879232 32.09832428 -28 50 C-28.34160156 51.175625 -28.68320312 52.35125 -29.03515625 53.5625 C-33.19850875 70.60319859 -32.54840545 90.10063993 -28 107 C-27.68289063 108.19882812 -27.36578125 109.39765625 -27.0390625 110.6328125 C-24.48932446 119.15002253 -20.76394307 126.71533846 -16.47827148 134.47973633 C-14.20851621 138.5959835 -12.36100682 142.47465231 -11 147 C-8.83675952 151.12045806 -6.01584005 154.46926042 -3 158 C-2.319375 158.886875 -1.63875 159.77375 -0.9375 160.6875 C0.89878995 163.05761852 0.89878995 163.05761852 3.25 164.6875 C3.8275 165.120625 4.405 165.55375 5 166 C5 166.66 5 167.32 5 168 C5.66 168 6.32 168 7 168 C7 168.99 7 169.98 7 171 C7.5775 171.020625 8.155 171.04125 8.75 171.0625 C12.42933295 172.59555539 13.27283347 175.48398243 15 179 C15 179.66 15 180.32 15 181 C15.99 180.67 16.98 180.34 18 180 C18 180.66 18 181.32 18 182 C18.66 182 19.32 182 20 182 C23 185.46153846 23 185.46153846 23 188 C23.66 188 24.32 188 25 188 C26.4239869 189.71519077 27.7663216 191.4987912 29.0625 193.3125 C30.13177734 194.79169922 30.13177734 194.79169922 31.22265625 196.30078125 C33 199 33 199 34 202 C34.45246094 202.44601562 34.90492188 202.89203125 35.37109375 203.3515625 C37.46565864 205.47124208 38.6571443 207.75119013 40.0625 210.375 C40.56910156 211.31085938 41.07570313 212.24671875 41.59765625 213.2109375 C42.88362219 215.76854107 43.98371552 218.32556717 45 221 C45.66 221 46.32 221 47 221 C58.5852034 248.15425146 58.13813332 278.22724567 47.625 305.75 C45.08256379 311.31609062 41.64731753 316.11347338 38 321 C37.34 322.03125 36.68 323.0625 36 324.125 C28.97413934 334.22467469 19.70606466 341.60811279 10 349 C9.34 348.67 8.68 348.34 8 348 C8.30292969 347.52175781 8.60585938 347.04351563 8.91796875 346.55078125 C21.22829017 324.84673763 20.32566027 298.26854285 13.88623047 274.94384766 C9.99146349 262.00635447 5.27148387 248.8100897 -3 238 C-3.57524414 237.23163818 -3.57524414 237.23163818 -4.16210938 236.44775391 C-9.77767897 228.96685752 -15.79581259 221.86139346 -21.94506836 214.81738281 C-35.99929016 198.70215133 -49.27430442 182.70891124 -58 163 C-58.30035156 162.32630371 -58.60070312 161.65260742 -58.91015625 160.95849609 C-71.39955433 132.40663469 -73.73414381 99.88203835 -62.66015625 70.4375 C-61.84652689 68.49863854 -61.00825513 66.56978098 -60.13671875 64.65625 C-58.09078619 59.87537665 -56 54.25652738 -56 49 C-57.32 49 -58.64 49 -60 49 C-60.23074219 49.64582031 -60.46148437 50.29164063 -60.69921875 50.95703125 C-61.7582687 53.43450846 -62.89098503 55.67081577 -64.20703125 58.01171875 C-70.2257649 68.75714607 -74.30620996 78.99579814 -77 91 C-77.1753125 91.72799805 -77.350625 92.45599609 -77.53125 93.20605469 C-85.37063267 126.48019913 -77.18499056 164.02941623 -59.80273438 192.99511719 C-57.3919195 196.81392899 -54.76103552 200.42423269 -52 204 C-51.34386719 204.86496094 -50.68773437 205.72992188 -50.01171875 206.62109375 C-45.00798418 213.04873676 -39.5103089 219.00776639 -34 225 C-18.79657714 241.68427574 -6.09184842 259.8323574 2 281 C2.433125 282.05445313 2.86625 283.10890625 3.3125 284.1953125 C8.67898205 299.36307775 7.4404178 318.45533854 4 334 C3.66578019 335.66648913 3.33218224 337.33310353 3 339 C-13.97161879 332.61189296 -28.69570605 325.35757036 -43 314 C-43.91394531 313.29101562 -44.82789063 312.58203125 -45.76953125 311.8515625 C-75.95732212 287.92590278 -97.20223117 252.61389102 -106.3125 215.375 C-106.55508545 214.38693359 -106.7976709 213.39886719 -107.04760742 212.38085938 C-110.21141539 198.71911382 -111.33830477 185.26421236 -111.26074219 171.29101562 C-111.25000484 169.00103303 -111.26072637 166.71183442 -111.2734375 164.421875 C-111.28876856 150.37194419 -109.8449348 136.83020915 -106.3125 123.1875 C-106.05194824 122.16906006 -105.79139648 121.15062012 -105.52294922 120.10131836 C-97.27169512 88.80084377 -82.74302368 63.03197483 -60.50830078 39.59179688 C-59.08988975 38.09486584 -57.68320217 36.58685111 -56.27734375 35.078125 C-48.03199543 26.48061894 -11.42567196 -5.71283598 0 0 Z " fill="#A76846" transform="translate(505,269)"/>
<path d="M0 0 C0.66 0.33 1.32 0.66 2 1 C1.61328125 2.01578125 1.2265625 3.0315625 0.828125 4.078125 C-0.54078137 7.68714005 -1.8910059 11.30281039 -3.23046875 14.92285156 C-3.88807299 16.6978823 -4.55269502 18.47031047 -5.21875 20.2421875 C-15.07242989 47.78770172 -9.00641198 78.21718448 3.0625 104.09375 C10.52147409 119.43967211 20.44403001 132.8043582 32.65722656 144.67700195 C36.66806234 148.59336548 40.26285321 152.72472908 43.734375 157.1328125 C45.30548318 159.12107699 46.92401764 161.07242047 48.578125 162.9921875 C68.70712571 186.65628498 78.22363317 215.79432739 78.25 246.4375 C78.25067474 247.14520538 78.25134949 247.85291077 78.25204468 248.58206177 C78.21155082 275.39694026 72.42863522 299.21176685 57.78515625 321.9296875 C56.14200822 324.75575829 55.22227682 327.19734796 54.3125 330.3125 C51.72457094 337.21736244 45.25565787 339.86133206 39 343 C37.95779297 343.53052979 37.95779297 343.53052979 36.89453125 344.07177734 C28.84242835 348.12854822 20.81804907 351.92006705 12 354 C12.78375 352.989375 13.5675 351.97875 14.375 350.9375 C35.11183107 323.06015635 44.69408456 294.84555658 40.61767578 259.70410156 C35.49101758 228.14519263 16.72532538 203.12074951 -5.75 181.3125 C-9.91302548 177.1993909 -13.42379202 172.62230964 -17 168 C-17.95254878 166.82245031 -18.90571141 165.64539702 -19.859375 164.46875 C-33.08127491 147.86514378 -41.86450772 128.07342484 -45 107 C-45.11085938 106.27554688 -45.22171875 105.55109375 -45.3359375 104.8046875 C-47.1828433 90.0793575 -46.34080492 76.17928817 -42 62 C-41.80164551 61.34322266 -41.60329102 60.68644531 -41.39892578 60.00976562 C-36.66154095 44.8591793 -28.50214303 29.92135154 -18 18 C-17.30390625 17.1853125 -16.6078125 16.370625 -15.890625 15.53125 C-10.96463885 9.89184517 -5.71340389 4.83545767 0 0 Z " fill="#2E1F1E" transform="translate(544,253)"/>
<path d="M0 0 C0.495 0.99 0.495 0.99 1 2 C0.01727641 4.19434242 -1.02400951 6.30345422 -2.125 8.4375 C-17.95557439 40.73662688 -15.1378399 77.78126763 -4 111 C0.72468856 123.29732545 6.95554447 134.58177071 15 145 C15.65613281 145.86496094 16.31226563 146.72992188 16.98828125 147.62109375 C21.99201582 154.04873676 27.4896911 160.00776639 33 166 C48.20342286 182.68427574 60.90815158 200.8323574 69 222 C69.433125 223.05445313 69.86625 224.10890625 70.3125 225.1953125 C75.67898205 240.36307775 74.4404178 259.45533854 71 275 C70.66578019 276.66648913 70.33218224 278.33310353 70 280 C53.02838121 273.61189296 38.30429395 266.35757036 24 255 C23.08605469 254.29101562 22.17210937 253.58203125 21.23046875 252.8515625 C-8.95732212 228.92590278 -30.20223117 193.61389102 -39.3125 156.375 C-39.55508545 155.38693359 -39.7976709 154.39886719 -40.04760742 153.38085938 C-43.21141539 139.71911382 -44.33830477 126.26421236 -44.26074219 112.29101562 C-44.25000484 110.00103303 -44.26072637 107.71183442 -44.2734375 105.421875 C-44.28876924 91.37132588 -42.84321406 77.83113758 -39.3125 64.1875 C-39.05484863 63.17558594 -38.79719727 62.16367187 -38.53173828 61.12109375 C-35.23518616 48.573309 -30.94833042 36.53300746 -25 25 C-24.34 25.99 -23.68 26.98 -23 28 C-22.896875 27.29875 -22.79375 26.5975 -22.6875 25.875 C-21.07073512 19.11398321 -16.8727187 12.72817166 -13 7 C-12.34 6.67 -11.68 6.34 -11 6 C-10.27840576 4.35636866 -9.60648579 2.68949614 -9 1 C-8.01 1 -7.02 1 -6 1 C-5.505 2.98 -5.505 2.98 -5 5 C-3.35 3.35 -1.7 1.7 0 0 Z " fill="#683328" transform="translate(438,328)"/>
<path d="M0 0 C0.66 0.33 1.32 0.66 2 1 C4.21496172 7.64488516 2.9284645 12.77051789 0.5 19.125 C-5.20489796 36.25950942 -4.16243564 58.08689783 2 75 C2.42410156 76.22847656 2.84820313 77.45695312 3.28515625 78.72265625 C8.68037983 93.62402503 16.88976942 106.86917436 27 119 C27.47872559 119.57492187 27.95745117 120.14984375 28.45068359 120.7421875 C33.51694439 126.79066569 38.70394787 132.70834778 44.0625 138.5 C49.75432092 144.71341865 54.90518873 151.29630096 60 158 C60.93972656 159.21042969 60.93972656 159.21042969 61.8984375 160.4453125 C83.50800929 189.56243506 91.14636689 227.09243738 86.12182617 262.69970703 C84.79791446 270.6675171 82.7245915 278.39878458 80 286 C79.66484375 286.99257813 79.3296875 287.98515625 78.984375 289.0078125 C75.79642145 297.60630693 70.70293571 303.96949566 65 311 C63.29178129 313.30799328 61.64300529 315.64502576 60 318 C59.505 316.515 59.505 316.515 59 315 C59.89222476 313.35281582 60.79791003 311.71181662 61.76171875 310.10546875 C66.04552242 302.82165116 68.6240548 295.34192117 70.6875 287.1875 C70.99095337 285.99797729 70.99095337 285.99797729 71.30053711 284.78442383 C74.15799021 272.94402364 75.3365606 261.20695512 75.26074219 249.04101562 C75.25000526 247.00100005 75.26072424 244.96186453 75.2734375 242.921875 C75.28854745 230.81561798 74.27461619 219.00231586 70.125 207.5625 C69.82819336 206.73540527 69.53138672 205.90831055 69.22558594 205.05615234 C63.34264001 189.36732286 55.50906023 174.32403515 44.45800781 161.66992188 C42.87391683 159.85559128 41.32330291 158.01550575 39.7734375 156.171875 C35.01051477 150.5495143 30.20246304 145.09950503 24.875 140 C4.25774042 119.71635303 -8.20164836 91.37776763 -12 63 C-12.18175781 61.98421875 -12.36351562 60.9684375 -12.55078125 59.921875 C-14.9902561 44.05468206 -11.72395468 27.85065585 -5.42578125 13.30078125 C-4.18670957 10.43224545 -3.13804701 7.59838596 -2.1875 4.625 C-1 1 -1 1 0 0 Z " fill="#DDD8CA" transform="translate(546,253)"/>
<path d="M0 0 C-0.72960937 0.69609375 -1.45921875 1.3921875 -2.2109375 2.109375 C-5.94641711 5.84222214 -8.85091243 10.16680579 -11.9140625 14.453125 C-14 17 -14 17 -17 18 C-17 15.36 -17 12.72 -17 10 C-20.99343923 13.86864426 -24.62159158 17.97712359 -28.23046875 22.20703125 C-28.81441406 22.79871094 -29.39835937 23.39039063 -30 24 C-30.66 24 -31.32 24 -32 24 C-32.495 25.485 -32.495 25.485 -33 27 C-33.99 27 -34.98 27 -36 27 C-37.42944945 29.35438733 -38.08661261 30.48032433 -37.625 33.25 C-37.41875 33.8275 -37.2125 34.405 -37 35 C-37.99 35.33 -38.98 35.66 -40 36 C-41.18519265 38.43276386 -42 40.28017286 -42 43 C-43.32 43.66 -44.64 44.32 -46 45 C-46 44.01 -46 43.02 -46 42 C-46.62648438 42.98742187 -47.25296875 43.97484375 -47.8984375 44.9921875 C-48.72382418 46.28654389 -49.54935239 47.58081004 -50.375 48.875 C-50.99375 49.85146484 -50.99375 49.85146484 -51.625 50.84765625 C-53.28002854 53.43697509 -54.81997379 55.81997379 -57 58 C-56.67 55.03 -56.34 52.06 -56 49 C-57.32 49 -58.64 49 -60 49 C-60.268125 49.70125 -60.53625 50.4025 -60.8125 51.125 C-62.0681449 54.1649824 -63.50235123 57.0727774 -65 60 C-65.66 60 -66.32 60 -67 60 C-69.42798296 62.20035956 -71.17384779 64.26077169 -73 67 C-73 64.69 -73 62.38 -73 60 C-73.99 60 -74.98 60 -76 60 C-76.26039063 60.71414063 -76.52078125 61.42828125 -76.7890625 62.1640625 C-78.06202449 65.14525736 -79.59781012 67.66653158 -81.375 70.375 C-86.84992341 78.17195353 -86.84992341 78.17195353 -90 87 C-90.66 86.67 -91.32 86.34 -92 86 C-91.41153786 81.29230284 -89.37764088 77.55941843 -87.0625 73.5 C-86.4586145 72.44051147 -86.4586145 72.44051147 -85.8425293 71.35961914 C-78.6942731 59.10171931 -69.4327615 48.86684075 -59.625 38.69238281 C-58.19386788 37.20190687 -56.78279313 35.69222714 -55.375 34.1796875 C-47.23857737 25.64179664 -11.09216116 -5.54608058 0 0 Z " fill="#C39263" transform="translate(505,269)"/>
<path d="M0 0 C3.8076546 2.01159111 7.04834016 4.09668033 9 8 C9.79306636 13.94799767 8.86707955 17.39706309 5.4140625 22.296875 C3.41755647 24.70150657 1.97619467 25.96179256 -1 27 C-5.66268304 27 -8.66330679 26.61771407 -12.375 23.75 C-16.16698899 19.7774401 -17.22621302 17.05369813 -17.125 11.625 C-16.42375244 6.69976715 -14.12402823 4.23482941 -10.25390625 1.2578125 C-6.43645445 -0.87255055 -4.32391053 -0.76714542 0 0 Z " fill="#21181A" transform="translate(714,435)"/>
<path d="M0 0 C2.84645636 2.26042123 5.18603953 4.44190942 6.21875 7.953125 C6.69232835 12.21533012 6.51705613 14.3991279 4.46875 18.203125 C1.76640102 21.50599597 -0.12854621 23.63539208 -4.40234375 24.45703125 C-11.85625865 24.61210576 -11.85625865 24.61210576 -14.57421875 22.67578125 C-18.4684827 18.00494853 -19.18384369 14.38559773 -19.1328125 8.5 C-18.46878699 3.68950411 -15.69086405 1.46764649 -11.96875 -1.484375 C-7.78155697 -2.56108178 -3.71500065 -2.18337758 0 0 Z " fill="#401913" transform="translate(357.78125,436.046875)"/>
<path d="M0 0 C0.66 0 1.32 0 2 0 C1.67 1.98 1.34 3.96 1 6 C0.34 6 -0.32 6 -1 6 C-0.814375 6.5775 -0.62875 7.155 -0.4375 7.75 C0.04023546 10.20692525 -0.24270636 11.64397534 -1 14 C-0.34 14 0.32 14 1 14 C0.95875 14.94875 0.9175 15.8975 0.875 16.875 C0.65026182 20.10244856 0.65026182 20.10244856 3 22 C4.24761022 28.03011605 3.88412446 32.14929773 2 38 C1.34 38.99 0.68 39.98 0 41 C-0.66 41 -1.32 41 -2 41 C-4.08379509 44.84700632 -5.49686624 48.90054429 -7 53 C-7.99 52.67 -8.98 52.34 -10 52 C-9.01 51.505 -9.01 51.505 -8 51 C-6.84043594 44.51652444 -5.97039934 37.05920132 -9 31 C-10.98 31.99 -10.98 31.99 -13 33 C-12.67 30.36 -12.34 27.72 -12 25 C-11.34 25 -10.68 25 -10 25 C-9.83918945 24.45585449 -9.67837891 23.91170898 -9.51269531 23.35107422 C-8.7688414 20.85582106 -8.00956966 18.36551205 -7.25 15.875 C-6.99734375 15.0190625 -6.7446875 14.163125 -6.484375 13.28125 C-4.93512336 8.24618216 -3.32470807 4.1220974 0 0 Z " fill="#E7F0F5" transform="translate(661,496)"/>
<path d="M0 0 C0.99 0.66 1.98 1.32 3 2 C2 10 2 10 1.46875 13.53125 C0.78386158 19.01035739 0.89265311 24.48728274 0.9375 30 C0.94201172 31.06089844 0.94652344 32.12179687 0.95117188 33.21484375 C0.96286157 35.80995598 0.97924724 38.40494709 1 41 C0.34 39.68 -0.32 38.36 -1 37 C-3.67847409 41.6370421 -3.2327139 45.78270454 -3 51 C-2.97035156 51.84433594 -2.94070313 52.68867188 -2.91015625 53.55859375 C-2.56915665 58.88983139 -1.38954648 62.98319039 0.95703125 67.76953125 C2.02913351 70.06230425 2.80826285 72.33564299 3.5625 74.75 C4.64721967 78.16507896 6.06915472 80.96581456 8 84 C8 84.66 8 85.32 8 86 C8.66 86 9.32 86 10 86 C10.33 87.98 10.66 89.96 11 92 C12.485 92.495 12.485 92.495 14 93 C14.67884029 94.59527468 15.34916416 96.1947908 15.97265625 97.8125 C18.04656262 102.22842231 21.12111329 106.07998166 24 110 C23.67 110.66 23.34 111.32 23 112 C16.56678587 104.57442837 11.61591146 96.62974751 7 88 C6.37867188 86.86304688 5.75734375 85.72609375 5.1171875 84.5546875 C-7.59031521 60.40493127 -10.13860504 32.41960737 -2.13452148 6.30078125 C-1.4524565 4.19077565 -0.73119706 2.09348683 0 0 Z " fill="#16100F" transform="translate(549,260)"/>
<path d="M0 0 C0.66 0.33 1.32 0.66 2 1 C2 1.99 2 2.98 2 4 C2.66 4 3.32 4 4 4 C4 4.66 4 5.32 4 6 C4.66 6.33 5.32 6.66 6 7 C10 13.35294118 10 13.35294118 10 17 C10.66 17 11.32 17 12 17 C19.79092579 36.92382997 19.79092579 36.92382997 21.4609375 47.04296875 C22.04708253 50.25827154 22.82803207 53.39324902 23.625 56.5625 C24.94158839 62.22781973 25.34453811 67.2149648 25 73 C24.93335817 74.35675928 24.86697328 75.7135312 24.80078125 77.0703125 C24.72318925 78.52614063 24.64375646 79.9818718 24.5625 81.4375 C24.52350586 82.13657471 24.48451172 82.83564941 24.44433594 83.5559082 C24.25145296 86.57541023 23.96186095 89.11441716 23 92 C23.65583207 94.33640176 24.32215008 96.66989091 25 99 C24.67 99.66 24.34 100.32 24 101 C21.9375 101.625 21.9375 101.625 20 102 C20.495 102.495 20.495 102.495 21 103 C21.99 103 22.98 103 24 103 C22.52202738 106.67056937 20.52384523 108.41085783 17.375 110.75 C16.55773437 111.36359375 15.74046875 111.9771875 14.8984375 112.609375 C13.95871094 113.29773438 13.95871094 113.29773438 13 114 C12.34 113.67 11.68 113.34 11 113 C11.45439453 112.28263672 11.45439453 112.28263672 11.91796875 111.55078125 C24.22829017 89.84673763 23.32566027 63.26854285 16.88623047 39.94384766 C13.19772173 27.69149548 8.81249737 15.29648165 1.21484375 4.890625 C0 3 0 3 0 0 Z " fill="#513327" transform="translate(502,504)"/>
<path d="M0 0 C0.495 1.98 0.495 1.98 1 4 C0.34 4.33 -0.32 4.66 -1 5 C-1.6596391 6.94462973 -1.6596391 6.94462973 -2.1875 9.3125 C-3.99863973 15.76351833 -7.11386416 21.55004564 -11 27 C-11.66 27 -12.32 27 -13 27 C-15.42798296 29.20035956 -17.17384779 31.26077169 -19 34 C-19 31.69 -19 29.38 -19 27 C-19.99 27 -20.98 27 -22 27 C-22.26039063 27.71414063 -22.52078125 28.42828125 -22.7890625 29.1640625 C-24.06202449 32.14525736 -25.59781012 34.66653158 -27.375 37.375 C-32.84992341 45.17195353 -32.84992341 45.17195353 -36 54 C-36.66 53.67 -37.32 53.34 -38 53 C-37.41153786 48.29230284 -35.37764088 44.55941843 -33.0625 40.5 C-32.65990967 39.79367432 -32.25731934 39.08734863 -31.8425293 38.35961914 C-23.39833896 23.87943873 -11.87245982 11.72624726 0 0 Z " fill="#9E7244" transform="translate(451,302)"/>
<path d="M0 0 C3.32232051 2.21488034 3.5710244 2.86111657 4.6875 6.5 C4.93886719 7.2940625 5.19023437 8.088125 5.44921875 8.90625 C6 11 6 11 6 13 C6.66 13.33 7.32 13.66 8 14 C8.625 17.0625 8.625 17.0625 9 20 C9.66 20 10.32 20 11 20 C11 21.65 11 23.3 11 25 C11.66 25 12.32 25 13 25 C13.32613281 25.71027344 13.65226562 26.42054688 13.98828125 27.15234375 C14.64376953 28.53099609 14.64376953 28.53099609 15.3125 29.9375 C15.95638672 31.31228516 15.95638672 31.31228516 16.61328125 32.71484375 C17.85078661 35.30969412 17.85078661 35.30969412 21 36 C21.73046875 38.06640625 21.73046875 38.06640625 22.1875 40.5625 C22.42533203 41.80193359 22.42533203 41.80193359 22.66796875 43.06640625 C22.77753906 43.70449219 22.88710938 44.34257813 23 45 C23.66 45 24.32 45 25 45 C25.66 45.99 26.32 46.98 27 48 C27.66 48.66 28.32 49.32 29 50 C30.01765927 51.99107248 31.01577854 53.99218823 32 56 C33.85406988 59.66410852 33.85406988 59.66410852 37 62 C37 62.66 37 63.32 37 64 C37.99 64.495 37.99 64.495 39 65 C40.34919532 66.65385233 41.68133728 68.321702 43 70 C45.12399867 72.37887851 45.86597409 72.9553247 49 74 C50.1875 76.0625 50.1875 76.0625 51 78 C51.66 77.67 52.32 77.34 53 77 C53 77.99 53 78.98 53 80 C53.66 80 54.32 80 55 80 C56.68873879 81.64429829 58.35305515 83.31384218 60 85 C62.62733831 87.22925675 64.59696858 88.39231582 68 89 C68 89.99 68 90.98 68 92 C68.76570313 92.36738281 68.76570313 92.36738281 69.546875 92.7421875 C72.84149893 94.4314692 76.04144469 96.27942855 79.25 98.125 C79.8996875 98.49753906 80.549375 98.87007812 81.21875 99.25390625 C82.81306224 100.16829121 84.4066079 101.08401256 86 102 C83 103 83 103 79.91796875 101.515625 C78.66617036 100.77427032 77.42317323 100.01793075 76.1875 99.25 C75.52532471 98.84458984 74.86314941 98.43917969 74.1809082 98.02148438 C63.24471439 91.17483745 53.37683275 82.83396348 44 74 C43.32710938 73.37996094 42.65421875 72.75992188 41.9609375 72.12109375 C22.98697014 54.01645159 7.77533719 27.94206206 0 3 C0 2.01 0 1.02 0 0 Z " fill="#291614" transform="translate(403,496)"/>
<path d="M0 0 C0.33 0 0.66 0 1 0 C1.72491982 7.06620106 2.05421332 13.98251912 1.88427734 21.08276367 C1.58538343 34.01145062 2.9749295 45.10212023 7.1328125 57.33203125 C8 60 8 60 8 62 C8.66 62 9.32 62 10 62 C10.50559908 63.43554025 11.0042749 64.8735202 11.5 66.3125 C11.7784375 67.11300781 12.056875 67.91351563 12.34375 68.73828125 C13 71 13 71 13 74 C13.66 74 14.32 74 15 74 C15.144375 74.598125 15.28875 75.19625 15.4375 75.8125 C15.8872439 77.56150404 16.42892341 79.28677023 17 81 C17.66 81.33 18.32 81.66 19 82 C20.0703125 83.77734375 20.0703125 83.77734375 21.125 85.9375 C21.47820312 86.64777344 21.83140625 87.35804688 22.1953125 88.08984375 C23 90 23 90 23 92 C23.66 92 24.32 92 25 92 C26.11328125 93.50390625 26.11328125 93.50390625 27.3125 95.5625 C31.38732634 103.22617207 31.38732634 103.22617207 38 108 C38.6875 110.0625 38.6875 110.0625 39 112 C39.66 112 40.32 112 41 112 C41.061875 112.5775 41.12375 113.155 41.1875 113.75 C42.31484334 116.87187385 44.4164168 117.99772302 47 120 C47.33 120.99 47.66 121.98 48 123 C30.3247734 115.48113969 15.39133523 85.44768923 8.30737305 68.63305664 C0.31401535 48.71980853 -6.43719384 21.35580362 0 0 Z " fill="#804734" transform="translate(437,360)"/>
<path d="M0 0 C0.66 0 1.32 0 2 0 C2 1.65 2 3.3 2 5 C2.63035156 5.22429688 3.26070312 5.44859375 3.91015625 5.6796875 C6 7 6 7 6.93359375 9.3203125 C8.11305879 15.88508693 8.28576505 20.08562291 5 26 C2.8828125 26.7109375 2.8828125 26.7109375 1 27 C0.67 26.34 0.34 25.68 0 25 C0.99 24.34 1.98 23.68 3 23 C2.360625 22.87625 1.72125 22.7525 1.0625 22.625 C0.0415625 22.315625 0.0415625 22.315625 -1 22 C-1.33 21.34 -1.66 20.68 -2 20 C-2.66 19.67 -3.32 19.34 -4 19 C-4 18.01 -4 17.02 -4 16 C-5.32 16 -6.64 16 -8 16 C-8.33 16.66 -8.66 17.32 -9 18 C-9.33 17.34 -9.66 16.68 -10 16 C-9.01 14.68 -8.02 13.36 -7 12 C-6.01 12.33 -5.02 12.66 -4 13 C-3.79503906 12.14535156 -3.59007812 11.29070313 -3.37890625 10.41015625 C-3.10949219 9.30542969 -2.84007812 8.20070313 -2.5625 7.0625 C-2.29566406 5.96035156 -2.02882813 4.85820313 -1.75390625 3.72265625 C-1 1 -1 1 0 0 Z " fill="#E9F1F6" transform="translate(640,536)"/>
<path d="M0 0 C4.12640221 6.18960332 4.51032822 13.13223336 5.125 20.375 C5.25128784 21.81951538 5.25128784 21.81951538 5.38012695 23.29321289 C7.62515923 50.80452533 7.62515923 50.80452533 3 60 C2.68036315 62.13910815 2.4137888 64.28651307 2.1875 66.4375 C1.20378614 73.55542957 1.20378614 73.55542957 -1.625 76.3125 C-2.40875 76.869375 -3.1925 77.42625 -4 78 C-3.731875 76.80375 -3.46375 75.6075 -3.1875 74.375 C-2.79125875 72.5834235 -2.39548576 70.79174342 -2 69 C-1.74734375 67.86691406 -1.4946875 66.73382812 -1.234375 65.56640625 C-0.97140625 64.36886719 -0.7084375 63.17132812 -0.4375 61.9375 C-0.18871094 60.81214844 0.06007813 59.68679688 0.31640625 58.52734375 C1.95954522 50.04874664 2.18292278 41.87348247 2.1875 33.25 C2.19974609 32.05117188 2.21199219 30.85234375 2.22460938 29.6171875 C2.23578362 22.74874885 1.75843392 16.28464391 0.44311523 9.5390625 C-0.12396453 6.28967981 -0.1494249 3.2873477 0 0 Z " fill="#171114" transform="translate(630,461)"/>
<path d="M0 0 C1.98 0 3.96 0 6 0 C6 6.88446133 -2.89781427 12.9889207 -7.5625 17.6875 C-8.10414795 18.23390137 -8.6457959 18.78030273 -9.20385742 19.34326172 C-12.65084355 22.77615721 -16.22044293 25.93656953 -20 29 C-18.76265164 22.81325822 -16.13727343 17.71189473 -12 13 C-11.401875 12.31164062 -10.80375 11.62328125 -10.1875 10.9140625 C-8.46603633 8.93576756 -6.73617147 6.96538512 -5 5 C-4.01 5.33 -3.02 5.66 -2 6 C-1.34 4.02 -0.68 2.04 0 0 Z " fill="#3D5754" transform="translate(617,557)"/>
<path d="M0 0 C3.27520695 3.09615236 5.88986136 6.43880709 8.5625 10.0625 C12.80276449 15.70475527 17.39945999 20.59194432 22.46875 25.51171875 C25.25165557 28.24738364 27.8151827 31.09801651 30.33984375 34.0703125 C31.4690613 35.38286184 32.62965215 36.66892078 33.81640625 37.9296875 C44.60244842 49.47837912 52.54528369 63.15815639 60 77 C59.34 77.99 58.68 78.98 58 80 C57.65388672 79.18208984 57.65388672 79.18208984 57.30078125 78.34765625 C55.1289361 73.32580087 52.71804714 68.56967689 49.953125 63.84765625 C49 62 49 62 49 60 C48.01 59.67 47.02 59.34 46 59 C44.9866736 57.30022669 43.97998108 55.59483895 43.05078125 53.84765625 C41.92454492 51.75481956 41.92454492 51.75481956 39.75 49.1875 C38 47 38 47 38 45 C37.34 45 36.68 45 36 45 C33 41.53846154 33 41.53846154 33 39 C31.8553125 38.9071875 31.8553125 38.9071875 30.6875 38.8125 C28 38 28 38 26.3125 35.6875 C25.51495969 34.05444126 24.73811701 32.41076328 24 30.75 C23.05720054 28.64862526 23.05720054 28.64862526 20 28 C20 27.01 20 26.02 20 25 C19.34 25 18.68 25 18 25 C15.375 22.625 15.375 22.625 13 20 C13 19.34 13 18.68 13 18 C12.01 17.67 11.02 17.34 10 17 C8.65729179 15.00628175 7.32346506 13.0065438 6 11 C5.34 11 4.68 11 4 11 C3.8453125 10.13375 3.8453125 10.13375 3.6875 9.25 C3.11076107 6.90012053 3.11076107 6.90012053 1.4375 4.9375 C0 3 0 3 0 0 Z " fill="#CEA277" transform="translate(492,412)"/>
<path d="M0 0 C-0.27714844 0.67160156 -0.55429687 1.34320313 -0.83984375 2.03515625 C-2.18377134 5.46963787 -3.38820502 8.94249151 -4.5625 12.4375 C-4.78357422 13.08009766 -5.00464844 13.72269531 -5.23242188 14.38476562 C-6.52693136 18.23700683 -7.44628329 21.97466619 -8 26 C-8.33 25.34 -8.66 24.68 -9 24 C-9.66 24 -10.32 24 -11 24 C-11.16822266 25.08861328 -11.16822266 25.08861328 -11.33984375 26.19921875 C-12.02961387 29.12563993 -13.05510814 31.22287809 -14.5625 33.8125 C-15.01753906 34.60269531 -15.47257813 35.39289062 -15.94140625 36.20703125 C-16.29074219 36.79871094 -16.64007812 37.39039063 -17 38 C-17.99 38 -18.98 38 -20 38 C-20.30744141 39.26457031 -20.30744141 39.26457031 -20.62109375 40.5546875 C-20.89050781 41.65039062 -21.15992188 42.74609375 -21.4375 43.875 C-21.70433594 44.96554687 -21.97117187 46.05609375 -22.24609375 47.1796875 C-23 50 -23 50 -24 52 C-24.99 52 -25.98 52 -27 52 C-27.495 50.515 -27.495 50.515 -28 49 C-27.34 49 -26.68 49 -26 49 C-26 48.34 -26 47.68 -26 47 C-25.34 47 -24.68 47 -24 47 C-23.34 43.04 -22.68 39.08 -22 35 C-21.01 35 -20.02 35 -19 35 C-17.76261515 32.195261 -16.96866049 29.79629321 -16.5 26.75 C-16.335 25.8425 -16.17 24.935 -16 24 C-15.34 23.67 -14.68 23.34 -14 23 C-13.67 22.01 -13.34 21.02 -13 20 C-12.01 20 -11.02 20 -10 20 C-9.01 15.38 -8.02 10.76 -7 6 C-6.34 6 -5.68 6 -5 6 C-5 4.68 -5 3.36 -5 2 C-2 0 -2 0 0 0 Z " fill="#283C45" transform="translate(660,497)"/>
<path d="M0 0 C0.99 0.66 1.98 1.32 3 2 C2.86335937 3.08796875 2.72671875 4.1759375 2.5859375 5.296875 C2.27796531 7.74984647 1.97588888 10.20319031 1.68457031 12.65820312 C1.34315369 15.52369982 0.98481884 18.38676069 0.625 21.25 C0.5115625 22.2296875 0.398125 23.209375 0.28125 24.21875 C0.16007813 25.16234375 0.03890625 26.1059375 -0.0859375 27.078125 C-0.1895459 27.92793945 -0.2931543 28.77775391 -0.39990234 29.65332031 C-1.09033026 32.35323615 -2.29591057 33.82679938 -4 36 C-4.57437061 39.03883681 -4.57437061 39.03883681 -4.6875 42.25 C-4.78611328 43.86648438 -4.78611328 43.86648438 -4.88671875 45.515625 C-4.92410156 46.33546875 -4.96148438 47.1553125 -5 48 C-5.33 48 -5.66 48 -6 48 C-6.79754217 30.93259766 -5.55460548 16.20585696 0 0 Z " fill="#100C10" transform="translate(549,260)"/>
<path d="M0 0 C0.33 0.99 0.66 1.98 1 3 C-1.01362141 6.46790354 -3.89836393 8.53459697 -7 11 C-7.99 12.485 -7.99 12.485 -9 14 C-9 11.69 -9 9.38 -9 7 C-9.99 7 -10.98 7 -12 7 C-12.26039063 7.71414063 -12.52078125 8.42828125 -12.7890625 9.1640625 C-14.06202449 12.14525736 -15.59781012 14.66653158 -17.375 17.375 C-22.84992341 25.17195353 -22.84992341 25.17195353 -26 34 C-26.66 33.67 -27.32 33.34 -28 33 C-26.76832659 22.89245786 -17.62925749 8.35521646 -10 2 C-7.02201596 1.28317552 -5.09737488 1.57277588 -2 2 C-1.34 1.34 -0.68 0.68 0 0 Z " fill="#8C5E34" transform="translate(441,322)"/>
<path d="M0 0 C0.33 0 0.66 0 1 0 C1.26049777 5.73861272 0.36369513 10.65487844 -1.125 16.1875 C-1.46059937 17.44216064 -1.46059937 17.44216064 -1.80297852 18.72216797 C-5.4940855 31.90741752 -12.28242053 43.20102788 -21.484375 53.2734375 C-23.18403835 55.13301401 -23.18403835 55.13301401 -25 58 C-25.66 57.67 -26.32 57.34 -27 57 C-25.07517084 50.33712984 -25.07517084 50.33712984 -22 48 C-20.515 47.505 -20.515 47.505 -19 47 C-17.3825347 44.51884772 -17.3825347 44.51884772 -15.9375 41.5625 C-13.17914439 36.17914439 -13.17914439 36.17914439 -11 34 C-10.855625 33.195625 -10.71125 32.39125 -10.5625 31.5625 C-10 29 -10 29 -8.6328125 27.828125 C-6.14632565 25.04421149 -5.36500523 21.69479084 -4.3125 18.1875 C-3.97508789 17.13852539 -3.97508789 17.13852539 -3.63085938 16.06835938 C-2.34794158 11.89985141 -1.86314138 8.39902693 -2 4 C-1 1.625 -1 1.625 0 0 Z " fill="#614237" transform="translate(558,545)"/>
<path d="M0 0 C0.66 0.33 1.32 0.66 2 1 C2 1.99 2 2.98 2 4 C2.66 4 3.32 4 4 4 C4 4.66 4 5.32 4 6 C4.66 6.33 5.32 6.66 6 7 C10 13.35294118 10 13.35294118 10 17 C10.66 17 11.32 17 12 17 C19.79088102 36.9237155 19.79088102 36.9237155 21.52734375 47.26953125 C22.21024196 51.21453824 23.10452948 55.09830702 24 59 C22.515 59.495 22.515 59.495 21 60 C20.8956665 59.4237085 20.79133301 58.84741699 20.68383789 58.25366211 C17.23217563 39.71993513 12.51274953 20.36440071 1.21484375 4.890625 C0 3 0 3 0 0 Z " fill="#6B3326" transform="translate(502,504)"/>
<path d="M0 0 C0.33 0 0.66 0 1 0 C1.72490215 7.06602886 2.05456298 13.98219129 1.8840332 21.08227539 C1.57759132 34.38478157 2.85777231 45.8404124 7.63671875 58.33984375 C9 62 9 62 9 64 C8.34 64 7.68 64 7 64 C-1.49470024 46.82986123 -5.6083552 18.60607824 0 0 Z " fill="#793E2C" transform="translate(437,360)"/>
<path d="M0 0 C0.66 0 1.32 0 2 0 C5.36630398 11.09076936 6.40886 21.72332288 6.4375 33.3125 C6.45200195 35.18736084 6.45200195 35.18736084 6.46679688 37.10009766 C6.3921373 45.42134593 5.20811384 52.98097174 3 61 C2.67 61 2.34 61 2 61 C1.67 58.36 1.34 55.72 1 53 C1.33 53 1.66 53 2 53 C2.34011625 49.83402429 2.67083187 46.6671312 3 43.5 C3.09539063 42.613125 3.19078125 41.72625 3.2890625 40.8125 C4.10140602 32.92116299 4.23825021 25.52051305 3.125 17.625 C2.96257813 16.42101562 2.80015625 15.21703125 2.6328125 13.9765625 C2.26060221 10.89753192 2.26060221 10.89753192 0 9 C-0.1953125 6.8359375 -0.1953125 6.8359375 -0.125 4.375 C-0.10695313 3.55773437 -0.08890625 2.74046875 -0.0703125 1.8984375 C-0.04710937 1.27195312 -0.02390625 0.64546875 0 0 Z " fill="#F1F0E6" transform="translate(580,498)"/>
<path d="M0 0 C0.66 0.99 1.32 1.98 2 3 C2.99387334 4.33790641 3.9926892 5.67218122 5 7 C4.360625 7.103125 3.72125 7.20625 3.0625 7.3125 C2.0415625 7.6528125 2.0415625 7.6528125 1 8 C0.67 8.99 0.34 9.98 0 11 C-3.91097847 13.48196711 -7.70637681 15.28255073 -12 17 C-12.66 17.66 -13.32 18.32 -14 19 C-14.99 19 -15.98 19 -17 19 C-15.68226796 15.99171418 -14.39598781 14.26003628 -11.8125 12.25 C-7.72039043 8.89567119 -4.40558582 5.03090525 -1 1 C-0.67 0.67 -0.34 0.34 0 0 Z " fill="#EDEDEF" transform="translate(540,594)"/>
<path d="M0 0 C3.32232051 2.21488034 3.5710244 2.86111657 4.6875 6.5 C4.93886719 7.2940625 5.19023437 8.088125 5.44921875 8.90625 C6 11 6 11 6 13 C6.66 13.33 7.32 13.66 8 14 C8.625 17.0625 8.625 17.0625 9 20 C9.66 20 10.32 20 11 20 C11 21.65 11 23.3 11 25 C11.66 25 12.32 25 13 25 C13.32613281 25.71027344 13.65226562 26.42054688 13.98828125 27.15234375 C14.64376953 28.53099609 14.64376953 28.53099609 15.3125 29.9375 C15.95638672 31.31228516 15.95638672 31.31228516 16.61328125 32.71484375 C17.85078661 35.30969412 17.85078661 35.30969412 21 36 C21.73046875 37.84765625 21.73046875 37.84765625 22.1875 40.0625 C22.34605469 40.79597656 22.50460937 41.52945313 22.66796875 42.28515625 C22.83232422 43.13400391 22.83232422 43.13400391 23 44 C22.01 44 21.02 44 20 44 C18.26790559 41.56953004 16.77999427 39.21112103 15.3125 36.625 C14.87550781 35.86638672 14.43851562 35.10777344 13.98828125 34.32617188 C10.89068273 28.83783962 8.08999045 23.24431788 5.5 17.5 C5.17427002 16.78408691 4.84854004 16.06817383 4.51293945 15.33056641 C2.33461937 10.32592663 1.00915102 5.35915602 0 0 Z " fill="#351A17" transform="translate(403,496)"/>
<path d="M0 0 C0.33 0.99 0.66 1.98 1 3 C0.3503125 3.5259375 0.3503125 3.5259375 -0.3125 4.0625 C-2.2481383 6.08497522 -2.2481383 6.08497522 -3.5 9.5 C-4.84563096 12.63980557 -5.65755756 13.76403222 -8 16 C-8.71447643 18.10332891 -8.71447643 18.10332891 -9 20 C-9.66 20 -10.32 20 -11 20 C-11.2475 20.78375 -11.495 21.5675 -11.75 22.375 C-12.74233125 25.25276064 -13.82750333 28.00813297 -15 30.8125 C-16.89353823 35.47947341 -18.03186033 40.07303176 -19 45 C-19.73022707 48.14468753 -20.75714795 51.01715508 -22 54 C-22.33 54 -22.66 54 -23 54 C-23.29799577 48.33063055 -22.35032599 43.9056811 -20.5 38.5625 C-20.23300293 37.78116699 -19.96600586 36.99983398 -19.69091797 36.19482422 C-15.39360493 24.04405503 -9.25002072 9.25002072 0 0 Z " fill="#1C1513" transform="translate(523,275)"/>
<path d="M0 0 C0.99 0.99 1.98 1.98 3 3 C2.34 3 1.68 3 1 3 C0.7834375 4.11375 0.7834375 4.11375 0.5625 5.25 C0 8 0 8 -0.625 10.0625 C-1.06506291 12.33615837 -0.70205558 13.81582708 0 16 C0.45375 15.34 0.9075 14.68 1.375 14 C1.91125 13.34 2.4475 12.68 3 12 C3.66 12 4.32 12 5 12 C4.34 14.31 3.68 16.62 3 19 C-0.63 19 -4.26 19 -8 19 C-8.99 21.475 -8.99 21.475 -10 24 C-10.66 24 -11.32 24 -12 24 C-11.38389918 20.40197119 -9.87986779 18.25747072 -7.6875 15.375 C-4.17389371 10.5166802 -1.9363423 5.65267628 0 0 Z " fill="#333D3F" transform="translate(625,539)"/>
<path d="M0 0 C0.33 2.31 0.66 4.62 1 7 C-4.30180097 7.1232977 -8.89685321 6.32303806 -14 5 C-13.375 2.625 -13.375 2.625 -12 0 C-7.39323627 -2.40808104 -4.69592442 -2.01253904 0 0 Z " fill="#521513" transform="translate(718,437)"/>
<path d="M0 0 C0.33 0 0.66 0 1 0 C1.01981934 0.76030518 1.03963867 1.52061035 1.06005859 2.30395508 C1.15634132 5.80710352 1.26559566 9.30973775 1.375 12.8125 C1.4059375 14.00810547 1.436875 15.20371094 1.46875 16.43554688 C1.11629486 28.40492345 1.11629486 28.40492345 5 39 C5.07179964 40.51928038 5.08392007 42.04167482 5.0625 43.5625 C5.05347656 44.38878906 5.04445313 45.21507812 5.03515625 46.06640625 C5.02355469 46.70449219 5.01195312 47.34257812 5 48 C-2.31884805 40.68115195 -1.03964618 24.80962759 -1.125 15.25 C-1.09307002 10.07202205 -0.8339557 5.10797868 0 0 Z " fill="#4E2825" transform="translate(550,270)"/>
<path d="M0 0 C0.66 0.33 1.32 0.66 2 1 C3.26641044 7.01544959 2.87940786 11.16394401 1 17 C0.34 17.99 -0.32 18.98 -1 20 C-1.66 20 -2.32 20 -3 20 C-5.08379509 23.84700632 -6.49686624 27.90054429 -8 32 C-8.99 31.67 -9.98 31.34 -11 31 C-10.34 30.67 -9.68 30.34 -9 30 C-7.93649103 24.05359768 -7.52593481 17.89626078 -9 12 C-7.02 13.65 -5.04 15.3 -3 17 C-2.34 16.67 -1.68 16.34 -1 16 C-0.30662208 12.9600352 -0.30662208 12.9600352 0.125 9.4375 C0.29257812 8.23996094 0.46015625 7.04242187 0.6328125 5.80859375 C0.75398437 4.88175781 0.87515625 3.95492187 1 3 C0.34 2.67 -0.32 2.34 -1 2 C-0.67 1.34 -0.34 0.68 0 0 Z " fill="#DEE7E4" transform="translate(662,517)"/>
<path d="M0 0 C0.66 0 1.32 0 2 0 C5.25375618 5.63150107 8.25828357 11.38242264 11.1875 17.1875 C11.53232422 17.86425781 11.87714844 18.54101562 12.23242188 19.23828125 C14.16048667 23.08686459 15.74634628 26.86615722 17 31 C17.66 31 18.32 31 19 31 C20.5 38.5 20.5 38.5 22 46 C21.34 46 20.68 46 20 46 C19.41605469 44.16501953 19.41605469 44.16501953 18.8203125 42.29296875 C14.37565561 28.76004418 8.69395414 16.22173007 1.203125 4.08984375 C0 2 0 2 0 0 Z " fill="#14100F" transform="translate(609,414)"/>
<path d="M0 0 C2.50175486 3.14577096 3.37612215 4.68886677 3.25 8.75 C3.22035156 9.71035156 3.19070313 10.67070313 3.16015625 11.66015625 C3.10730469 12.76230469 3.05445313 13.86445312 3 15 C2.95746094 16.31871094 2.91492188 17.63742187 2.87109375 18.99609375 C2.5871211 26.1212258 2.12888594 32.47015109 -1 39 C-1.33 39 -1.66 39 -2 39 C-2.02715383 37.25008666 -2.04646551 35.50005055 -2.0625 33.75 C-2.07410156 32.77546875 -2.08570313 31.8009375 -2.09765625 30.796875 C-2 28 -2 28 -1.51367188 26.17773438 C-0.89288961 23.54590082 -0.78420751 21.06157312 -0.68359375 18.359375 C-0.62075195 16.75449219 -0.62075195 16.75449219 -0.55664062 15.1171875 C-0.51732422 14.00601563 -0.47800781 12.89484375 -0.4375 11.75 C-0.39431641 10.62335937 -0.35113281 9.49671875 -0.30664062 8.3359375 C-0.20067985 5.55741046 -0.09860858 2.77879609 0 0 Z " fill="#41100F" transform="translate(524,562)"/>
<path d="M0 0 C0.825 0.144375 1.65 0.28875 2.5 0.4375 C1.901875 0.705625 1.30375 0.97375 0.6875 1.25 C-1.47224808 2.42243467 -2.85790256 3.63119282 -4.5 5.4375 C-3.24458443 7.94833114 -1.99936512 8.30875446 0.5 9.4375 C0.5 10.0975 0.5 10.7575 0.5 11.4375 C-2.76281174 13.61270782 -3.7340908 13.71994319 -7.5 13.4375 C-8.49 13.1075 -9.48 12.7775 -10.5 12.4375 C-10.83 10.7875 -11.16 9.1375 -11.5 7.4375 C-4.60284464 0.57535558 -4.60284464 0.57535558 0 0 Z " fill="#360F0F" transform="translate(709.5,434.5625)"/>
<path d="M0 0 C0.66 0 1.32 0 2 0 C2.4264822 12.33639261 1.23718792 23.86858215 -1 36 C-1.66 35.67 -2.32 35.34 -3 35 C-3.09667743 29.39270928 -2.77230769 24.33057692 -1.5 18.84375 C-0.84746919 15.132481 -0.64240863 11.44639768 -0.4375 7.6875 C-0.39431641 6.94693359 -0.35113281 6.20636719 -0.30664062 5.44335938 C-0.20129568 3.62908536 -0.10021684 1.8145645 0 0 Z " fill="#39241F" transform="translate(667,436)"/>
<path d="M0 0 C8.93688232 3.96537163 15.11837962 13.53694946 21 21 C21.62777344 21.79535156 22.25554688 22.59070313 22.90234375 23.41015625 C27 28.72264706 27 28.72264706 27 31 C26.34 31 25.68 31 25 31 C23.5 28.5 23.5 28.5 22 26 C21.175 25.175 20.35 24.35 19.5 23.5 C17.10695604 21.10695604 15.70505545 18.89118098 14 16 C12.68945377 14.64426252 11.35251497 13.31387169 10 12 C9.04022851 10.79280867 8.08201044 9.58438134 7.125 8.375 C4.43496814 5.17029367 2.16742615 3.89301989 -2 3 C-1.34 2.01 -0.68 1.02 0 0 Z " fill="#AB7851" transform="translate(606,299)"/>
<path d="M0 0 C0.33 0.66 0.66 1.32 1 2 C0.1875 4.3125 0.1875 4.3125 -1 7 C-1.33 7.86625 -1.66 8.7325 -2 9.625 C-3 12 -3 12 -5 15 C-4.34 15 -3.68 15 -3 15 C-3 15.66 -3 16.32 -3 17 C-4.6210103 17.69685498 -6.24696066 18.38222861 -7.875 19.0625 C-8.77992188 19.44535156 -9.68484375 19.82820312 -10.6171875 20.22265625 C-13 21 -13 21 -15 20 C-14.41992188 19.31035156 -13.83984375 18.62070312 -13.2421875 17.91015625 C-8.45180868 12.14747281 -3.99367458 6.34289492 0 0 Z " fill="#1A1D20" transform="translate(571,586)"/>
<path d="M0 0 C3.03454359 1.5172718 3.57376446 3.97638065 5 7 C5.556875 8.0725 6.11375 9.145 6.6875 10.25 C8 13 8 13 8 15 C8.99 15 9.98 15 11 15 C11.31319144 16.39567835 11.62551788 17.79155082 11.9375 19.1875 C12.12183594 20.00605469 12.30617188 20.82460938 12.49609375 21.66796875 C12.87807489 23.43574195 13.20267264 25.21603584 13.5 27 C13.665 27.66 13.83 28.32 14 29 C14.66 29.33 15.32 29.66 16 30 C16 31.98 16 33.96 16 36 C15.01 36.495 15.01 36.495 14 37 C13.82460693 36.43192627 13.64921387 35.86385254 13.46850586 35.27856445 C10.19508422 24.78813352 6.9423578 14.87269591 1.28515625 5.3984375 C0 3 0 3 0 0 Z " fill="#EFE2D3" transform="translate(544,473)"/>
<path d="M0 0 C-0.27714844 0.67160156 -0.55429687 1.34320313 -0.83984375 2.03515625 C-2.18377134 5.46963787 -3.38820502 8.94249151 -4.5625 12.4375 C-4.78357422 13.08009766 -5.00464844 13.72269531 -5.23242188 14.38476562 C-6.52693136 18.23700683 -7.44628329 21.97466619 -8 26 C-8.33 25.34 -8.66 24.68 -9 24 C-9.99 23.67 -10.98 23.34 -12 23 C-11.566875 21.9790625 -11.566875 21.9790625 -11.125 20.9375 C-9.26140314 16.07144153 -7.93168553 11.12427042 -7 6 C-6.34 6 -5.68 6 -5 6 C-5 4.68 -5 3.36 -5 2 C-2 0 -2 0 0 0 Z " fill="#334A4F" transform="translate(660,497)"/>
<path d="M0 0 C0.66 0 1.32 0 2 0 C1.41724369 4.47153402 0.59540936 8.75431666 -0.5 13.125 C-2.61088711 22.63943751 -2.74834386 32.28690719 -3 42 C-3.33 42 -3.66 42 -4 42 C-4.10034954 37.94742247 -4.1721497 33.89534521 -4.21972656 29.84179688 C-4.23959978 28.46862156 -4.26670858 27.09552804 -4.30175781 25.72265625 C-4.53458336 16.3548518 -3.62875078 8.67709178 0 0 Z " fill="#EBEAE2" transform="translate(501,311)"/>
<path d="M0 0 C4.80625164 3.60468873 8.22103394 7.68277922 11.8984375 12.41796875 C14.99608913 16.22381954 18.44978034 19.61973766 22 23 C21.67 23.66 21.34 24.32 21 25 C20.34 25 19.68 25 19 25 C19 24.34 19 23.68 19 23 C18.34 23 17.68 23 17 23 C17 22.01 17 21.02 17 20 C16.01 20 15.02 20 14 20 C14 19.34 14 18.68 14 18 C13.01 17.67 12.02 17.34 11 17 C9.8125 14.9375 9.8125 14.9375 9 13 C8.34 13 7.68 13 7 13 C6.67 11.35 6.34 9.7 6 8 C5.01 7.67 4.02 7.34 3 7 C2.67 6.01 2.34 5.02 2 4 C1.01 3.34 0.02 2.68 -1 2 C-0.67 1.34 -0.34 0.68 0 0 Z " fill="#EFECE7" transform="translate(525,419)"/>
<path d="M0 0 C1 3 1 3 0.125 5.125 C-1 7 -1 7 -2 8 C-2.7074422 9.34385607 -3.39198612 10.69984276 -4.0625 12.0625 C-4.60583984 13.16271484 -4.60583984 13.16271484 -5.16015625 14.28515625 C-5.43730469 14.85105469 -5.71445312 15.41695312 -6 16 C-6.99 14.68 -7.98 13.36 -9 12 C-9.99 13.32 -10.98 14.64 -12 16 C-12.99 15.67 -13.98 15.34 -15 15 C-11.60955398 10.65599103 -7.97012263 7.08171023 -3.76953125 3.515625 C-1.91655093 1.96792368 -1.91655093 1.96792368 0 0 Z " fill="#DFE4E2" transform="translate(611,572)"/>
<path d="M0 0 C3.89675935 3.66794608 6.93520306 7.47429028 9.875 11.9375 C10.30409668 12.58340088 10.73319336 13.22930176 11.17529297 13.89477539 C15.36091897 20.32621378 18.76470282 27.04732494 22 34 C21.34 34.66 20.68 35.32 20 36 C19.76925781 35.45472656 19.53851562 34.90945313 19.30078125 34.34765625 C17.1289361 29.32580087 14.71804714 24.56967689 11.953125 19.84765625 C11 18 11 18 11 16 C10.01 15.67 9.02 15.34 8 15 C6.98609489 13.29925594 5.97902561 11.59272008 5.05078125 9.84375 C3.93074813 7.75923934 3.93074813 7.75923934 1.75 5.25 C0 3 0 3 0 0 Z " fill="#D0A27C" transform="translate(530,456)"/>
<path d="M0 0 C2.68860152 0.3584802 3.75477186 0.70773321 5.52734375 2.8203125 C5.99269531 3.58085937 6.45804688 4.34140625 6.9375 5.125 C7.44410156 5.93066406 7.95070313 6.73632812 8.47265625 7.56640625 C8.97667969 8.36949219 9.48070312 9.17257812 10 10 C11.63746556 12.35572721 13.31837059 14.67539464 15 17 C14.34 17.66 13.68 18.32 13 19 C9.58072444 16.75978498 8.01195982 14.52092968 6 11 C5.319375 10.195625 4.63875 9.39125 3.9375 8.5625 C1.83746133 5.78502951 0.93047244 3.33419291 0 0 Z " fill="#502A1E" transform="translate(551,370)"/>
<path d="M0 0 C4.73038036 3.78430429 4.73038036 3.78430429 5.4375 6.97265625 C5.53752011 10.31707878 5.2268384 12.62193599 3.5 15.5 C3.005 15.995 2.51 16.49 2 17 C0.90341064 13.71023192 1.20046862 12.28696233 2 9 C0.906875 9.061875 -0.18625 9.12375 -1.3125 9.1875 C-5 9 -5 9 -6.9375 7.5 C-7.4634375 6.7575 -7.4634375 6.7575 -8 6 C-7.01 5.34 -6.02 4.68 -5 4 C-5 4.66 -5 5.32 -5 6 C-3.02 6 -1.04 6 1 6 C0.67 4.02 0.34 2.04 0 0 Z " fill="#3E1E1E" transform="translate(718,438)"/>
<path d="M0 0 C0.66 0.33 1.32 0.66 2 1 C3.28317892 4.84953676 3.06643637 7.94738135 3 12 C-1.75 13 -1.75 13 -4 13 C-3.71682074 11.39431334 -3.42312209 9.79047953 -3.125 8.1875 C-2.96257813 7.29417969 -2.80015625 6.40085937 -2.6328125 5.48046875 C-2 3 -2 3 0 0 Z " fill="#D9DBD7" transform="translate(546,253)"/>
<path d="M0 0 C0.33 0 0.66 0 1 0 C0.35224238 9.71636432 -1.93562832 19.20295069 -8 27 C-7.67 27.66 -7.34 28.32 -7 29 C-7.99 29 -8.98 29 -10 29 C-10 27.35 -10 25.7 -10 24 C-9.35546875 23.76539063 -8.7109375 23.53078125 -8.046875 23.2890625 C-5.7922092 22.18838927 -5.7922092 22.18838927 -5.390625 19.8359375 C-5.34421875 19.02382813 -5.2978125 18.21171875 -5.25 17.375 C-5.19328125 16.55773437 -5.1365625 15.74046875 -5.078125 14.8984375 C-5.05234375 14.27195312 -5.0265625 13.64546875 -5 13 C-4.34 13 -3.68 13 -3 13 C-2.86722656 12.31292969 -2.73445312 11.62585938 -2.59765625 10.91796875 C-2.42105469 10.01691406 -2.24445312 9.11585938 -2.0625 8.1875 C-1.80146484 6.84751953 -1.80146484 6.84751953 -1.53515625 5.48046875 C-1 3 -1 3 0 0 Z " fill="#F0DEC2" transform="translate(521,591)"/>
<path d="M0 0 C3 1 3 1 4 3 C4.99 3.33 5.98 3.66 7 4 C7.6875 6.0625 7.6875 6.0625 8 8 C8.66 8 9.32 8 10 8 C11.5859375 9.7578125 11.5859375 9.7578125 13.375 12.125 C13.99503906 12.94226563 14.61507812 13.75953125 15.25390625 14.6015625 C16.66476233 16.53951694 18.01190596 18.48776016 19.3125 20.5 C20.75886988 23.08407699 20.75886988 23.08407699 23 24 C22.67 25.32 22.34 26.64 22 28 C21.65332275 27.53215088 21.30664551 27.06430176 20.94946289 26.58227539 C11.95192208 14.44422642 11.95192208 14.44422642 1.51171875 3.56640625 C0 2 0 2 0 0 Z " fill="#F4EAD8" transform="translate(517,440)"/>
<path d="M0 0 C0.33 0 0.66 0 1 0 C1.12117188 0.96679688 1.24234375 1.93359375 1.3671875 2.9296875 C2.23236378 9.6514417 3.12241152 16.25737099 4.73046875 22.8515625 C5.05406116 25.4309223 4.62071221 27.49073787 4 30 C3.67 30 3.34 30 3 30 C2.32163757 27.02307914 1.65715348 24.04411189 1 21.0625 C0.80921875 20.23169922 0.6184375 19.40089844 0.421875 18.54492188 C-2.52057927 5.04115854 -2.52057927 5.04115854 0 0 Z " fill="#623A34" transform="translate(424,398)"/>
<path d="M0 0 C0.99 0.33 1.98 0.66 3 1 C4.43586627 7.70070926 3.68423794 11.2594432 0 17 C-2 20 -2 20 -4 22 C-5.32 22 -6.64 22 -8 22 C-8 21.34 -8 20.68 -8 20 C-7.236875 19.4225 -6.47375 18.845 -5.6875 18.25 C-2.52372954 15.60126194 -1.37030754 13.89455827 0 10 C0.23072558 6.64946335 0.17885933 3.3519564 0 0 Z " fill="#DCDEDC" transform="translate(722,441)"/>
<path d="M0 0 C0.66 0 1.32 0 2 0 C2.67608269 2.85222385 3.34105115 5.70631293 4 8.5625 C4.19078125 9.36236328 4.3815625 10.16222656 4.578125 10.98632812 C5.67461122 15.78345532 6.21132197 20.08016034 6 25 C5.34 25 4.68 25 4 25 C3.87882813 24.01257813 3.75765625 23.02515625 3.6328125 22.0078125 C3.46523438 20.72648438 3.29765625 19.44515625 3.125 18.125 C2.96257813 16.84882812 2.80015625 15.57265625 2.6328125 14.2578125 C2.30122527 10.92835773 2.30122527 10.92835773 0 9 C-0.1953125 6.8359375 -0.1953125 6.8359375 -0.125 4.375 C-0.10695313 3.55773437 -0.08890625 2.74046875 -0.0703125 1.8984375 C-0.04710937 1.27195312 -0.02390625 0.64546875 0 0 Z " fill="#E0DEDA" transform="translate(580,498)"/>
<path d="M0 0 C2.95174694 3.48680681 4.57803091 7.38839739 6.3125 11.5625 C9.16501528 18.27177538 12.34635408 24.68307373 16 31 C15.01 31 14.02 31 13 31 C8.47931214 25.92171 6.11576098 18.93094143 3.6875 12.6875 C3.14899414 11.34848633 3.14899414 11.34848633 2.59960938 9.98242188 C0 3.40169643 0 3.40169643 0 0 Z " fill="#E7E4E1" transform="translate(503,379)"/>
<path d="M0 0 C2.23489174 3.35233761 2.24725489 4.45371229 2.23046875 8.3671875 C2.22853516 9.41777344 2.22660156 10.46835937 2.22460938 11.55078125 C2.21236328 12.64777344 2.20011719 13.74476563 2.1875 14.875 C2.18685547 15.96425781 2.18621094 17.05351562 2.18554688 18.17578125 C2.1593281 22.93594617 2.061394 27.34257137 1 32 C0.67 32 0.34 32 0 32 C-0.98573448 26.25770547 -1.1507886 20.69462659 -1.125 14.875 C-1.12886719 13.99457031 -1.13273437 13.11414063 -1.13671875 12.20703125 C-1.13039223 8.01254718 -1.06862423 4.08791174 0 0 Z " fill="#DAC8B5" transform="translate(425,373)"/>
<path d="M0 0 C0.99 0.33 1.98 0.66 3 1 C6.33324384 8.46418706 6.62904778 16.95417416 7 25 C6.01 24.67 5.02 24.34 4 24 C3.91435791 23.41508789 3.82871582 22.83017578 3.74047852 22.22753906 C3.34988922 19.56805057 2.95622627 16.90902581 2.5625 14.25 C2.42779297 13.32960938 2.29308594 12.40921875 2.15429688 11.4609375 C2.02216797 10.57148438 1.89003906 9.68203125 1.75390625 8.765625 C1.63345947 7.94868164 1.5130127 7.13173828 1.38891602 6.29003906 C1.02650674 4.15607862 0.55629595 2.09083307 0 0 Z " fill="#3A1F21" transform="translate(633,437)"/>
<path d="M0 0 C1.32 0 2.64 0 4 0 C5.18414294 3.55242882 4.69535532 4.69830562 3.5625 8.1875 C3.27503906 9.08855469 2.98757813 9.98960937 2.69140625 10.91796875 C2.46324219 11.60503906 2.23507812 12.29210937 2 13 C1.34 13 0.68 13 0 13 C-0.12375 11.865625 -0.2475 10.73125 -0.375 9.5625 C-0.58125 8.386875 -0.7875 7.21125 -1 6 C-1.66 5.67 -2.32 5.34 -3 5 C-1.75 2.5 -1.75 2.5 0 0 Z " fill="#CFC1A5" transform="translate(445,318)"/>
<path d="M0 0 C0.33 0 0.66 0 1 0 C1.33 5.61 1.66 11.22 2 17 C1.34 15.68 0.68 14.36 0 13 C-2.0927121 16.69599959 -2.37896498 19.80342291 -2.65625 23.9765625 C-3 26 -3 26 -5 28 C-4.88608368 25.39491364 -4.75934452 22.79154454 -4.625 20.1875 C-4.5940625 19.44951172 -4.563125 18.71152344 -4.53125 17.95117188 C-4.30417931 13.76928665 -4.09749822 11.09749822 -1 8 C-0.76924918 6.65252916 -0.58846937 5.29622435 -0.4375 3.9375 C-0.293125 2.638125 -0.14875 1.33875 0 0 Z " fill="#1F161B" transform="translate(548,284)"/>
<path d="M0 0 C0.66 0 1.32 0 2 0 C2 0.66 2 1.32 2 2 C2.99 2 3.98 2 5 2 C3.43813282 6.21704138 0.44522782 8.2578799 -3 11 C-4.01680311 11.98290968 -5.02738219 12.97334787 -6 14 C-4.98362463 8.91812314 -2.86190603 4.29285904 0 0 Z " fill="#364847" transform="translate(603,572)"/>
<path d="M0 0 C2.21987846 2.21987846 2.48842399 3.23087887 3.21875 6.2109375 C3.53392578 7.46003906 3.53392578 7.46003906 3.85546875 8.734375 C4.06816406 9.60578125 4.28085937 10.4771875 4.5 11.375 C4.92288867 13.09218429 5.34983762 14.8083748 5.78125 16.5234375 C5.96751953 17.28575684 6.15378906 18.04807617 6.34570312 18.83349609 C7.24689849 21.8175288 8.63766419 24.37067991 10.1875 27.0625 C11 29 11 29 10 32 C-0.41779857 10.78241691 -0.41779857 10.78241691 0 0 Z " fill="#F1E1D2" transform="translate(475,367)"/>
<path d="M0 0 C0.66 0.33 1.32 0.66 2 1 C2.20140476 4.62528568 1.85776765 6.86501708 0 10 C-0.66 10 -1.32 10 -2 10 C-2.33 8.68 -2.66 7.36 -3 6 C-3.66 6 -4.32 6 -5 6 C-5.68707555 8.49064888 -6 10.37886292 -6 13 C-6.99 13.33 -7.98 13.66 -9 14 C-9.38613383 11.37428995 -9.38493778 9.6156121 -7.95703125 7.33203125 C-6.625 5.6875 -6.625 5.6875 -4 3 C-3.34 3 -2.68 3 -2 3 C-1.34 2.01 -0.68 1.02 0 0 Z " fill="#DEE7EE" transform="translate(629,554)"/>
<path d="M0 0 C0.33 0.66 0.66 1.32 1 2 C-0.14453125 4.78515625 -0.14453125 4.78515625 -1.8125 8.0625 C-2.35519531 9.14660156 -2.89789063 10.23070312 -3.45703125 11.34765625 C-5 14 -5 14 -7 15 C-8.74199701 18.58646443 -9.45119974 22.06693147 -10 26 C-10.33 26 -10.66 26 -11 26 C-11.19294408 21.17639811 -10.75747614 17.50353262 -9 13 C-8.34 13 -7.68 13 -7 13 C-6.82984375 12.39671875 -6.6596875 11.7934375 -6.484375 11.171875 C-5.06451752 6.48936628 -3.96781594 3.14688851 0 0 Z " fill="#724B2F" transform="translate(438,328)"/>
<path d="M0 0 C0.66796875 1.73046875 0.66796875 1.73046875 1 4 C-0.07421875 6.11328125 -0.07421875 6.11328125 -1.6875 8.3125 C-7.06533225 15.58233661 -7.06533225 15.58233661 -10 24 C-10.66 23.67 -11.32 23.34 -12 23 C-11.43458046 17.95090275 -9.05771283 14.12738291 -6.5625 9.8125 C-6.15451172 9.08869141 -5.74652344 8.36488281 -5.32617188 7.61914062 C-2.28376962 2.28376962 -2.28376962 2.28376962 0 0 Z " fill="#865A3D" transform="translate(425,332)"/>
<path d="M0 0 C0.33 0.66 0.66 1.32 1 2 C0.071875 3.2684375 0.071875 3.2684375 -0.875 4.5625 C-2.599003 7.10028064 -3.17160216 8.64350811 -4 11.75 C-5 15 -5 15 -7 16.0625 C-7.99 16.5265625 -7.99 16.5265625 -9 17 C-9.72693904 18.97888961 -10.39816251 20.97954558 -11 23 C-11.66 23.33 -12.32 23.66 -13 24 C-11.63438027 19.51779267 -9.85253146 15.55697412 -7.625 11.4375 C-7.03976562 10.34308594 -6.45453125 9.24867188 -5.8515625 8.12109375 C-4.10460465 5.17632724 -2.20744185 2.61100501 0 0 Z " fill="#8E522E" transform="translate(457,313)"/>
<path d="M0 0 C0.75 1.625 0.75 1.625 1 4 C-1.68568804 8.83423847 -5.33962175 12.87597383 -9 17 C-9.66 16.67 -10.32 16.34 -11 16 C-9.07517084 9.33712984 -9.07517084 9.33712984 -6 7 C-5.01 6.67 -4.02 6.34 -3 6 C-1.29144978 2.99992729 -1.29144978 2.99992729 0 0 Z " fill="#44402F" transform="translate(542,586)"/>
<path d="M0 0 C0.99 0.33 1.98 0.66 3 1 C2.030625 1.639375 1.06125 2.27875 0.0625 2.9375 C-2.76036269 4.6965259 -2.76036269 4.6965259 -4 6 C-4.42914385 11.3892484 -4.39042916 16.06973985 -2 21 C-2 21.99 -2 22.98 -2 24 C-6.21744844 18.83022449 -7.39777523 16.18442015 -7.359375 9.55078125 C-6.78039966 5.44131496 -5.00085071 3.78650423 -2 1 C-1.34 0.67 -0.68 0.34 0 0 Z " fill="#200909" transform="translate(346,435)"/>
<path d="M0 0 C1 3 1 3 0 6 C-0.66 6 -1.32 6 -2 6 C-2.10183594 6.64324219 -2.20367187 7.28648437 -2.30859375 7.94921875 C-3.23336822 12.02972077 -4.64233121 15.88149915 -6.0625 19.8125 C-6.34416016 20.60076172 -6.62582031 21.38902344 -6.91601562 22.20117188 C-7.60758538 24.13522289 -8.30337278 26.06776488 -9 28 C-9.33 28 -9.66 28 -10 28 C-9.47969028 22.28293835 -8.35214472 17.58703054 -6.125 12.3125 C-5.86847656 11.67505859 -5.61195313 11.03761719 -5.34765625 10.38085938 C-3.84279584 6.71701582 -2.13122934 3.33722438 0 0 Z " fill="#EBDFCF" transform="translate(487,292)"/>
<path d="M0 0 C4.23811258 1.43325262 7.19174028 3.52813725 10.625 6.375 C11.56601562 7.14585937 12.50703125 7.91671875 13.4765625 8.7109375 C15.66473077 10.69587033 17.34552063 12.56824845 19 15 C17.02 15.33 15.04 15.66 13 16 C13.33 14.68 13.66 13.36 14 12 C13.01 11.67 12.02 11.34 11 11 C9.64631404 9.68733482 8.31200404 8.35432675 7 7 C6.34 6.67 5.68 6.34 5 6 C3.23835014 4.07286182 1.64270227 2.03176334 0 0 Z " fill="#A77249" transform="translate(587,284)"/>
<path d="M0 0 C0.66 0.33 1.32 0.66 2 1 C2 1.99 2 2.98 2 4 C2.66 4 3.32 4 4 4 C4 4.66 4 5.32 4 6 C4.66 6.33 5.32 6.66 6 7 C10 13.35294118 10 13.35294118 10 17 C10.66 17 11.32 17 12 17 C12 19.31 12 21.62 12 24 C9.53028711 20.29543066 7.67199517 16.35793025 5.7421875 12.35742188 C3.76253492 8.32431387 1.55695565 4.67773576 -1 1 C-0.67 0.67 -0.34 0.34 0 0 Z " fill="#76392C" transform="translate(502,504)"/>
<path d="M0 0 C1.91893686 0.72386942 3.81021223 1.52022489 5.6953125 2.328125 C5.3653125 3.648125 5.0353125 4.968125 4.6953125 6.328125 C3.4578125 5.338125 3.4578125 5.338125 2.1953125 4.328125 C-1.74519913 1.70111725 -4.63901127 1.88377488 -9.3046875 2.328125 C-12.18683637 3.21027387 -12.18683637 3.21027387 -14.3046875 4.328125 C-11.48983258 -1.90476804 -6.13754347 -1.78924996 0 0 Z " fill="#E9E5DD" transform="translate(715.3046875,433.671875)"/>
<path d="M0 0 C0.99 0.33 1.98 0.66 3 1 C-0.65930433 4.02249033 -4.7139878 6.02286904 -8.9375 8.125 C-9.64068359 8.48464844 -10.34386719 8.84429687 -11.06835938 9.21484375 C-14.69518544 11.02995632 -17.92755467 12.47400902 -22 13 C-19.23873151 7.47746302 -7.68393237 4.19272391 -2 2 C-1.34 2 -0.68 2 0 2 C0 1.34 0 0.68 0 0 Z " fill="#ECDFCA" transform="translate(502,266)"/>
<path d="M0 0 C0.66 0 1.32 0 2 0 C0.3523657 6.09624689 -2.65811611 11.66933194 -6 17 C-6.66 17.33 -7.32 17.66 -8 18 C-7.19505871 12.23125411 -6.2489151 8.07187697 -2 4 C-0.82425289 1.90010348 -0.82425289 1.90010348 0 0 Z " fill="#EFEDE1" transform="translate(577,570)"/>
<path d="M0 0 C0.66 0 1.32 0 2 0 C2.77734375 2.10546875 2.77734375 2.10546875 3 5 C1.59744388 7.33368942 0.27416479 9.23783119 -1.4375 11.3125 C-2.0881543 12.13717773 -2.0881543 12.13717773 -2.75195312 12.97851562 C-3.82119504 14.32975541 -4.90885811 15.66638214 -6 17 C-6.33 16.01 -6.66 15.02 -7 14 C-6.07726069 12.28634127 -5.1434706 10.57651984 -4.125 8.91796875 C-2.44725077 6.05763933 -1.25204947 3.0675212 0 0 Z " fill="#D6D1C9" transform="translate(612,554)"/>
<path d="M0 0 C3.32232051 2.21488034 3.5710244 2.86111657 4.6875 6.5 C4.93886719 7.2940625 5.19023437 8.088125 5.44921875 8.90625 C6 11 6 11 6 13 C6.66 13.33 7.32 13.66 8 14 C8.625 17.0625 8.625 17.0625 9 20 C8.01 19.67 7.02 19.34 6 19 C4.79135063 16.37096707 3.76978343 13.84321221 2.8125 11.125 C2.40354492 10.02478516 2.40354492 10.02478516 1.98632812 8.90234375 C0.86711954 5.82241637 0 3.30081542 0 0 Z " fill="#43201E" transform="translate(403,496)"/>
<path d="M0 0 C0 0.66 0 1.32 0 2 C0.66 2 1.32 2 2 2 C1.67 2.99 1.34 3.98 1 5 C-0.32488113 5.36548445 -1.66018514 5.6937566 -3 6 C-3.680625 6.515625 -4.36125 7.03125 -5.0625 7.5625 C-7 9 -7 9 -10 9 C-8.13405729 4.41995879 -5.20913241 0 0 0 Z " fill="#E8E7E6" transform="translate(533,604)"/>
<path d="M0 0 C0.66 0.33 1.32 0.66 2 1 C1.01 3.64 0.02 6.28 -1 9 C-1.66 8.34 -2.32 7.68 -3 7 C-5.64 8.98 -8.28 10.96 -11 13 C-11.66 12.67 -12.32 12.34 -13 12 C-4.738041 3.55353075 -4.738041 3.55353075 0 0 Z " fill="#0E100F" transform="translate(544,253)"/>
<path d="M0 0 C11.71428571 7.42857143 11.71428571 7.42857143 14 12 C13.67 12.66 13.34 13.32 13 14 C12.34 14 11.68 14 11 14 C11 13.01 11 12.02 11 11 C10.01 11 9.02 11 8 11 C8 10.34 8 9.68 8 9 C7.34 9 6.68 9 6 9 C4.4921875 7.5390625 4.4921875 7.5390625 2.875 5.625 C2.06675781 4.68527344 2.06675781 4.68527344 1.2421875 3.7265625 C0 2 0 2 0 0 Z " fill="#6A362B" transform="translate(567,391)"/>
<path d="M0 0 C0.33 0.99 0.66 1.98 1 3 C0.3503125 3.5259375 0.3503125 3.5259375 -0.3125 4.0625 C-2.2481383 6.08497522 -2.2481383 6.08497522 -3.5 9.5 C-4.84563096 12.63980557 -5.65755756 13.76403222 -8 16 C-8.71447643 18.10332891 -8.71447643 18.10332891 -9 20 C-9.66 20 -10.32 20 -11 20 C-10.47322577 15.0708983 -8.1901882 11.76446042 -5.5 7.75 C-5.08363281 7.11320312 -4.66726563 6.47640625 -4.23828125 5.8203125 C-1.2019604 1.2019604 -1.2019604 1.2019604 0 0 Z " fill="#120D0C" transform="translate(523,275)"/>
<path d="M0 0 C1.2065625 0.0309375 1.2065625 0.0309375 2.4375 0.0625 C3.25 2.25 3.25 2.25 3.4375 5.0625 C1.0625 7.875 1.0625 7.875 -1.5625 10.0625 C-1.8925 10.0625 -2.2225 10.0625 -2.5625 10.0625 C-2.75662181 8.58418779 -2.94262131 7.10480684 -3.125 5.625 C-3.22941406 4.80128906 -3.33382813 3.97757812 -3.44140625 3.12890625 C-3.48136719 2.44699219 -3.52132813 1.76507813 -3.5625 1.0625 C-2.5625 0.0625 -2.5625 0.0625 0 0 Z " fill="#C7925C" transform="translate(490.5625,276.9375)"/>
<path d="M0 0 C6.9309521 3.65332428 13.56852529 7.52178798 20 12 C18.68 12.33 17.36 12.66 16 13 C15.67 12.01 15.34 11.02 15 10 C14.236875 9.855625 13.47375 9.71125 12.6875 9.5625 C8.11682771 8.60584766 6.20660298 7.30680932 3 4 C2.01 3.34 1.02 2.68 0 2 C0 1.34 0 0.68 0 0 Z " fill="#936340" transform="translate(567,271)"/>
<path d="M0 0 C5.55548012 2.45094711 7.95659662 7.01132848 11 12 C10.01 12 9.02 12 8 12 C6.35612569 10.32105637 5.01567221 8.50068732 3.59765625 6.62890625 C1.7645235 4.7599176 0.55139307 4.39125034 -2 4 C-2 3.34 -2 2.68 -2 2 C-1.34 2 -0.68 2 0 2 C0 1.34 0 0.68 0 0 Z " fill="#884D38" transform="translate(446,467)"/>
<path d="M0 0 C1.98 0.99 3.96 1.98 6 3 C6 3.99 6 4.98 6 6 C6.639375 6.2475 7.27875 6.495 7.9375 6.75 C10 8 10 8 10.625 9.875 C10.74875 10.57625 10.8725 11.2775 11 12 C11.63654342 13.3479743 12.29605388 14.68596724 13 16 C8.52366842 13.37258799 6.75892614 11.80773146 5 7 C3.35305515 5.31384218 1.68873879 3.64429829 0 2 C0 1.34 0 0.68 0 0 Z " fill="#381C19" transform="translate(593,378)"/>
<path d="M0 0 C3 1 3 1 4.3515625 3.2578125 C6.70446134 8.55544363 8.61287663 13.1931494 9 19 C6.69091719 16.15147334 5.23981764 13.48437914 3.9375 10.0625 C3.61652344 9.22847656 3.29554688 8.39445312 2.96484375 7.53515625 C2.64644531 6.69855469 2.32804688 5.86195313 2 5 C1.336126 3.33221898 0.67026038 1.66522468 0 0 Z " fill="#E5E3E0" transform="translate(571,477)"/>
<path d="M0 0 C2.8670615 2.8670615 4 4.91591468 4 9 C4.66 9 5.32 9 6 9 C7.4606285 11.64738916 8 12.89448334 8 16 C8.66 16.33 9.32 16.66 10 17 C10.625 19.0625 10.625 19.0625 11 21 C5.54547824 16.5080409 2.60157318 10.49946289 0 4 C0 2.68 0 1.36 0 0 Z " fill="#EDDFD4" transform="translate(437,444)"/>
<path d="M0 0 C0.66 1.32 1.32 2.64 2 4 C2.66 4 3.32 4 4 4 C5 9 6 14 7 19 C6.34 19 5.68 19 5 19 C3.02 13.06 1.04 7.12 -1 1 C-0.67 0.67 -0.34 0.34 0 0 Z " fill="#211D1F" transform="translate(624,441)"/>
<path d="M0 0 C0.33 1.32 0.66 2.64 1 4 C0.01 4.495 0.01 4.495 -1 5 C-1.91031272 7.34386809 -1.91031272 7.34386809 -2.625 10.0625 C-2.88539063 10.98160156 -3.14578125 11.90070313 -3.4140625 12.84765625 C-3.60742188 13.55792969 -3.80078125 14.26820313 -4 15 C-5.32 14.01 -6.64 13.02 -8 12 C-6.54453498 8.60391496 -4.59139701 6.59139701 -2 4 C-0.76487921 1.86690808 -0.76487921 1.86690808 0 0 Z " fill="#B07F4D" transform="translate(451,302)"/>
<path d="M0 0 C2 4 2 4 1.3203125 7.234375 C0.92585937 8.39453125 0.53140625 9.5546875 0.125 10.75 C-0.45894531 12.50570312 -0.45894531 12.50570312 -1.0546875 14.296875 C-1.36664062 15.18890625 -1.67859375 16.0809375 -2 17 C-2.99 17 -3.98 17 -5 17 C-5.33 16.01 -5.66 15.02 -6 14 C-5.34 14 -4.68 14 -4 14 C-4 13.34 -4 12.68 -4 12 C-3.34 12 -2.68 12 -2 12 C-1.34 8.04 -0.68 4.08 0 0 Z " fill="#282F33" transform="translate(638,532)"/>
<path d="M0 0 C0.99 0 1.98 0 3 0 C3.45375 1.134375 3.9075 2.26875 4.375 3.4375 C5.57095806 7.04721692 5.57095806 7.04721692 8 8 C8 8.66 8 9.32 8 10 C8.99 10 9.98 10 11 10 C11 11.65 11 13.3 11 15 C8.12735154 12.2118412 5.35581408 9.36021599 2.6875 6.375 C2.17574219 5.80523437 1.66398438 5.23546875 1.13671875 4.6484375 C0 3 0 3 0 0 Z " fill="#14100F" transform="translate(597,398)"/>
<path d="M0 0 C2 2 2 2 2.9375 4.5625 C3.288125 5.366875 3.63875 6.17125 4 7 C4.99 7.33 5.98 7.66 7 8 C7.144375 9.051875 7.28875 10.10375 7.4375 11.1875 C7.87526966 14.15460549 8.37804866 17.06794366 9 20 C5.7250864 18.3625432 4.84783796 14.88762963 3.375 11.6875 C3.05015625 11.01009766 2.7253125 10.33269531 2.390625 9.63476562 C0.75766908 6.12528264 0 3.93275196 0 0 Z " fill="#EBD5CB" transform="translate(645,345)"/>
<path d="M0 0 C0.66 0.33 1.32 0.66 2 1 C1.278125 1.70125 0.55625 2.4025 -0.1875 3.125 C-2.99823813 5.92770745 -5.49516226 8.92262792 -8 12 C-8 9.33333333 -8 6.66666667 -8 4 C-6.71349294 3.30289269 -5.42059335 2.61757124 -4.125 1.9375 C-3.40570313 1.55464844 -2.68640625 1.17179687 -1.9453125 0.77734375 C-1.30335938 0.52082031 -0.66140625 0.26429688 0 0 Z " fill="#C0976B" transform="translate(503,268)"/>
<path d="M0 0 C2.55375615 3.17494007 4.37447153 6.48103661 6.1875 10.125 C6.71730469 11.17945313 7.24710937 12.23390625 7.79296875 13.3203125 C9 16 9 16 9 18 C8.01 18.33 7.02 18.66 6 19 C5.81824219 18.33613281 5.63648438 17.67226563 5.44921875 16.98828125 C4.08387416 12.19207076 2.63052479 8.2589449 0 4 C0 2.68 0 1.36 0 0 Z " fill="#C79571" transform="translate(480,389)"/>
<path d="M0 0 C3.53365105 5.30047657 4.49541569 10.68344995 4 17 C3.34 17.66 2.68 18.32 2 19 C0.82706111 12.6221448 -0.29530838 6.49678438 0 0 Z " fill="#1E1A17" transform="translate(630,461)"/>
<path d="M0 0 C2.475 0.99 2.475 0.99 5 2 C5.33 4.31 5.66 6.62 6 9 C4.68 9 3.36 9 2 9 C1.34 6.03 0.68 3.06 0 0 Z " fill="#55201F" transform="translate(713,435)"/>
<path d="M0 0 C1.18446753 2.36893505 1.00689755 3.4066826 0.6875 6 C0.60886719 6.70125 0.53023438 7.4025 0.44921875 8.125 C0 10 0 10 -2 12 C-2.71408334 13.98356483 -3.38617742 15.98315437 -4 18 C-4.33 18 -4.66 18 -5 18 C-4.71311275 10.99995111 -3.49595688 6.08973134 0 0 Z " fill="#B9784C" transform="translate(459,310)"/>
<path d="M0 0 C0.33 0.99 0.66 1.98 1 3 C1.66 3 2.32 3 3 3 C5.3992233 7.64849515 5.19957409 11.91086074 5 17 C2.5863604 14.5863604 2.24467148 12.90164101 1.375 9.625 C1.11460937 8.66851562 0.85421875 7.71203125 0.5859375 6.7265625 C0 4 0 4 0 0 Z " fill="#421E1C" transform="translate(550,301)"/>
<path d="M0 0 C0.33 0.99 0.66 1.98 1 3 C0.07421875 4.82421875 0.07421875 4.82421875 -1.3125 6.6875 C-1.76238281 7.31011719 -2.21226562 7.93273437 -2.67578125 8.57421875 C-3.11277344 9.04472656 -3.54976563 9.51523437 -4 10 C-4.66 10 -5.32 10 -6 10 C-6.33 10.99 -6.66 11.98 -7 13 C-7.74609375 11.296875 -7.74609375 11.296875 -8 9 C-6.34765625 6.640625 -6.34765625 6.640625 -4.0625 4.25 C-3.31097656 3.45078125 -2.55945313 2.6515625 -1.78515625 1.828125 C-1.19605469 1.22484375 -0.60695313 0.6215625 0 0 Z " fill="#BD8B5A" transform="translate(479,283)"/>
<path d="M0 0 C0.66 0 1.32 0 2 0 C1.34 2.64 0.68 5.28 0 8 C-0.99 8 -1.98 8 -3 8 C-3.66 9.32 -4.32 10.64 -5 12 C-5.66 12 -6.32 12 -7 12 C-5.6393389 6.80474854 -3.64232612 3.82444243 0 0 Z " fill="#EBEBE8" transform="translate(548,582)"/>
<path d="M0 0 C0.66 1.32 1.32 2.64 2 4 C2.66 4 3.32 4 4 4 C4.061875 4.5775 4.12375 5.155 4.1875 5.75 C5.31484334 8.87187385 7.4164168 9.99772302 10 12 C10.33 12.99 10.66 13.98 11 15 C7.11602311 13.44997253 4.97020381 10.99523379 2.25 7.875 C1.45078125 6.96492188 0.6515625 6.05484375 -0.171875 5.1171875 C-1.07679688 4.06917969 -1.07679688 4.06917969 -2 3 C-1.34 2.67 -0.68 2.34 0 2 C0 1.34 0 0.68 0 0 Z " fill="#885139" transform="translate(474,468)"/>
<path d="M0 0 C0.33 0 0.66 0 1 0 C1.09796875 0.66386719 1.1959375 1.32773437 1.296875 2.01171875 C2.4221159 8.65646029 3.87464398 12.4823521 9.25 16.8125 C9.8275 17.204375 10.405 17.59625 11 18 C6.1565954 17.58485103 4.18412171 15.53791301 1 12 C0.67 11.67 0.34 11.34 0 11 C-0.07226502 9.14712498 -0.0838122 7.29166122 -0.0625 5.4375 C-0.05347656 4.42558594 -0.04445313 3.41367187 -0.03515625 2.37109375 C-0.02355469 1.58863281 -0.01195312 0.80617188 0 0 Z " fill="#ECE2D9" transform="translate(696,444)"/>
<path d="M0 0 C1.32 0.33 2.64 0.66 4 1 C3.35522931 2.62542193 2.70914857 4.25032424 2.0625 5.875 C1.70285156 6.77992188 1.34320313 7.68484375 0.97265625 8.6171875 C0 11 0 11 -1 13 C-1.99 12.67 -2.98 12.34 -4 12 C-2.98907749 9.97815499 -1.98350502 7.9706756 -0.875 6 C0.26721256 3.75306697 0.26721256 3.75306697 0 0 Z " fill="#C58F5F" transform="translate(484,288)"/>
<path d="M0 0 C0 0.66 0 1.32 0 2 C-5.445 3.485 -5.445 3.485 -11 5 C-11 2 -11 2 -10 0.25 C-6.69692681 -1.81442074 -3.74371434 -0.67509603 0 0 Z " fill="#5E2C24" transform="translate(356,435)"/>
<path d="M0 0 C0.66 0.33 1.32 0.66 2 1 C1.24074219 1.61488281 0.48148437 2.22976563 -0.30078125 2.86328125 C-1.29464844 3.67152344 -2.28851563 4.47976563 -3.3125 5.3125 C-4.29863281 6.11300781 -5.28476562 6.91351563 -6.30078125 7.73828125 C-8.31602166 9.42688356 -10.19488009 11.09630699 -12 13 C-12.66 12.67 -13.32 12.34 -14 12 C-13.236875 11.2575 -12.47375 10.515 -11.6875 9.75 C-9.06022111 7.2250042 -9.06022111 7.2250042 -7.5625 4.875 C-5.40980341 2.29176409 -3.08747969 1.24813009 0 0 Z " fill="#EEE4CD" transform="translate(463,290)"/>
<path d="M0 0 C0.33 0.66 0.66 1.32 1 2 C-0.24493748 4.28974316 -1.52641528 6.44190034 -2.9375 8.625 C-3.32357422 9.23601562 -3.70964844 9.84703125 -4.10742188 10.4765625 C-5.06446326 11.9889242 -6.03132811 13.49506117 -7 15 C-8.04449911 11.86650268 -7.93423645 11.01031744 -7 8 C-6.34 8 -5.68 8 -5 8 C-4.67 6.35 -4.34 4.7 -4 3 C-3.34 3 -2.68 3 -2 3 C-1.34 2.01 -0.68 1.02 0 0 Z " fill="#E8DDCC" transform="translate(425,329)"/>
<path d="M0 0 C4.875 2.625 4.875 2.625 6 6 C5.34 6 4.68 6 4 6 C4 5.34 4 4.68 4 4 C3.01 4 2.02 4 1 4 C0.67 7.96 0.34 11.92 0 16 C-0.33 16 -0.66 16 -1 16 C-1.02725341 14.2709226 -1.04650987 12.54171824 -1.0625 10.8125 C-1.07410156 9.84957031 -1.08570313 8.88664062 -1.09765625 7.89453125 C-1.00486622 5.14423487 -0.62111685 2.67520409 0 0 Z " fill="#57332A" transform="translate(552,262)"/>
<path d="M0 0 C0 0.66 0 1.32 0 2 C-0.99 2.495 -0.99 2.495 -2 3 C-2 4.65 -2 6.3 -2 8 C-2.99 8.495 -2.99 8.495 -4 9 C-4.66 8.67 -5.32 8.34 -6 8 C-6 6.35 -6 4.7 -6 3 C-6.66 2.67 -7.32 2.34 -8 2 C-4.91190305 0.23537317 -3.76687864 0 0 0 Z " fill="#CCDAE5" transform="translate(648,533)"/>
<path d="M0 0 C0.33 0 0.66 0 1 0 C1.76681614 8.77578475 1.76681614 8.77578475 -0.11328125 11.77734375 C-1.5 13.125 -1.5 13.125 -4 15 C-2.9318153 9.88634986 -1.76892524 4.92772031 0 0 Z " fill="#16100F" transform="translate(630,524)"/>
<path d="M0 0 C4.25987926 1.41995975 6.10225523 4.25438517 8.125 8.1875 C8.41375 8.785625 8.7025 9.38375 9 10 C9.66 10.66 10.32 11.32 11 12 C10.67 12.99 10.34 13.98 10 15 C8.32742872 12.87941855 6.66184582 10.75395924 5 8.625 C4.28457031 7.72007812 4.28457031 7.72007812 3.5546875 6.796875 C0 2.2265625 0 2.2265625 0 0 Z " fill="#191112" transform="translate(555,450)"/>
<path d="M0 0 C0.68707555 2.49064888 1 4.37886292 1 7 C2.65 7.33 4.3 7.66 6 8 C6 8.33 6 8.66 6 9 C2.95613276 9.08226668 0.92824652 8.97608217 -2 8 C-2.6875 5.6875 -2.6875 5.6875 -3 3 C-1.5625 1.1875 -1.5625 1.1875 0 0 Z " fill="#281011" transform="translate(701,439)"/>
<path d="M0 0 C0.66 0 1.32 0 2 0 C0.44298069 4.67105792 -2.08447373 8.08705685 -5 12 C-5.67578125 10.265625 -5.67578125 10.265625 -6 8 C-4.85546875 5.859375 -4.85546875 5.859375 -3.1875 3.75 C-2.37345703 2.69039062 -2.37345703 2.69039062 -1.54296875 1.609375 C-1.03378906 1.07828125 -0.52460937 0.5471875 0 0 Z " fill="#5C4F46" transform="translate(549,576)"/>
<path d="M0 0 C1 3 1 3 0.125 5.125 C-1.54155257 7.90258761 -1.71475982 7.90491994 -5 9 C-5.99 8.67 -6.98 8.34 -8 8 C-5.36 5.36 -2.72 2.72 0 0 Z " fill="#EBF4E8" transform="translate(611,572)"/>
<path d="M0 0 C0.33 0 0.66 0 1 0 C1.10251672 5.12583611 1.03590199 9.94997778 0 15 C-0.33 14.34 -0.66 13.68 -1 13 C-1.99 12.67 -2.98 12.34 -4 12 C-3.71125 11.319375 -3.4225 10.63875 -3.125 9.9375 C-1.87402645 6.67106907 -0.92552045 3.37153877 0 0 Z " fill="#2D414C" transform="translate(652,508)"/>
<path d="M0 0 C5.09460217 2.39745985 8.09482341 6.29780696 11 11 C11 11.66 11 12.32 11 13 C10.34 13 9.68 13 9 13 C8 11.33333333 7 9.66666667 6 8 C5.13375 7.13375 4.2675 6.2675 3.375 5.375 C1 3 1 3 0 0 Z " fill="#A66E47" transform="translate(622,317)"/>
<path d="M0 0 C1.31223496 3.93670488 0.24296256 6.12488144 -1 10 C-1.66 10 -2.32 10 -3 10 C-3.33 10.66 -3.66 11.32 -4 12 C-3.91253716 10.56138706 -3.80434652 9.12402492 -3.6875 7.6875 C-3.62949219 6.88699219 -3.57148437 6.08648437 -3.51171875 5.26171875 C-2.91793306 2.63727666 -2.04219706 1.69179328 0 0 Z " fill="#120D0C" transform="translate(536,275)"/>
<path d="M0 0 C0.66 0 1.32 0 2 0 C2.336611 1.77021322 2.66917293 3.54119674 3 5.3125 C3.185625 6.29863281 3.37125 7.28476562 3.5625 8.30078125 C4 11 4 11 4 14 C3.01 14.495 3.01 14.495 2 15 C1.66048381 13.43883181 1.32867456 11.87598662 1 10.3125 C0.814375 9.44238281 0.62875 8.57226562 0.4375 7.67578125 C0.01027953 5.06287036 -0.07616201 2.64186962 0 0 Z " fill="#5C2923" transform="translate(521,549)"/>
<path d="M0 0 C0.33 0.66 0.66 1.32 1 2 C1.62261719 2.28875 2.24523437 2.5775 2.88671875 2.875 C5.43246479 4.23022155 6.32411674 5.55383537 7.8125 8 C8.25207031 8.70125 8.69164062 9.4025 9.14453125 10.125 C9.42683594 10.74375 9.70914062 11.3625 10 12 C9.67 12.66 9.34 13.32 9 14 C7.4911599 12.23669281 5.9931702 10.46409603 4.5 8.6875 C3.6646875 7.70136719 2.829375 6.71523438 1.96875 5.69921875 C0 3 0 3 0 0 Z " fill="#804734" transform="translate(491,490)"/>
<path d="M0 0 C2 1 4 2 6 3 C6 3.66 6 4.32 6 5 C6.66 5.66 7.32 6.32 8 7 C8.71408334 8.98356483 9.38617742 10.98315437 10 13 C6.07523398 9.29950632 3.01551157 5.48018862 0 1 C0 0.67 0 0.34 0 0 Z " fill="#120D0D" transform="translate(516,405)"/>
<path d="M0 0 C1.32 0.66 2.64 1.32 4 2 C2.88368586 3.83863505 1.75670373 5.67079723 0.625 7.5 C-0.00148438 8.5209375 -0.62796875 9.541875 -1.2734375 10.59375 C-1.84320312 11.3878125 -2.41296875 12.181875 -3 13 C-3.66 13 -4.32 13 -5 13 C-3.79618552 10.50638429 -2.54571278 8.31856917 -1 6 C-0.60986284 4.0103005 -0.26797351 2.00980131 0 0 Z " fill="#E8E4DD" transform="translate(516,278)"/>
<path d="M0 0 C0.66 0 1.32 0 2 0 C2.66 3.3 3.32 6.6 4 10 C3.01 10 2.02 10 1 10 C0.22157062 6.59437148 -0.09978121 3.49234244 0 0 Z " fill="#E4E5E0" transform="translate(580,498)"/>
<path d="M0 0 C3.85103301 0.53675903 5.31797587 2.11600923 7.75 5.0625 C8.36359375 5.79597656 8.9771875 6.52945312 9.609375 7.28515625 C10.06828125 7.85105469 10.5271875 8.41695313 11 9 C10.01 9.66 9.02 10.32 8 11 C7.4121875 9.6078125 7.4121875 9.6078125 6.8125 8.1875 C4.85260151 4.74078196 3.40239497 3.83913242 0 2 C0 1.34 0 0.68 0 0 Z " fill="#EEEEE9" transform="translate(548,447)"/>
<path d="M0 0 C0.99 0 1.98 0 3 0 C3.36923077 7.38461538 3.36923077 7.38461538 1.5 10.5 C1.005 10.995 0.51 11.49 0 12 C-1.03159626 8.90521121 -0.97482862 7.47368607 -0.5625 4.3125 C-0.46066406 3.50425781 -0.35882812 2.69601562 -0.25390625 1.86328125 C-0.17011719 1.24839844 -0.08632813 0.63351562 0 0 Z " fill="#2D3030" transform="translate(720,443)"/>
<path d="M0 0 C2.10954744 3.37685019 2.09148822 5.33825995 1.25 9.1875 C1.06953125 10.06792969 0.8890625 10.94835937 0.703125 11.85546875 C0.47109375 12.56316406 0.2390625 13.27085937 0 14 C-0.99 14.495 -0.99 14.495 -2 15 C-2.21755666 9.5610835 -2.10428384 5.12919186 0 0 Z " fill="#BC8F66" transform="translate(475,314)"/>
<path d="M0 0 C0.99 0 1.98 0 3 0 C2.67 1.65 2.34 3.3 2 5 C0.35 5.33 -1.3 5.66 -3 6 C-2.42655063 3.13275314 -2.1385485 2.1385485 0 0 Z " fill="#305D5F" transform="translate(610,567)"/>
<path d="M0 0 C0.99 0.99 1.98 1.98 3 3 C2.34 3 1.68 3 1 3 C0.855625 3.763125 0.71125 4.52625 0.5625 5.3125 C0 8 0 8 -1 11 C-1.99 11.33 -2.98 11.66 -4 12 C-3.52309796 10.37433394 -3.04340334 8.74948689 -2.5625 7.125 C-2.29566406 6.22007812 -2.02882813 5.31515625 -1.75390625 4.3828125 C-1 2 -1 2 0 0 Z " fill="#201E1B" transform="translate(625,539)"/>
<path d="M0 0 C0.33 0 0.66 0 1 0 C2.33257403 11.52164009 2.33257403 11.52164009 1 17 C0.67 17 0.34 17 0 17 C-1.05609621 11.85153098 -2.44433951 4.88867901 0 0 Z " fill="#704335" transform="translate(424,398)"/>
<path d="M0 0 C2.125 0.375 2.125 0.375 4 1 C3.71758359 2.46015291 3.42373386 3.91809793 3.125 5.375 C2.96257812 6.18710937 2.80015625 6.99921875 2.6328125 7.8359375 C2 10 2 10 0 12 C0.33 9.03 0.66 6.06 1 3 C0.01 2.67 -0.98 2.34 -2 2 C-1.34 1.34 -0.68 0.68 0 0 Z " fill="#C9A883" transform="translate(448,315)"/>
<path d="M0 0 C0.99 1.32 1.98 2.64 3 4 C2.34 4 1.68 4 1 4 C1 5.32 1 6.64 1 8 C-1 9.75 -1 9.75 -3 11 C-3.66 10.67 -4.32 10.34 -5 10 C-3.35 6.7 -1.7 3.4 0 0 Z " fill="#60351C" transform="translate(518,607)"/>
<path d="M0 0 C1 2 1 2 0.25 4.375 C-0.9393833 6.87270493 -2.25776832 8.86180657 -4 11 C-4.99 10.67 -5.98 10.34 -7 10 C-3.535 5.05 -3.535 5.05 0 0 Z " fill="#0F0F0E" transform="translate(571,586)"/>
<path d="M0 0 C0.66 0 1.32 0 2 0 C1.67 0.99 1.34 1.98 1 3 C0.34 3 -0.32 3 -1 3 C-1.68707555 5.49064888 -2 7.37886292 -2 10 C-2.99 10.33 -3.98 10.66 -5 11 C-5.38613383 8.37428995 -5.38493778 6.6156121 -3.95703125 4.33203125 C-2.625 2.6875 -2.625 2.6875 0 0 Z " fill="#F0F5F8" transform="translate(625,557)"/>
<path d="M0 0 C0.66 0.33 1.32 0.66 2 1 C2.125 3.875 2.125 3.875 2 7 C1.34 7.66 0.68 8.32 0 9 C-0.99 8.67 -1.98 8.34 -3 8 C-3 6.68 -3 5.36 -3 4 C-2.34 3.67 -1.68 3.34 -1 3 C-0.67 2.01 -0.34 1.02 0 0 Z " fill="#1C373C" transform="translate(647,517)"/>
<path d="M0 0 C2.72675159 2.40689803 4.11966596 4.92471023 5.6875 8.1875 C6.12449219 9.08855469 6.56148437 9.98960937 7.01171875 10.91796875 C7.33785156 11.60503906 7.66398438 12.29210937 8 13 C7.34 13.66 6.68 14.32 6 15 C3.74138003 10.06612142 1.59890486 5.19644079 0 0 Z " fill="#BC8967" transform="translate(544,477)"/>
<path d="M0 0 C3.22269618 3.79817765 5.74520378 7.57391854 8 12 C7.67 12.66 7.34 13.32 7 14 C5.84962529 12.3990869 4.70485184 10.79414775 3.5625 9.1875 C2.92441406 8.29417969 2.28632813 7.40085937 1.62890625 6.48046875 C0 4 0 4 -1 1 C-0.67 0.67 -0.34 0.34 0 0 Z " fill="#F1E4D4" transform="translate(491,406)"/>
<path d="M0 0 C0.33 0 0.66 0 1 0 C0.67 3.3 0.34 6.6 0 10 C-2.31 9.01 -4.62 8.02 -7 7 C-7 6.67 -7 6.34 -7 6 C-5.35 6 -3.7 6 -2 6 C-1.34 4.02 -0.68 2.04 0 0 Z " fill="#201713" transform="translate(508,598)"/>
<path d="M0 0 C0.66 0.33 1.32 0.66 2 1 C1.40606618 2.29640378 0.79942011 3.58698839 0.1875 4.875 C-0.14894531 5.59429688 -0.48539063 6.31359375 -0.83203125 7.0546875 C-2 9 -2 9 -5 11 C-3.92289822 6.69159287 -2.96052484 3.36423277 0 0 Z " fill="#EAF1E7" transform="translate(618,564)"/>
<path d="M0 0 C3.65316671 1.24976756 4.78065836 1.67098753 7 5 C6.625 7.1875 6.625 7.1875 6 9 C4.99406757 7.8803014 3.9954151 6.7540588 3 5.625 C2.443125 4.99851562 1.88625 4.37203125 1.3125 3.7265625 C0 2 0 2 0 0 Z " fill="#793C32" transform="translate(484,514)"/>
<path d="M0 0 C2.94751667 2.74423966 5.22773678 5.36219655 7 9 C6.67 9.99 6.34 10.98 6 12 C5.38125 11.030625 4.7625 10.06125 4.125 9.0625 C2.34321154 5.97164638 2.34321154 5.97164638 0 5 C0 3.35 0 1.7 0 0 Z " fill="#F0ECEA" transform="translate(564,464)"/>
<path d="M0 0 C0.66 0 1.32 0 2 0 C2.69937202 1.4317616 3.38412718 2.87067032 4.0625 4.3125 C4.63677734 5.51326172 4.63677734 5.51326172 5.22265625 6.73828125 C6 9 6 9 5 12 C4.15556432 10.75747321 3.3248542 9.5056114 2.5 8.25 C1.80390625 7.20585937 1.80390625 7.20585937 1.09375 6.140625 C0 4 0 4 0 0 Z " fill="#261A15" transform="translate(543,352)"/>
<path d="M0 0 C0.66 0.33 1.32 0.66 2 1 C2 1.99 2 2.98 2 4 C2.66 4 3.32 4 4 4 C4 4.66 4 5.32 4 6 C4.66 6.33 5.32 6.66 6 7 C6.625 10.0625 6.625 10.0625 7 13 C4.00027651 9.21087559 1.52489191 5.11168168 -1 1 C-0.67 0.67 -0.34 0.34 0 0 Z " fill="#854D3B" transform="translate(502,504)"/>
<path d="M0 0 C0.33 0 0.66 0 1 0 C1.28571429 8.57142857 1.28571429 8.57142857 -1 12 C-2.084894 8.74531799 -2.21314985 6.4103976 -2 3 C-1.34 2.01 -0.68 1.02 0 0 Z " fill="#2F1C16" transform="translate(666,460)"/>
<path d="M0 0 C2.3828125 -0.29296875 2.3828125 -0.29296875 5.125 -0.1875 C6.03507812 -0.16042969 6.94515625 -0.13335937 7.8828125 -0.10546875 C8.58148438 -0.07066406 9.28015625 -0.03585937 10 0 C10 0.33 10 0.66 10 1 C8.205625 1.37125 8.205625 1.37125 6.375 1.75 C2.20550902 2.77382519 -0.5823753 4.43678148 -4 7 C-2.79618552 4.50638429 -1.54571278 2.31856917 0 0 Z " fill="#EBE7DB" transform="translate(344,433)"/>
<path d="M0 0 C0.66 0.33 1.32 0.66 2 1 C2.4140625 3.06640625 2.4140625 3.06640625 2.625 5.5625 C2.69976563 6.38878906 2.77453125 7.21507812 2.8515625 8.06640625 C2.90054688 8.70449219 2.94953125 9.34257812 3 10 C2.54625 9.34 2.0925 8.68 1.625 8 C1.08875 7.34 0.5525 6.68 0 6 C-0.66 6 -1.32 6 -2 6 C-1.125 1.125 -1.125 1.125 0 0 Z " fill="#DDE1DE" transform="translate(546,253)"/>
<path d="M0 0 C5.94 0.99 5.94 0.99 12 2 C10 4 10 4 8.125 4.01171875 C7.42375 3.90472656 6.7225 3.79773438 6 3.6875 C4.948125 3.53861328 4.948125 3.53861328 3.875 3.38671875 C2 3 2 3 0 2 C0 1.34 0 0.68 0 0 Z " fill="#2A221D" transform="translate(703,458)"/>
<path d="M0 0 C3.69528813 2.62559946 5.85562438 4.5369351 7 9 C6.67 9.99 6.34 10.98 6 12 C4.99157547 10.56839732 3.99352109 9.12948547 3 7.6875 C2.1646875 6.48673828 2.1646875 6.48673828 1.3125 5.26171875 C0 3 0 3 0 0 Z " fill="#3C201F" transform="translate(623,417)"/>
<path d="M0 0 C0.75 1.75 0.75 1.75 1 4 C-0.9375 6.25 -0.9375 6.25 -3 8 C-2.67 6.68 -2.34 5.36 -2 4 C-2.99 3.67 -3.98 3.34 -5 3 C-2.25 0 -2.25 0 0 0 Z " fill="#D6A672" transform="translate(495,273)"/>
<path d="M0 0 C-1.5830577 4.2742558 -4.50568404 6.26531794 -8 9 C-7.67 7.68 -7.34 6.36 -7 5 C-6.34 5 -5.68 5 -5 5 C-5 4.01 -5 3.02 -5 2 C-2 0 -2 0 0 0 Z " fill="#EFEFE2" transform="translate(535,260)"/>
<path d="M0 0 C3 4 3 4 3.375 6.5625 C3 9 3 9 0 12 C0 8.04 0 4.08 0 0 Z " fill="#491C19" transform="translate(524,562)"/>
<path d="M0 0 C3.97497544 3.40712181 5.86793788 7.32760855 8 12 C7.34 12 6.68 12 6 12 C2.74505877 8.48141867 0.44053685 4.84590538 0 0 Z " fill="#A4674A" transform="translate(633,330)"/>
<path d="M0 0 C1.20628008 2.33214148 2.1654738 4.49642139 3 7 C2.67 7.66 2.34 8.32 2 9 C1.34 9 0.68 9 0 9 C-1.36623674 6.26752652 -1.128426 4.01801098 -1 1 C-0.67 0.67 -0.34 0.34 0 0 Z " fill="#422E25" transform="translate(524,596)"/>
<path d="M0 0 C0.99 0 1.98 0 3 0 C4.13643966 3.40931897 3.86747764 4.00335456 2.5625 7.1875 C2.13130859 8.26064453 2.13130859 8.26064453 1.69140625 9.35546875 C1.46324219 9.89816406 1.23507812 10.44085937 1 11 C0.67 11 0.34 11 0 11 C0 7.37 0 3.74 0 0 Z " fill="#491F19" transform="translate(522,590)"/>
<path d="M0 0 C0.99 0 1.98 0 3 0 C2.5206753 4.31392226 1.2542015 6.16569547 -2 9 C-1.34 6.03 -0.68 3.06 0 0 Z " fill="#191012" transform="translate(606,560)"/>
<path d="M0 0 C0.33 0 0.66 0 1 0 C1.21192221 5.19209404 0.5912689 9.126739 -1 14 C-2.2976149 9.78275157 -2.73841548 5.75373677 -1 1.625 C-0.67 1.08875 -0.34 0.5525 0 0 Z " fill="#5E3528" transform="translate(558,545)"/>
<path d="M0 0 C1.98 0 3.96 0 6 0 C6.66 2.31 7.32 4.62 8 7 C6.66382648 6.02471263 5.3311249 5.04466681 4 4.0625 C3.2575 3.51722656 2.515 2.97195313 1.75 2.41015625 C1.1725 1.94480469 0.595 1.47945313 0 1 C0 0.67 0 0.34 0 0 Z " fill="#EDE8E5" transform="translate(355,434)"/>
<path d="M0 0 C0.99 0.495 0.99 0.495 2 1 C2.4140625 3.28515625 2.4140625 3.28515625 2.625 6.0625 C2.69976562 6.98160156 2.77453125 7.90070313 2.8515625 8.84765625 C2.92503906 9.91306641 2.92503906 9.91306641 3 11 C2.34 11 1.68 11 1 11 C-0.28317892 7.15046324 -0.06643637 4.05261865 0 0 Z " fill="#110C11" transform="translate(500,357)"/>
<path d="M0 0 C1.48521677 0.75911079 2.96303425 1.53271234 4.4375 2.3125 C5.67306641 2.95638672 5.67306641 2.95638672 6.93359375 3.61328125 C9 5 9 5 10 8 C7 8 7 8 5 6.125 C4.34 5.42375 3.68 4.7225 3 4 C2.01 3.34 1.02 2.68 0 2 C0 1.34 0 0.68 0 0 Z " fill="#83543A" transform="translate(567,271)"/>
<path d="M0 0 C0.75 1.625 0.75 1.625 1 4 C-2.17808219 9.5890411 -2.17808219 9.5890411 -5 11 C-3.55049545 7.2089881 -1.84827434 3.6125362 0 0 Z " fill="#494740" transform="translate(542,586)"/>
<path d="M0 0 C1.14926266 0.95421808 2.29430541 1.91352045 3.4375 2.875 C4.07558594 3.40867187 4.71367188 3.94234375 5.37109375 4.4921875 C7 6 7 6 8 8 C7.67 8.66 7.34 9.32 7 10 C6.34 10 5.68 10 5 10 C4.731875 9.236875 4.46375 8.47375 4.1875 7.6875 C3.04199033 5.09503074 2.00288478 3.91184456 0 2 C0 1.34 0 0.68 0 0 Z " fill="#5B3429" transform="translate(573,395)"/>
<path d="M0 0 C2.66666667 2.66666667 5.33333333 5.33333333 8 8 C7.67 8.66 7.34 9.32 7 10 C2.78577758 7.11658466 1.23924145 4.95696581 0 0 Z " fill="#23130F" transform="translate(580,362)"/>
<path d="M0 0 C3.36591427 2.72478774 4.44226276 6.06856792 6 10 C5.01 10.495 5.01 10.495 4 11 C1.52214277 7.33708062 0.51035831 4.3890815 0 0 Z " fill="#9B5F47" transform="translate(644,348)"/>
<path d="M0 0 C1 2 1 2 0.9375 4 C0 6 0 6 -3.0625 7.25 C-4.031875 7.4975 -5.00125 7.745 -6 8 C-4.02 5.36 -2.04 2.72 0 0 Z " fill="#171513" transform="translate(562,599)"/>
<path d="M0 0 C0.99 0.99 1.98 1.98 3 3 C1.03533587 4.06775224 -0.96855359 5.06553465 -3 6 C-3.66 5.67 -4.32 5.34 -5 5 C-3.35 3.35 -1.7 1.7 0 0 Z " fill="#303233" transform="translate(622,550)"/>
<path d="M0 0 C2.375 0.6875 2.375 0.6875 5 2 C6.3125 4.625 6.3125 4.625 7 7 C4.13302508 5.71480435 2.02392288 4.42870746 0 2 C0 1.34 0 0.68 0 0 Z " fill="#EFE5DD" transform="translate(458,479)"/>
<path d="M0 0 C0.99 0.66 1.98 1.32 3 2 C-0.20380017 4.13586678 -1.01939967 4.23132175 -4.6875 4.125 C-5.89986328 4.09792969 -5.89986328 4.09792969 -7.13671875 4.0703125 C-8.05904297 4.03550781 -8.05904297 4.03550781 -9 4 C-9 3.67 -9 3.34 -9 3 C-6.69 3 -4.38 3 -2 3 C-2 2.34 -2 1.68 -2 1 C-1.34 0.67 -0.68 0.34 0 0 Z " fill="#0D0706" transform="translate(356,456)"/>
<path d="M0 0 C1.95418308 2.93127462 2.64700993 4.55834679 3 8 C2.34 8.66 1.68 9.32 1 10 C0.01 7.36 -0.98 4.72 -2 2 C-1.34 2 -0.68 2 0 2 C0 1.34 0 0.68 0 0 Z " fill="#884F3C" transform="translate(446,422)"/>
<path d="M0 0 C0.66 0.33 1.32 0.66 2 1 C1.1875 4.4375 1.1875 4.4375 0 8 C-0.99 8.33 -1.98 8.66 -3 9 C-2.01 6.03 -1.02 3.06 0 0 Z " fill="#764938" transform="translate(411,356)"/>
<path d="M0 0 C1 2 1 2 0.44140625 4.1640625 C0.15136719 4.97617187 -0.13867188 5.78828125 -0.4375 6.625 C-0.72496094 7.44226563 -1.01242187 8.25953125 -1.30859375 9.1015625 C-1.53675781 9.72804688 -1.76492188 10.35453125 -2 11 C-2.66 10.67 -3.32 10.34 -4 10 C-3.43454163 6.04179141 -2.19097652 3.3340947 0 0 Z " fill="#7E523A" transform="translate(417,345)"/>
<path d="M0 0 C-0.66 1.32 -1.32 2.64 -2 4 C-2.99 4 -3.98 4 -5 4 C-5.33 3.01 -5.66 2.02 -6 1 C-4 0 -4 0 0 0 Z " fill="#E5E0D4" transform="translate(619,552)"/>
<path d="M0 0 C1.9375 0.75 1.9375 0.75 4 2 C4.75 4.125 4.75 4.125 5 6 C4.34 6 3.68 6 3 6 C3 5.34 3 4.68 3 4 C2.34 4 1.68 4 1 4 C0.67 2.68 0.34 1.36 0 0 Z " fill="#784433" transform="translate(474,500)"/>
<path d="M0 0 C0.33 0 0.66 0 1 0 C0.67 2.64 0.34 5.28 0 8 C-0.99 8 -1.98 8 -3 8 C-1.125 1.125 -1.125 1.125 0 0 Z " fill="#3C2F35" transform="translate(661,489)"/>
<path d="M0 0 C2.46800047 1.15173355 4.04783565 2.04783565 6 4 C5.625 6.125 5.625 6.125 5 8 C5 7.34 5 6.68 5 6 C4.34 6 3.68 6 3 6 C2.67 4.68 2.34 3.36 2 2 C1.34 2 0.68 2 0 2 C0 1.34 0 0.68 0 0 Z " fill="#814C34" transform="translate(465,490)"/>
<path d="M0 0 C2.79872437 2.52788007 4.45773019 4.20411134 5 8 C3.0625 7.375 3.0625 7.375 1 6 C0.25 2.875 0.25 2.875 0 0 Z " fill="#5A2F27" transform="translate(584,407)"/>
<path d="M0 0 C0.66 0 1.32 0 2 0 C3.06652192 2.30368736 4.06421005 4.64018187 5 7 C4.67 7.66 4.34 8.32 4 9 C0 3.375 0 3.375 0 0 Z " fill="#462221" transform="translate(561,333)"/>
<path d="M0 0 C0.66 0 1.32 0 2 0 C1.25 6.75 1.25 6.75 -1 9 C-1.125 2.25 -1.125 2.25 0 0 Z " fill="#EAE7DF" transform="translate(501,311)"/>
<path d="M0 0 C0.66 0.33 1.32 0.66 2 1 C0.515 3.475 0.515 3.475 -1 6 C-2.32 5.67 -3.64 5.34 -5 5 C-3.35 3.35 -1.7 1.7 0 0 Z " fill="#B18A5F" transform="translate(457,296)"/>
<path d="M0 0 C0.66 0 1.32 0 2 0 C1.67 3.63 1.34 7.26 1 11 C0.67 11 0.34 11 0 11 C-0.19491452 9.54263913 -0.38069358 8.08405407 -0.5625 6.625 C-0.66691406 5.81289063 -0.77132812 5.00078125 -0.87890625 4.1640625 C-1 2 -1 2 0 0 Z " fill="#1E1916" transform="translate(533,285)"/>
<path d="M0 0 C0.66 0.33 1.32 0.66 2 1 C-2.75 5.875 -2.75 5.875 -5 7 C-5.33 5.68 -5.66 4.36 -6 3 C-4.03533587 1.93224776 -2.03144641 0.93446535 0 0 Z " fill="#856B4D" transform="translate(503,268)"/>
<path d="M0 0 C1.32 0.33 2.64 0.66 4 1 C4.66 3.31 5.32 5.62 6 8 C1.125 3.375 1.125 3.375 0 0 Z " fill="#220D0D" transform="translate(424,540)"/>
<path d="M0 0 C1.485 0.99 1.485 0.99 3 2 C3.6875 5.625 3.6875 5.625 4 9 C1.47740939 7.02579865 1.0070192 6.03254358 0.3125 2.8125 C0.209375 1.884375 0.10625 0.95625 0 0 Z " fill="#E7DBD4" transform="translate(501,534)"/>
<path d="M0 0 C0.66 0.99 1.32 1.98 2 3 C1.125 6.1875 1.125 6.1875 0 9 C-0.33 9 -0.66 9 -1 9 C-1.33 7.02 -1.66 5.04 -2 3 C-1.34 3 -0.68 3 0 3 C0 2.01 0 1.02 0 0 Z " fill="#3B2926" transform="translate(614,455)"/>
<path d="M0 0 C0.33 0 0.66 0 1 0 C1.66 3.63 2.32 7.26 3 11 C2.01 11 1.02 11 0 11 C0 7.37 0 3.74 0 0 Z " fill="#F1E7E0" transform="translate(696,444)"/>
<path d="M0 0 C2.97 1.98 2.97 1.98 6 4 C5.01 5.485 5.01 5.485 4 7 C2 6 2 6 0.875 2.9375 C0.58625 1.968125 0.2975 0.99875 0 0 Z " fill="#37191D" transform="translate(614,403)"/>
<path d="M0 0 C2.91227269 3.28804981 4.49701212 5.59885603 5 10 C2.66063182 7.87330165 1.19346152 5.93775144 0 3 C0 2.01 0 1.02 0 0 Z " fill="#140F11" transform="translate(511,394)"/>
<path d="M0 0 C0.99 0 1.98 0 3 0 C3 0.66 3 1.32 3 2 C2.34 2 1.68 2 1 2 C0.34 3.65 -0.32 5.3 -1 7 C-1.66 6.01 -2.32 5.02 -3 4 C-1.6875 2 -1.6875 2 0 0 Z " fill="#906842" transform="translate(428,327)"/>
<path d="M0 0 C0.99 0 1.98 0 3 0 C1.8141763 3.37503669 0.72426311 5.64722731 -2 8 C-1.47731534 5.23723823 -0.89130413 2.6739124 0 0 Z " fill="#CD986E" transform="translate(453,313)"/>
</svg>
